<svg width="6.435mm" height="6.4258mm" version="1.1" viewBox="0 0 6.435 6.4258" xmlns="http://www.w3.org/2000/svg">
 <path d="m4.8141 6.4208c-0.18941-0.02982-0.33274-0.075151-0.48656-0.15384-0.36757-0.18803-0.63176-0.51916-0.73818-0.92511-0.039011-0.14881-0.053055-0.41383-0.030204-0.57005 0.01822-0.12462 0.079562-0.32438 0.13077-0.42585 0.13682-0.27113 0.3869-0.52275 0.65411-0.65814 0.10122-0.05126 0.31137-0.11682 0.43048-0.13424 0.16028-0.023465 0.423-0.0097072 0.5746 0.03003 0.81539 0.21368 1.2759 1.0623 1.0097 1.8608-0.070323 0.21096-0.18865 0.40184-0.34762 0.56082-0.21299 0.21299-0.48259 0.35175-0.78547 0.40428-0.10289 0.017808-0.3307 0.024164-0.41165 0.011383zm0.43064-0.93517v-0.24698h0.49398v-0.50662h-0.49398v-0.49399h-0.50662v0.49399h-0.49398v0.50662h0.49398v0.49398h0.50662zm-4.5914 0.23815c-0.31114-0.041273-0.56723-0.28201-0.63372-0.59575-0.027509-0.12981-0.027138-4.3999 3.7991e-4 -4.5315 0.04633-0.22143 0.19533-0.41688 0.39152-0.51361 0.1917-0.094503 0.017927-0.088874 2.6264-0.085089l2.3398 0.0034918 0.082329 0.028144c0.24715 0.084544 0.43606 0.28454 0.49978 0.52907 0.017019 0.065367 0.019547 0.24752 0.019547 1.4097 0 0.73406-0.00426 1.3327-0.0095 1.3303-0.00523-0.00209-0.055919-0.028283-0.11265-0.057546-0.056733-0.029261-0.1636-0.074061-0.23748-0.099587l-0.13434-0.04644v-1.2086c0-1.1817-5.539e-4 -1.2097-0.025219-1.258-0.028241-0.05538-0.086306-0.10353-0.15083-0.12514-0.060576-0.020253-4.5576-0.020462-4.6306-3.1426e-4 -0.066086 0.018367-0.15116 0.10341-0.1695 0.1695-0.019247 0.069348-0.019994 4.3103-7.682e-4 4.3796 0.015518 0.05587 0.075058 0.12802 0.13094 0.15863 0.035931 0.019694 0.14075 0.022068 1.229 0.027865l1.1897 0.00628 0.015029 0.088658c0.016782 0.099014 0.060779 0.26224 0.088682 0.32902 0.010071 0.024094 0.018304 0.049723 0.018304 0.056847 0 0.012501-2.4338 0.016551-2.5268 0.00419zm0.49398-1.2508c-0.050024-0.024094-0.070581-0.042251-0.10813-0.095592-0.029268-0.041623-0.03144-0.056079-0.035072-0.23432-0.00363-0.17775-0.00196-0.19361 0.02533-0.24625 0.016062-0.030938 0.051085-0.073692 0.077829-0.094999l0.048627-0.038759 0.19454-0.00419c0.17092-0.0035 0.20132-0.00139 0.2504 0.020671 0.11554 0.05112 0.15389 0.15273 0.146 0.38682-0.00551 0.1633-0.025567 0.2175-0.10352 0.27971l-0.048627 0.03883-0.20469 0.00279c-0.15748 0.00209-0.21345-0.00139-0.24269-0.015154zm1.2324-0.00747c-0.10751-0.05678-0.14328-0.15932-0.13423-0.38479 0.00761-0.18932 0.042216-0.25839 0.1526-0.30452 0.03936-0.016481 0.12674-0.019484 0.56076-0.019484h0.51414l-0.057768 0.079159c-0.1128 0.15456-0.2129 0.35258-0.27854 0.55095l-0.034569 0.1045-0.33778-6.355e-4c-0.30995-4.749e-4 -0.34163-0.0027935-0.38459-0.025281zm-1.233-1.2386c-0.062064-0.028912-0.11425-0.08828-0.13316-0.15151-0.00839-0.028074-0.012347-0.11858-0.00984-0.22524 0.00398-0.16992 0.00587-0.18079 0.039046-0.2309 0.019163-0.028913 0.05906-0.065507 0.088662-0.081339 0.048592-0.025979 0.071041-0.028772 0.23114-0.028772 0.20474 0 0.23038 0.00489 0.29173 0.059081 0.081171 0.071261 0.088246 0.09599 0.088246 0.30825 0 0.18431-0.00105 0.19176-0.034716 0.24905-0.019094 0.032474-0.056141 0.072378-0.082329 0.088658-0.043544 0.027096-0.063831 0.02989-0.2376 0.033102-0.16418 0.00279-0.19694 3.142e-4 -0.24118-0.020392zm1.2806 0.014037c-0.048934-0.012431-0.11736-0.06837-0.146-0.11936-0.024191-0.043019-0.030358-0.07659-0.035463-0.19293-0.00779-0.17741 0.010182-0.27176 0.063272-0.33223 0.082477-0.093937-0.016768-0.087247 1.2953-0.087247 0.64784 0 1.1935 0.00419 1.2125 0.00971 0.044765 0.012501 0.11936 0.078287 0.14562 0.12836 0.021733 0.041413 0.039073 0.29415 0.024247 0.35324-0.0072 0.028703-0.014519 0.030937-0.12506 0.038341-0.22653 0.015084-0.45696 0.071883-0.65694 0.16194l-0.10975 0.049441-0.82162-0.0013967c-0.45189-6.984e-4 -0.83267-0.0041878-0.84613-0.0077512zm0.018926-1.2457c-0.069536-0.013897-0.13829-0.067043-0.17172-0.13286-0.021873-0.043019-0.02533-0.074914-0.02533-0.23351 0-0.16668 0.00265-0.18863 0.028751-0.23747 0.015812-0.029611 0.052441-0.069487 0.0814-0.088664l0.05265-0.034848 1.1789-0.0035c0.79495-0.00279 1.1938 4.748e-4 1.2246 0.0095 0.062888 0.018227 0.10825 0.056638 0.14044 0.11897 0.021656 0.041902 0.02836 0.081953 0.03297 0.19674 0.00716 0.17819-0.010007 0.26469-0.064913 0.32722-0.08006 0.091186-0.00139 0.085759-1.2752 0.087953-0.63046 0.00139-1.1716-0.0028-1.2025-0.00922zm-1.299-0.02968c-0.049961-0.022278-0.10157-0.078336-0.12599-0.1368-0.030198-0.072288-0.027258-0.36596 0.0043318-0.43422 0.027299-0.058942 0.081276-0.11303 0.13197-0.13219 0.01961-0.00741 0.11816-0.013479 0.21899-0.013479 0.15806 0 0.19015 0.0035 0.23276 0.025211 0.10362 0.052866 0.13894 0.13983 0.13894 0.3421 0 0.20227-0.035316 0.28924-0.13894 0.3421-0.042914 0.021929-0.074091 0.025141-0.23675 0.024722-0.12818-3.139e-4 -0.19933-0.00559-0.22533-0.017459z" stroke-width=".012666"/>
</svg>
