<?xml version="1.0" encoding="UTF-8" standalone="no"?>
<!-- Generator: Adobe Illustrator 27.5.0, SVG Export Plug-In . SVG Version: 6.00 Build 0)  -->

<svg
   version="1.1"
   x="0px"
   y="0px"
   viewBox="0 0 576.43952 406.05894"
   xml:space="preserve"
   id="svg165"
   sodipodi:docname="colored-woman.svg"
   inkscape:version="1.3 (1:1.3+202307231459+0e150ed6c4)"
   width="576.43951"
   height="406.05893"
   xmlns:inkscape="http://www.inkscape.org/namespaces/inkscape"
   xmlns:sodipodi="http://sodipodi.sourceforge.net/DTD/sodipodi-0.dtd"
   xmlns="http://www.w3.org/2000/svg"
   xmlns:svg="http://www.w3.org/2000/svg"><defs
   id="defs165">&#10;	&#10;	&#10;&#10;		&#10;		&#10;		&#10;		&#10;	&#10;			&#10;			&#10;			&#10;			&#10;			&#10;			&#10;			&#10;			&#10;			&#10;			&#10;			&#10;			&#10;			&#10;			&#10;		&#10;				&#10;				&#10;				&#10;				&#10;				&#10;				&#10;			</defs><sodipodi:namedview
   id="namedview165"
   pagecolor="#ffffff"
   bordercolor="#000000"
   borderopacity="0.25"
   inkscape:showpageshadow="2"
   inkscape:pageopacity="0.0"
   inkscape:pagecheckerboard="0"
   inkscape:deskcolor="#d1d1d1"
   showgrid="false"
   inkscape:zoom="1.2535325"
   inkscape:cx="326.27794"
   inkscape:cy="192.25668"
   inkscape:window-width="1920"
   inkscape:window-height="1136"
   inkscape:window-x="0"
   inkscape:window-y="0"
   inkscape:window-maximized="1"
   inkscape:current-layer="svg165"><inkscape:page
     x="0"
     y="0"
     width="576.43951"
     height="406.05893"
     id="page1"
     margin="0"
     bleed="0" /></sodipodi:namedview>&#10;&#10;&#10;<g
   id="g1"
   transform="translate(112.10246,-71.322367)"><g
     id="g21">&#10;			<path
   style="fill:#613a4a"
   d="m 125.668,366.996 c -7.194,0.461 -14.421,-2.199 -20.347,-6.466 5.896,4.19 12.918,6.517 20.347,6.466 z"
   id="path4" />&#10;			<path
   style="fill:#613a4a"
   d="m 131.32,366.473 c 2.632,-0.44 5.247,-1.081 7.863,-1.686 -2.602,1.217 -5.237,1.486 -7.863,1.686 z"
   id="path5" />&#10;			<path
   style="fill:#eaac60"
   d="m 360.158,224.375 16.526,36.098 c 0.023,-0.042 20.621,-8.009 40.866,-36.224 5.419,-7.552 9.126,-21.647 8.432,-33.945 -0.764,-13.591 -4.591,-25.924 -12.82,-36.801 -1.029,-1.361 -2.432,-2.435 -3.548,-3.74 -0.424,-0.493 -0.538,-1.244 -0.778,-1.892 -9.589,-4.885 -20.023,-7.196 -30.863,-10.767 -8.435,-2.773 -10.975,-9.92 -15.489,-16.588 -4.154,-6.151 -9.262,-11.682 -15.053,-16.326 -25.847,-20.724 -63.962,-17.865 -84.747,8.513 -11.059,14.033 -15.691,31.703 -19.095,48.869 -3.186,16.031 -20.209,25.849 -36.097,21.2 -2.789,-0.809 -5.371,-0.421 -7.839,1.001 -1.202,0.694 -2.362,1.47 -3.576,2.143 -5.666,3.143 -11.849,0.609 -13.586,-5.545 -0.158,-0.559 -0.298,-1.122 -0.502,-1.659 -2.217,-5.714 -7.603,-10.105 -13.94,-6.838 -3.7,1.913 -7.216,0.072 -10.483,-1.37 -3.438,-1.518 -6.468,-3.934 -9.895,-5.489 -7.674,-3.494 -15.787,-6.019 -24.084,-7.511 -28.371,-5.094 -58.705,2.49 -79.032,23.534 -17.839,18.467 -25.149,47.124 -21.162,72.176 1.906,11.95 6.615,24.157 15.051,33.047 -2.477,-8.976 -3.871,-18.22 -3.06,-27.561 2.57,-29.647 29.256,-49.826 58.403,-46.436 11.176,1.303 21.096,5.998 31.525,9.796 2.058,0.749 4.31,1.036 6.5,1.379 10.403,1.634 13.073,-8.314 19.213,-14.132 10.329,-9.783 26.625,-8.727 39.206,-4.67 2.548,0.818 4.939,2.182 7.326,3.435 3.09,1.616 6.055,1.219 8.493,-0.959 4.203,-3.749 8.526,-3.171 12.623,-0.419 3.232,2.174 5.355,2.4 7.851,5.397 2.838,3.408 5.881,5.894 10.167,7.319 4.81,1.6 9.97,1.767 15.039,1.713 16.762,-0.178 33.516,-2.606 50.238,-1.432 15.796,1.109 31.356,5.47 45.428,12.731 2.478,1.279 4.95,2.676 6.878,4.692 4.242,4.435 5.142,11.002 5.832,17.099 0.017,0.154 0.035,0.308 0.052,0.462 z"
   id="path6" />&#10;			<path
   style="fill:#613a4a"
   d="m 324.436,377.06 c -0.031,-4.493 0.45,-8.953 1.797,-13.278 -0.695,4.04 -0.826,8.281 -1.658,12.582 -0.044,0.232 -0.085,0.467 -0.139,0.696 z"
   id="path7" />&#10;			<path
   style="fill:#613a4a"
   d="m 298.612,427.359 c 5.509,-5.176 10.201,-11.371 13.935,-18.222 -3.69,6.823 -8.314,13.149 -13.935,18.222 z"
   id="path8" />&#10;			<path
   style="fill:#613a4a"
   d="m 364.183,347.097 c -1.856,-0.29 -3.709,-0.585 -5.561,-0.884 1.743,0.177 3.481,0.447 5.222,0.818 0.111,0.023 0.222,0.046 0.339,0.066 z"
   id="path9" />&#10;			<path
   style="fill:#eaac60"
   d="m 125.668,366.996 c -7.194,0.461 -14.421,-2.199 -20.347,-6.466 5.896,4.19 12.918,6.517 20.347,6.466 z"
   id="path10" />&#10;			<path
   style="fill:#eaac60"
   d="m 131.32,366.473 c 2.632,-0.44 5.247,-1.081 7.863,-1.686 -2.602,1.217 -5.237,1.486 -7.863,1.686 z"
   id="path11" />&#10;			<path
   style="fill:#dc5943"
   d="m 401.937,236.313 c -7.174,10.159 -36.023,25.18 -28.906,40.207 3.803,8.037 -6.836,18.794 -14.448,17.216 -0.801,-0.165 -1.636,-0.24 -2.451,-0.217 -3.98,0.084 -5.186,1.145 -5.668,5.073 -0.9,7.259 -14.332,7.615 -19.632,11.156 -10.038,6.691 -13.685,17.681 -16.785,28.755 -4.871,17.401 -9.464,36.193 -20.605,50.827 -22.194,29.154 -64.465,40.54 -97.41,23.304 -3.198,-2.917 -6.194,-6.039 -8.953,-9.35 -3.838,-4.595 -6.465,-10.322 -9.005,-15.995 5.339,10.476 11.823,16.917 23.291,21.634 13.278,5.456 31.857,6.159 42.416,-5.095 0.39,-0.417 0.771,-0.848 1.137,-1.296 8.926,-10.894 7.952,-27.752 11.818,-40.745 1.885,-6.323 5.517,-12.988 11.879,-14.744 5.803,-1.598 12.762,1.274 17.641,-2.254 6.89,-4.98 2.912,-17.658 9.655,-22.829 2.373,-1.817 5.507,-2.177 8.362,-3.075 9.281,-2.915 16.386,-21.01 17.913,-29.697 0.697,-3.986 0.655,-8.168 2.208,-11.912 3.949,-9.52 16.367,-12.65 21.866,-21.367 5.727,-9.09 2.065,-21.391 -4.485,-29.903 -8.714,-11.329 -22.349,-18.58 -36.521,-19.989 -5.985,-0.593 -13.221,-0.725 -18.547,2.469 -5.483,3.277 -8.688,9.525 -13.177,13.895 -11.109,10.832 -28.609,10.427 -44.099,9.655 -15.496,-0.77 -33.244,-0.284 -43.377,11.459 -4.18,4.849 -6.438,11.028 -9.91,16.406 -3.467,5.38 -8.974,10.278 -15.37,9.971 -4.805,-0.239 -11.036,-2.783 -13.453,1.378 -0.624,1.076 -0.77,2.427 -1.575,3.376 -1.685,1.975 -5.035,0.959 -6.856,-0.895 -1.815,-1.856 -2.971,-4.379 -5.14,-5.803 -4.086,-2.694 -9.97,-0.032 -12.363,4.229 -2.389,4.263 -2.217,9.46 -1.802,14.334 0.417,4.869 0.99,9.944 -0.751,14.515 -2.537,6.629 -9.636,10.727 -16.704,11.343 -7.074,0.619 -14.087,-1.693 -20.497,-4.748 0.182,0.433 0.355,0.873 0.514,1.312 -0.756,-0.503 -1.536,-0.928 -2.315,-1.262 -13.542,-5.799 -29.119,-9.346 -40.187,-20.16 -0.413,-0.399 -0.811,-0.807 -1.203,-1.228 -2.477,-8.976 -3.871,-18.22 -3.06,-27.561 2.57,-29.647 29.256,-49.826 58.403,-46.436 11.176,1.303 21.096,5.998 31.525,9.796 2.058,0.749 4.31,1.036 6.5,1.379 10.403,1.634 13.073,-8.314 19.213,-14.132 10.329,-9.783 26.625,-8.727 39.206,-4.67 2.548,0.818 4.939,2.182 7.326,3.435 3.09,1.616 6.055,1.219 8.493,-0.959 4.203,-3.749 8.526,-3.171 12.623,-0.419 3.913,2.633 7.881,2.728 12.008,1.409 5.753,-1.83 10.216,-5.085 11.547,-11.512 0.707,-3.403 2.984,-4.931 6.483,-4.665 1.637,0.12 3.268,0.369 4.907,0.484 6.645,0.47 10.366,-2.108 12.391,-8.343 3.206,-9.869 1.722,-19.791 6.665,-29.307 11.197,-21.557 41.175,-32.658 63.975,-24.712 9.893,3.448 18.367,10.001 28.288,13.416 9.466,3.259 19.146,5.482 27.317,11.586 15.185,11.343 22.368,30.72 20.981,49.308 -0.848,11.386 -4.689,22.611 -11.296,31.953 z"
   id="path12" />&#10;			<path
   style="fill:#eaac60"
   d="m 196.032,412.634 c -0.057,-0.025 -0.112,-0.055 -0.168,-0.085 -9.259,-4.881 -13.512,-15.528 -18.008,-25.694 -5.247,-11.882 -10.824,-23.08 -25.053,-23.704 14.973,0.585 19.938,12.237 25.264,24.118 2.547,5.692 5.174,11.418 9.012,16.013 2.759,3.314 5.755,6.436 8.953,9.352 z"
   id="path13" />&#10;			<path
   style="fill:#613a4a"
   d="m 348.9,248.57 c -0.355,2.574 -1.199,5.057 -2.637,7.338 -5.502,8.718 -17.918,11.848 -21.866,21.367 -1.555,3.746 -1.512,7.927 -2.207,11.912 -1.528,8.686 -8.633,26.78 -17.913,29.698 -2.86,0.897 -5.991,1.258 -8.362,3.072 -6.744,5.173 -2.764,17.849 -9.657,22.832 -4.882,3.529 -11.838,0.653 -17.643,2.255 -6.362,1.751 -9.991,8.421 -11.875,14.74 -2.083,6.989 -4.261,16.051 -4.094,23.371 0.167,7.293 4.982,13.179 2.779,21.154 -5.283,19.126 -25.322,30.561 -44.288,23.816 -22.024,-7.832 -26.853,-30.29 -35.74,-49.13 -2.809,-5.956 -6.674,-12.002 -12.605,-15.247 -2.754,-1.507 -6.017,-2.441 -9.986,-2.595 -0.175,-0.011 -0.355,-0.016 -0.531,-0.021 h -0.324 c -0.451,-0.011 -0.913,-0.005 -1.38,0.011 -0.058,0 -0.117,0.005 -0.18,0.005 -0.292,-0.005 -0.578,0 -0.87,0.011 -3.354,0.042 -6.988,-0.143 -9.668,1.295 -0.223,0.117 -0.446,0.228 -0.669,0.334 -2.616,0.605 -5.232,1.247 -7.863,1.687 -1.326,0.096 -2.626,0.175 -3.921,0.35 -0.573,0.08 -1.151,0.138 -1.73,0.17 -7.428,0.053 -14.454,-2.276 -20.349,-6.468 -0.324,-0.228 -0.605,-0.435 -0.881,-0.647 -1.512,-1.151 -2.924,-2.404 -4.224,-3.735 -0.462,-0.478 -0.886,-0.929 -1.295,-1.39 -0.239,-0.276 -0.472,-0.547 -0.7,-0.822 -7.476,-8.999 -9.79,-21.33 -9.232,-32.786 0.249,-5.067 -2.977,-9.668 -6.84,-12.236 -0.159,-0.435 -0.334,-0.875 -0.515,-1.311 6.41,3.056 13.424,5.364 20.497,4.749 7.068,-0.615 14.167,-4.717 16.703,-11.344 1.74,-4.568 1.167,-9.646 0.754,-14.517 -0.419,-4.871 -0.589,-10.071 1.799,-14.332 2.393,-4.261 8.277,-6.924 12.363,-4.229 2.17,1.422 3.327,3.948 5.141,5.805 1.82,1.852 5.173,2.871 6.855,0.891 0.806,-0.944 0.95,-2.298 1.576,-3.375 2.414,-4.16 8.649,-1.618 13.451,-1.38 6.399,0.308 11.901,-4.59 15.372,-9.97 3.47,-5.375 5.73,-11.556 9.912,-16.406 10.129,-11.742 27.878,-12.225 43.377,-11.456 15.488,0.769 32.988,1.178 44.098,-9.657 4.489,-4.367 7.694,-10.617 13.175,-13.896 4.786,-2.871 11.111,-3.056 16.682,-2.632 0.637,0.048 1.258,0.106 1.868,0.164 14.167,1.411 27.804,8.659 36.516,19.988 1.279,1.661 2.446,3.465 3.454,5.359 2.872,5.391 4.463,11.525 3.673,17.208 z"
   id="path14" />&#10;			<path
   style="fill:#dd8071"
   d="m 98.922,354.753 c 1.638,1.852 3.494,3.579 5.518,5.129 -1.988,-1.502 -3.837,-3.221 -5.518,-5.129 z"
   id="path15" />&#10;			<path
   style="fill:#dd8071"
   d="m 127.4,366.826 c 1.293,-0.174 2.593,-0.257 3.894,-0.354 -1.817,0.3 -3.643,0.502 -5.484,0.523 -0.047,0 -0.095,0 -0.142,0 0.578,-0.033 1.156,-0.092 1.732,-0.169 z"
   id="path16" />&#10;			<path
   style="fill:#dd8071"
   d="m 149.52,363.161 c -3.474,0.108 -6.903,0.837 -10.337,1.626 0.226,-0.105 0.449,-0.217 0.669,-0.335 2.678,-1.434 6.313,-1.251 9.668,-1.291 z"
   id="path17" />&#10;			<path
   style="fill:#dd8071"
   d="m 178.067,387.271 c -0.073,-0.132 -0.142,-0.273 -0.211,-0.415 -0.23,-0.455 -0.445,-0.897 -0.662,-1.346 -5.035,-10.52 -11.379,-20.757 -23.885,-22.207 -0.977,-0.112 -1.949,-0.163 -2.92,-0.157 0.063,10e-4 0.123,-0.004 0.181,-0.004 0.469,-0.013 0.93,-0.02 1.378,-0.01 0.11,10e-4 0.22,0.003 0.325,0.002 0.177,0.005 0.358,0.011 0.529,0.018 14.973,0.585 19.938,12.237 25.265,24.119 z"
   id="path18" />&#10;			<path
   style="fill:#eebdca"
   d="m 410.715,148.262 c 0.49,0.486 0.98,0.971 1.473,1.463 -1.106,-0.664 -2.223,-1.279 -3.353,-1.854 0.628,0.094 1.487,0.006 1.88,0.391 z"
   id="path19" />&#10;			<path
   style="fill:#eebdca"
   d="m 352.954,345.286 c 1.891,0.306 3.78,0.616 5.668,0.927 -4.447,-0.475 -8.918,-0.387 -13.43,0.056 -8.898,0.874 -14.189,6.046 -17.6,13.841 -0.532,1.212 -0.979,2.435 -1.358,3.672 0.728,-4.246 2.083,-8.267 5.533,-11.907 5.579,-5.871 13.385,-7.845 21.187,-6.589 z"
   id="path20" />&#10;			<path
   style="fill:#eebdca"
   d="m 373.632,348.52 c -3.118,-0.281 -6.268,-0.761 -9.449,-1.423 3.148,0.5 6.296,0.984 9.449,1.423 z"
   id="path21" />&#10;		</g><g
     id="g44">&#10;			<path
   style="fill:#f2cfc0"
   d="m 322.005,317.159 c -9.93,-0.219 -19.827,-2.156 -28.622,-5.333 -3.834,-1.385 -7.607,-2.935 -11.408,-4.411 -0.078,-0.03 -0.165,-0.046 -0.235,-0.09 -0.693,-0.428 -1.738,-0.629 -1.728,-1.621 0.008,-0.788 0.803,-1.207 1.445,-1.622 4.839,-3.136 9.79,-6.096 14.491,-9.45 3.977,-2.838 7.653,-5.994 10.903,-9.633 2.613,-2.926 4.39,-6.342 5.055,-10.197 0.944,-5.476 0.86,-10.997 0.14,-16.507 -0.054,-0.415 -0.075,-0.836 -0.082,-1.254 -0.035,-1.972 0.149,-2.167 2.146,-1.591 1.4,0.404 2.799,0.44 4.224,0.477 5.034,0.131 10.048,-0.279 15.07,-0.497 0.914,-0.04 1.877,-0.042 2.745,0.2 1.329,0.369 2.457,-0.125 3.613,-0.544 0.428,-0.155 0.707,-0.829 1.278,-0.467 0.522,0.331 0.813,0.897 0.733,1.515 -0.233,1.789 0.337,3.494 0.575,5.218 0.536,3.875 0.667,7.817 1.699,11.614 1.802,6.634 5.506,11.93 11.259,15.742 3.339,2.213 6.668,4.449 10.561,5.631 0.477,0.145 0.939,0.356 1.383,0.585 0.88,0.452 1.144,1.415 1.647,2.159 0.395,0.584 -0.342,1.031 -0.569,1.543 -1.561,3.503 -4.336,5.938 -7.369,8.051 -11.093,7.731 -25.055,10.789 -38.954,10.482 z"
   id="path22" />&#10;			<path
   style="opacity:0.7;fill:#f2cfc0"
   d="m 322.005,317.159 c -9.93,-0.219 -19.827,-2.156 -28.622,-5.333 -3.834,-1.385 -7.607,-2.935 -11.408,-4.411 -0.078,-0.03 -0.165,-0.046 -0.235,-0.09 -0.693,-0.428 -1.738,-0.629 -1.728,-1.621 0.008,-0.788 0.803,-1.207 1.445,-1.622 4.839,-3.136 9.79,-6.096 14.491,-9.45 3.977,-2.838 7.653,-5.994 10.903,-9.633 2.613,-2.926 4.39,-6.342 5.055,-10.197 0.944,-5.476 0.86,-10.997 0.14,-16.507 -0.054,-0.415 -0.075,-0.836 -0.082,-1.254 -0.035,-1.972 0.149,-2.167 2.146,-1.591 1.4,0.404 2.799,0.44 4.224,0.477 5.034,0.131 10.048,-0.279 15.07,-0.497 0.914,-0.04 1.877,-0.042 2.745,0.2 1.329,0.369 2.457,-0.125 3.613,-0.544 0.428,-0.155 0.707,-0.829 1.278,-0.467 0.522,0.331 0.813,0.897 0.733,1.515 -0.233,1.789 0.337,3.494 0.575,5.218 0.536,3.875 0.667,7.817 1.699,11.614 1.802,6.634 5.506,11.93 11.259,15.742 3.339,2.213 6.668,4.449 10.561,5.631 0.477,0.145 0.939,0.356 1.383,0.585 0.88,0.452 1.144,1.415 1.647,2.159 0.395,0.584 -0.342,1.031 -0.569,1.543 -1.561,3.503 -4.336,5.938 -7.369,8.051 -11.093,7.731 -25.055,10.789 -38.954,10.482 z"
   id="path23" />&#10;			<path
   style="fill:#f2cfc0"
   d="m 327.086,261.324 c -10.494,-0.526 -20.844,-4.522 -29.483,-11.859 -7.54,-6.403 -11.217,-15.9 -12.889,-25.42 -1.127,-6.419 -1.218,-12.968 -2.469,-19.372 -0.12,-0.612 -0.096,-1.159 0.573,-1.735 12.206,-10.494 26.831,-15.801 42.216,-18.991 13.567,-2.813 26.22,0.241 37.485,8.438 3.2,2.328 5.773,5.332 8.418,8.274 4.01,4.461 4.4,9.65 3.732,15.18 -0.261,2.16 -0.093,4.33 -0.423,6.515 -1.66,10.993 -6.502,22.258 -15.581,29.113 -9.496,7.169 -20.617,10.406 -31.579,9.857 z"
   id="path24" />&#10;			<path
   style="fill:#ffffff"
   d="m 369.517,245.806 c -0.027,-3.878 3.008,-7.053 7.036,-6.94 3.761,0.106 7.448,2.929 7.313,6.993 -0.119,3.584 -3.554,6.704 -7.718,6.602 -3.902,-0.096 -6.925,-3.011 -6.631,-6.655 z"
   id="path25" />&#10;			<path
   style="fill:#ffffff"
   d="m 278.978,251.085 c -4.79,0.016 -8.895,-5.565 -5.858,-9.926 1.256,-1.804 3.732,-3.681 5.996,-3.704 3.211,-0.033 6.979,3.515 6.982,6.576 0.004,3.082 -2.94,6.304 -5.879,6.923 -0.416,0.088 -0.831,0.13 -1.241,0.131 z"
   id="path26" />&#10;			<path
   style="fill:#dd8071"
   d="m 366.5,229.926 c 0.735,5.994 -11.531,10.413 -11.413,3.797 0.026,-1.477 0.821,-2.857 1.872,-3.895 2.195,-2.168 7.794,-5.386 9.339,-0.784 0.1,0.296 0.166,0.591 0.202,0.882 z"
   id="path27" />&#10;			<path
   style="fill:#dd8071"
   d="m 293.875,228.708 c 3.682,-1.152 7.654,1.98 8.589,5.458 0.426,1.583 0.037,3.637 -1.475,4.568 -1.491,0.918 -3.436,0.349 -4.878,-0.379 -2.728,-1.378 -6.454,-5.06 -4.167,-8.298 0.472,-0.668 1.158,-1.107 1.931,-1.349 z"
   id="path28" />&#10;			<path
   style="fill:#462b29"
   d="m 308.555,227.713 c -0.053,-0.002 -0.105,-0.005 -0.158,-0.009 -3.589,-0.238 -7.062,-2.35 -9.264,-5.121 -0.35,-0.441 -0.553,-1.017 -0.747,-1.558 -0.112,-0.314 -0.014,-0.707 0.355,-0.813 0.194,-0.056 0.524,0.052 0.668,0.203 0.342,0.36 0.584,0.812 0.911,1.188 3.641,4.188 10.029,6.04 14.273,1.698 0.352,-0.36 0.681,-0.743 1.057,-1.076 0.174,-0.154 0.533,-0.357 0.634,-0.287 0.3,0.207 0.281,0.587 0.151,0.909 -1.191,2.958 -4.732,5.001 -7.88,4.866 z"
   id="path29" />&#10;			<path
   style="fill:#f2cfc0"
   d="m 277.917,217.917 c -3.984,-2.314 -6.384,-8.404 -2.143,-11.604 2.425,-1.83 7.286,-1.162 8.648,1.78 0.28,0.604 0.382,1.273 0.475,1.932 0.279,1.982 1.593,6.163 -0.357,7.63 -2.175,1.637 -4.603,1.434 -6.623,0.262 z"
   id="path30" />&#10;			<path
   style="fill:#462b29"
   d="m 348.961,223.18 c -2.407,0.04 -5.383,-0.804 -7.12,-2.54 -0.351,-0.35 -0.672,-0.735 -0.973,-1.13 -0.161,-0.21 -0.147,-0.514 0.054,-0.671 0.174,-0.135 0.468,-0.23 0.674,-0.184 0.309,0.069 0.607,0.247 0.877,0.428 4.811,3.234 10.289,2.927 14.462,-0.788 0.581,-0.518 1.322,-1.785 1.775,-1.343 0.854,0.835 -0.363,1.645 -0.895,2.259 -2.24,2.59 -5.127,3.907 -8.854,3.969 z"
   id="path31" />&#10;			<path
   style="opacity:0.7;fill:#f2cfc0"
   d="m 281.133,216.396 c -3.067,-0.091 -5.696,-4.402 -4.295,-6.862 1.14,-2.003 3.903,-2.445 5.261,-0.751 0.207,0.259 0.387,0.576 0.016,0.861 -0.213,0.163 -0.431,0.161 -0.677,0.01 -0.554,-0.34 -1.03,-0.857 -1.799,-0.698 -1.511,0.313 -2.161,1.568 -1.486,3.051 0.812,1.785 2.199,2.884 4.132,3.298 0.317,0.068 0.953,-0.166 0.825,0.504 -0.085,0.444 -0.563,0.567 -1.003,0.585 -0.167,0.008 -0.334,0.002 -0.974,0.002 z"
   id="path32" />&#10;			<path
   style="fill:#f2cfc0"
   d="m 379.313,221.01 c 3.984,-2.314 6.384,-8.404 2.142,-11.604 -2.425,-1.83 -7.285,-1.162 -8.648,1.78 -0.28,0.604 -0.382,1.273 -0.475,1.932 -0.279,1.982 -1.593,6.163 0.357,7.63 2.176,1.637 4.603,1.434 6.624,0.262 z"
   id="path33" />&#10;			<path
   style="fill:#462b29"
   d="m 328.587,236.337 c -0.309,-0.078 -0.578,-0.092 -0.783,-0.214 -0.204,-0.121 -0.343,-0.352 -0.511,-0.534 0.176,-0.141 0.331,-0.336 0.532,-0.413 0.929,-0.36 1.934,-0.573 2.793,-1.052 1.409,-0.786 1.813,-0.788 0.661,-2.396 -1.81,-2.526 -1.733,-5.325 -1.626,-8.174 0.012,-0.329 0.113,-0.69 0.511,-0.745 0.496,-0.069 0.514,0.373 0.498,0.66 -0.168,2.979 0.759,6.012 2.036,8.673 0.557,1.161 0.227,2.079 -0.721,2.85 -1.005,0.819 -2.221,1.08 -3.39,1.345 z"
   id="path34" />&#10;			<path
   style="opacity:0.7;fill:#f2cfc0"
   d="m 380.421,214.948 c -0.281,1.878 -1.484,3.691 -3.508,4.95 -0.21,0.131 -0.597,0.436 -0.887,0.087 -0.277,-0.332 -0.031,-0.628 0.222,-0.841 0.919,-0.775 1.479,-1.811 2.032,-2.837 0.272,-0.504 0.48,-1.086 0.542,-1.651 0.165,-1.509 -0.775,-2.187 -2.182,-1.659 -0.556,0.209 -1.197,1.21 -1.629,0.478 -0.442,-0.749 0.635,-1.223 1.201,-1.632 0.769,-0.555 1.733,-0.865 2.596,-0.338 1.042,0.636 1.673,1.63 1.613,3.443 z"
   id="path35" />&#10;			<path
   style="fill:#462b29"
   d="m 336.911,246.906 c 0.304,0 0.053,0.001 -0.197,0 -0.767,-0.003 -1.826,-0.023 -1.851,-0.855 -0.032,-1.074 1.111,-0.711 1.761,-0.702 2.285,0.033 4.172,-0.982 6.013,-2.138 0.632,-0.396 1.203,-0.889 1.819,-1.313 0.116,-0.08 0.337,-0.107 0.464,-0.052 0.279,0.12 0.216,0.352 0.129,0.6 -0.289,0.825 -0.897,1.407 -1.527,1.943 -1.742,1.485 -3.654,2.604 -6.611,2.517 z"
   id="path36" />&#10;			<path
   style="fill:#dc5943"
   d="m 276.41,199.599 c 2.727,6.109 9.527,9.739 16.212,9.995 6.684,0.256 13.196,-2.4 18.794,-6.061 5.114,-3.344 9.969,-8.163 10.488,-14.251 7.237,13.206 21.227,22.469 36.211,23.976 6.195,0.623 12.976,-0.208 17.59,-4.387 4.388,-3.975 5.994,-10.419 5.076,-16.268 -0.918,-5.849 -4.069,-11.147 -7.921,-15.642 -2.431,-2.837 -5.202,-5.446 -8.493,-7.214 -3.932,-2.112 -8.41,-2.929 -12.811,-3.676 -12.915,-2.19 -26.227,-4.007 -39.03,-1.238 -10.089,2.183 -19.304,7.126 -27.796,12.861 -3.109,2.1 -7.882,4.391 -9.303,7.985 -1.514,3.834 -0.641,10.281 0.983,13.92 z"
   id="path37" />&#10;			<g
   id="g40">&#10;				<g
   id="g39">&#10;					<g
   id="g38">&#10;						<path
   style="fill:#ffffff"
   d="m 279.712,235.363 c -0.249,0 -0.466,-0.185 -0.5,-0.439 -0.462,-3.527 -0.872,-7.105 -1.218,-10.635 -0.059,-0.602 -0.117,-1.205 -0.174,-1.808 l -0.021,-0.217 c -0.026,-0.277 0.177,-0.523 0.454,-0.55 0.275,-0.028 0.524,0.177 0.55,0.454 l 0.021,0.217 c 0.057,0.602 0.115,1.203 0.174,1.805 0.345,3.519 0.754,7.087 1.215,10.603 0.036,0.276 -0.158,0.53 -0.435,0.566 -0.021,0.003 -0.044,0.004 -0.066,0.004 z"
   id="path38" />&#10;					</g>&#10;				</g>&#10;			</g>&#10;			<g
   id="g43">&#10;				<g
   id="g42">&#10;					<g
   id="g41">&#10;						<path
   style="fill:#ffffff"
   d="m 376.684,237.04 c -0.023,0 -0.046,-0.001 -0.069,-0.005 -0.276,-0.038 -0.469,-0.292 -0.431,-0.568 0.482,-3.521 1.027,-7.081 1.622,-10.581 0.114,-0.669 0.229,-1.337 0.345,-2.005 0.048,-0.274 0.308,-0.456 0.583,-0.411 0.275,0.048 0.459,0.309 0.411,0.583 -0.115,0.667 -0.231,1.335 -0.344,2.002 -0.593,3.489 -1.137,7.039 -1.617,10.549 -0.035,0.253 -0.252,0.436 -0.5,0.436 z"
   id="path40" />&#10;					</g>&#10;				</g>&#10;			</g>&#10;			<path
   style="fill:#64a399"
   d="m 405.439,381.1 c -0.022,23.483 -6.774,60.839 -28.231,63.905 -5.482,0.783 -10.595,-2.509 -15.798,-4.405 -27.786,-10.125 -58.414,19.521 -86.347,9.809 -10.935,-3.802 -19.171,-13.242 -24.106,-23.715 -6.538,-13.875 -10.266,-31.023 -9.854,-46.29 0.523,-19.391 2.334,-42.807 15.233,-58.381 4.405,-5.323 9.748,-9.673 15.341,-13.72 1.656,-1.198 3.334,-2.367 5.064,-3.456 1.894,-1.192 4.56,-3.579 6.944,-3.102 1.117,0.224 2.119,0.819 3.11,1.38 22.461,12.712 55.076,14.102 75.35,-3.665 1.557,-1.365 2.462,-3.083 3.919,-4.529 3.833,-3.796 19.944,18.461 21.875,21.455 10.305,15.974 14.052,34.146 16.771,52.686 0.469,3.201 0.733,7.338 0.729,12.028 z"
   id="path43" />&#10;		</g><g
     id="g52">&#10;				<g
   id="g51">&#10;					<g
   id="g45">&#10;						<path
   style="fill:#613a4a"
   d="m 277.2,420.943 c -2.477,-1.324 -2.562,-3.042 -0.271,-4.7 5.65,-4.09 11.894,-8.305 19.214,-6.863 6.724,1.325 1.252,7.866 -2.153,9.361 -2.458,1.079 -5.015,1.934 -7.628,2.55 -2.909,0.686 -6.447,1.102 -9.162,-0.348 z"
   id="path44" />&#10;					</g>&#10;					<g
   id="g46">&#10;						<path
   style="fill:#613a4a"
   d="m 279.224,385.676 c 0.917,-3.613 2.637,-7.209 5.559,-9.627 2.601,-2.153 6.043,-3.041 6.966,1.32 0.366,1.728 -0.068,3.522 -0.633,5.196 -1.393,4.126 -3.181,8.279 -6.277,11.428 -1.978,2.012 -5.786,6.969 -6.715,1.037 -0.478,-3.053 0.349,-6.395 1.1,-9.354 z"
   id="path45" />&#10;					</g>&#10;					<g
   id="g47">&#10;						<path
   style="fill:#613a4a"
   d="m 312.458,400.287 c -2.816,-0.927 -9.414,-2.969 -10.737,-5.958 -0.652,-1.473 0.983,-2.16 2.091,-2.549 5.293,-1.859 11.869,-2.97 16.916,0.486 4.278,2.929 3.485,8.387 -1.989,8.913 -2.036,0.195 -4.171,-0.197 -6.281,-0.892 z"
   id="path46" />&#10;					</g>&#10;					<g
   id="g48">&#10;						<path
   style="fill:#613a4a"
   d="m 327.624,361.972 c 1.376,0.102 2.557,0.86 3.196,2.699 1.517,4.364 -3.411,8.095 -6.52,10.145 -2.045,1.349 -8.844,6.58 -11.102,3.083 -0.746,-1.155 -0.055,-2.667 0.636,-3.856 2.736,-4.713 7.39,-12.546 13.79,-12.071 z"
   id="path47" />&#10;					</g>&#10;					<g
   id="g49">&#10;						<path
   style="fill:#613a4a"
   d="m 346.522,380.56 c -2.572,-0.612 -6.827,-1.641 -8.875,-3.428 -0.597,-0.521 -0.953,-1.407 -0.622,-2.127 0.354,-0.769 1.289,-1.044 2.114,-1.233 2.317,-0.531 4.634,-1.062 6.951,-1.592 2.29,-0.525 4.728,-1.043 6.944,-0.262 5.139,1.81 4.298,7.441 -0.619,8.763 -1.896,0.51 -3.898,0.354 -5.893,-0.121 z"
   id="path48" />&#10;					</g>&#10;					<g
   id="g50">&#10;						<path
   style="fill:#613a4a"
   d="m 262.729,437.962 c 4.483,-16.939 13.076,-31.222 27.353,-41.725 10.726,-7.891 22.224,-14.38 34.959,-18.484 1.897,-0.611 3.889,-0.929 5.835,-1.392 0.383,-0.091 0.649,0.033 0.677,0.409 0.012,0.167 -0.166,0.445 -0.325,0.511 -0.718,0.296 -1.446,0.588 -2.196,0.785 -7.205,1.889 -13.845,5.09 -20.383,8.582 -5.66,3.022 -11.219,6.186 -16.354,10.047 -9.803,7.37 -17.731,16.278 -22.784,27.59 -2.652,5.936 -4.98,11.972 -6.471,18.312 -0.077,0.328 -0.173,0.652 -0.265,0.976 -0.093,0.325 -0.287,0.682 -0.62,0.625 -0.478,-0.082 -0.788,-0.49 -0.677,-0.986 0.389,-1.758 0.829,-3.502 1.251,-5.25 z"
   id="path49" />&#10;					</g>&#10;				</g>&#10;			</g><g
     id="g60">&#10;				<g
   id="g59">&#10;					<path
   style="fill:#613a4a"
   d="m 397.564,438.028 c -1.558,0.619 -2.782,1.572 -2.493,2.962 0.303,1.457 2.958,3.495 4.037,4.432 3.383,2.94 7.472,4.921 11.859,5.805 1.283,0.259 2.613,0.427 3.897,0.175 3.798,-0.744 6.195,-5.28 3.331,-8.303 -3.714,-3.92 -10.625,-6.2 -15.941,-6.04 -0.998,0.03 -3.033,0.311 -4.69,0.969 z"
   id="path52" />&#10;					<path
   style="fill:#613a4a"
   d="m 399.384,424.92 c 1.196,2.541 2.907,2.714 4.68,0.511 4.373,-5.434 8.901,-11.455 7.834,-18.839 -0.98,-6.783 -7.792,-1.652 -9.458,1.672 -1.203,2.4 -2.187,4.91 -2.936,7.488 -0.834,2.87 -1.431,6.382 -0.12,9.168 z"
   id="path53" />&#10;					<path
   style="fill:#613a4a"
   d="m 434.707,424.698 c 3.655,-0.731 7.334,-2.265 9.898,-5.06 2.282,-2.488 3.345,-5.88 -0.963,-7.024 -1.707,-0.453 -3.521,-0.112 -5.221,0.367 -4.191,1.181 -8.43,2.754 -11.734,5.686 -2.111,1.873 -7.255,5.423 -1.378,6.653 3.025,0.633 6.405,-0.023 9.398,-0.622 z"
   id="path54" />&#10;					<path
   style="fill:#613a4a"
   d="m 421.811,390.761 c 0.782,2.86 2.485,9.553 5.403,11.027 1.438,0.726 2.207,-0.871 2.652,-1.958 2.127,-5.191 3.572,-11.702 0.378,-16.919 -2.707,-4.421 -8.198,-3.908 -9.003,1.532 -0.299,2.023 -0.016,4.176 0.57,6.318 z"
   id="path55" />&#10;					<path
   style="fill:#613a4a"
   d="m 460.85,377.57 c -0.032,-1.379 -0.728,-2.597 -2.532,-3.33 -4.281,-1.738 -8.258,2.994 -10.465,5.994 -1.451,1.974 -7.022,8.496 -3.646,10.93 1.116,0.804 2.661,0.191 3.884,-0.438 4.847,-2.492 12.907,-6.74 12.759,-13.156 z"
   id="path56" />&#10;					<path
   style="fill:#613a4a"
   d="m 443.251,357.756 c 0.342,1.854 3.88,14.907 6.435,7.788 1.339,-3.729 4.468,-9.975 2.527,-13.858 -1.545,-5.224 -7.212,-4.672 -8.783,0.171 -0.605,1.867 -0.552,3.875 -0.179,5.899 z"
   id="path57" />&#10;					<g
   id="g58">&#10;						<path
   style="fill:#613a4a"
   d="m 381.648,438.504 c 17.146,-3.613 31.849,-11.466 43.067,-25.188 8.428,-10.31 15.495,-21.461 20.243,-33.97 0.707,-1.864 1.126,-3.837 1.688,-5.756 0.111,-0.378 0,-0.649 -0.374,-0.696 -0.166,-0.021 -0.453,0.143 -0.527,0.298 -0.332,0.702 -0.661,1.414 -0.896,2.153 -2.255,7.099 -5.79,13.567 -9.611,19.919 -3.307,5.498 -6.75,10.888 -10.868,15.82 -7.86,9.415 -17.162,16.877 -28.716,21.346 -6.064,2.345 -12.211,4.363 -18.618,5.529 -0.332,0.06 -0.66,0.139 -0.988,0.215 -0.33,0.076 -0.695,0.252 -0.656,0.587 0.057,0.481 0.449,0.812 0.951,0.726 1.773,-0.301 3.537,-0.652 5.305,-0.983 z"
   id="path58" />&#10;					</g>&#10;				</g>&#10;			</g><g
     id="g65">&#10;				<path
   style="fill:#613a4a"
   d="m 417.155,366.761 c 3.187,-0.479 5.74,-3.163 5.555,-6.83 -0.139,-2.743 -2.117,-4.309 -4.752,-4.837 -3.951,-0.792 -7.538,0.174 -10.585,2.76 -5.346,4.537 3.369,7.802 6.912,8.742 0.975,0.258 1.949,0.304 2.87,0.165 z"
   id="path60" />&#10;				<path
   style="fill:#613a4a"
   d="m 402.464,370.216 c 0.11,0.75 0.307,1.482 0.605,2.177 1.397,3.262 5.302,5.504 8.705,3.745 2.033,-1.051 3.364,-4.908 2.445,-7.434 -1.221,-3.355 -3.679,-5.667 -6.988,-6.692 -1.05,-0.325 -3.318,0.523 -3.721,1.42 -0.906,2.018 -1.385,4.482 -1.046,6.784 z"
   id="path61" />&#10;				<path
   style="fill:#613a4a"
   d="m 396.961,360.096 c 3.413,-0.729 4.628,-2.339 3.957,-5.243 -0.895,-3.873 -4.625,-6.747 -7.958,-6.131 -2.867,0.53 -5.638,4.068 -4.879,6.616 1.118,3.748 4.09,5.86 8.88,4.758 z"
   id="path62" />&#10;				<path
   style="fill:#613a4a"
   d="m 401.219,353.612 c 0.06,2.351 1.914,3.828 3.822,5.276 0.367,0.278 0.722,0.548 1.201,0.507 4.531,-0.389 9.39,-3.698 8.951,-8.967 -0.34,-4.079 -4.339,-7.036 -8.307,-6.386 -4.504,0.738 -6.747,4.352 -5.667,9.57 z"
   id="path63" />&#10;				<path
   style="fill:#613a4a"
   d="m 397.393,374.432 c 4.763,-0.983 8.008,-5.755 6.955,-10.228 -0.591,-2.512 -4.561,-4.113 -8.25,-3.327 -4.259,0.907 -7.138,4.698 -6.428,8.462 0.56,2.97 4.718,5.713 7.723,5.093 z"
   id="path64" />&#10;				<path
   style="fill:#eaac60"
   d="m 405.901,363.572 c 3.006,-0.654 4.488,-2.491 3.984,-4.94 -0.786,-3.82 -3.803,-5.872 -7.503,-5.103 -2.529,0.526 -3.824,3.027 -3.134,6.051 0.703,3.076 3.407,4.699 6.653,3.992 z"
   id="path65" />&#10;			</g><g
     id="g71"
     transform="matrix(1.2836757,0,0,1.1675627,-121.42754,15.870645)">&#10;				<path
   style="fill:#613a4a"
   d="m 425.034,149.509 c 2.113,-1.152 3.217,-3.688 2.148,-6.214 -0.799,-1.889 -2.589,-2.481 -4.572,-2.176 -2.974,0.457 -5.243,2.052 -6.718,4.646 -2.588,4.551 4.361,4.61 7.087,4.362 0.749,-0.068 1.444,-0.285 2.055,-0.618 z"
   id="path66" />&#10;				<path
   style="fill:#613a4a"
   d="m 415.613,155.693 c 0.269,0.498 0.595,0.961 0.982,1.372 1.815,1.93 5.129,2.503 7.065,0.398 1.157,-1.258 1.103,-4.304 -0.188,-5.841 -1.715,-2.04 -4.032,-3.033 -6.615,-2.904 -0.819,0.041 -2.194,1.217 -2.246,1.949 -0.12,1.648 0.175,3.498 1.002,5.026 z"
   id="path67" />&#10;				<path
   style="fill:#613a4a"
   d="m 409.162,150.004 c 2.208,-1.385 2.648,-2.825 1.433,-4.691 -1.62,-2.488 -4.972,-3.548 -7.152,-2.263 -1.875,1.105 -2.914,4.297 -1.728,5.89 1.744,2.343 4.37,3.064 7.447,1.064 z"
   id="path68" />&#10;				<path
   style="fill:#613a4a"
   d="m 410.489,144.366 c 0.644,1.633 2.323,2.195 4.032,2.722 0.328,0.101 0.647,0.2 0.972,0.048 3.079,-1.433 5.64,-4.998 3.983,-8.582 -1.282,-2.774 -4.845,-3.825 -7.462,-2.352 -2.971,1.671 -3.619,4.78 -1.525,8.164 z"
   id="path69" />&#10;				<path
   style="fill:#613a4a"
   d="m 413.135,159.949 c 3.09,-1.909 4.144,-6.087 2.26,-8.955 -1.058,-1.611 -4.253,-1.717 -6.639,-0.221 -2.755,1.727 -3.804,5.123 -2.342,7.582 1.154,1.94 4.773,2.799 6.721,1.594 z"
   id="path70" />&#10;				<path
   style="fill:#eaac60"
   d="m 416.323,150.154 c 1.941,-1.229 2.51,-2.896 1.53,-4.485 -1.529,-2.478 -4.171,-3.145 -6.57,-1.658 -1.639,1.017 -1.908,3.102 -0.649,5.047 1.281,1.976 3.593,2.422 5.689,1.096 z"
   id="path71" />&#10;			</g><g
     id="g77"
     transform="translate(-46.588969,112.28756)">&#10;				<path
   style="fill:#64a399"
   d="m 473.185,197.38 c 1.22,-2.074 0.864,-4.817 -1.351,-6.434 -1.656,-1.209 -3.496,-0.798 -5.041,0.483 -2.317,1.92 -3.443,4.455 -3.375,7.438 0.119,5.234 6.11,1.713 8.321,0.1 0.609,-0.444 1.093,-0.988 1.446,-1.587 z"
   id="path72" />&#10;				<path
   style="fill:#64a399"
   d="m 468.282,207.526 c 0.487,0.289 1.004,0.519 1.547,0.673 2.549,0.723 5.686,-0.489 6.265,-3.289 0.346,-1.674 -1.266,-4.26 -3.163,-4.914 -2.52,-0.869 -5.017,-0.53 -7.168,0.908 -0.682,0.456 -1.257,2.171 -0.926,2.826 0.746,1.474 1.95,2.91 3.445,3.796 z"
   id="path73" />&#10;				<path
   style="fill:#64a399"
   d="m 460.731,206.188 c 1.423,-2.797 0.987,-4.557 -1.422,-5.733 -3.212,-1.567 -7.331,-0.589 -8.788,2.088 -1.253,2.302 -0.351,6.242 1.859,7.154 3.251,1.342 6.409,0.461 8.351,-3.509 z"
   id="path74" />&#10;				<path
   style="fill:#64a399"
   d="m 458.064,200.442 c 1.392,1.07 3.121,0.689 4.858,0.263 0.334,-0.082 0.658,-0.161 0.859,-0.458 1.905,-2.811 2.269,-7.186 -0.994,-9.409 -2.526,-1.721 -6.122,-0.791 -7.61,1.817 -1.689,2.96 -0.648,5.96 2.887,7.787 z"
   id="path75" />&#10;				<path
   style="fill:#64a399"
   d="m 468.343,212.45 c 1.669,-3.226 0.426,-7.351 -2.664,-8.844 -1.735,-0.838 -4.531,0.713 -5.809,3.222 -1.476,2.897 -0.631,6.35 1.887,7.708 1.987,1.072 5.534,-0.051 6.586,-2.086 z"
   id="path76" />&#10;				<path
   style="fill:#ffffff"
   d="m 466.044,202.409 c 1.034,-2.052 0.665,-3.775 -0.992,-4.634 -2.586,-1.34 -5.195,-0.554 -6.488,1.954 -0.884,1.715 -0.042,3.641 2.037,4.663 2.114,1.038 4.326,0.232 5.443,-1.983 z"
   id="path77" />&#10;			</g><path
     style="fill:#d8c02f;fill-opacity:1"
     d="m 316.44499,167.52251 c 1.22,-2.074 0.864,-4.817 -1.351,-6.434 -1.656,-1.209 -3.496,-0.798 -5.041,0.483 -2.317,1.92 -3.443,4.455 -3.375,7.438 0.119,5.234 6.11,1.713 8.321,0.1 0.609,-0.444 1.093,-0.988 1.446,-1.587 z"
     id="path72-6" /><path
     style="fill:#d8c02f;fill-opacity:1"
     d="m 311.54199,177.66851 c 0.487,0.289 1.004,0.519 1.547,0.673 2.549,0.723 5.686,-0.489 6.265,-3.289 0.346,-1.674 -1.266,-4.26 -3.163,-4.914 -2.52,-0.869 -5.017,-0.53 -7.168,0.908 -0.682,0.456 -1.257,2.171 -0.926,2.826 0.746,1.474 1.95,2.91 3.445,3.796 z"
     id="path73-7" /><path
     style="fill:#d8c02f;fill-opacity:1"
     d="m 303.99099,176.33051 c 1.423,-2.797 0.987,-4.557 -1.422,-5.733 -3.212,-1.567 -7.331,-0.589 -8.788,2.088 -1.253,2.302 -0.351,6.242 1.859,7.154 3.251,1.342 6.409,0.461 8.351,-3.509 z"
     id="path74-5" /><path
     style="fill:#d8c02f;fill-opacity:1"
     d="m 301.32399,170.58451 c 1.392,1.07 3.121,0.689 4.858,0.263 0.334,-0.082 0.658,-0.161 0.859,-0.458 1.905,-2.811 2.269,-7.186 -0.994,-9.409 -2.526,-1.721 -6.122,-0.791 -7.61,1.817 -1.689,2.96 -0.648,5.96 2.887,7.787 z"
     id="path75-3" /><path
     style="fill:#d8c02f;fill-opacity:1"
     d="m 311.60299,182.59251 c 1.669,-3.226 0.426,-7.351 -2.664,-8.844 -1.735,-0.838 -4.531,0.713 -5.809,3.222 -1.476,2.897 -0.631,6.35 1.887,7.708 1.987,1.072 5.534,-0.051 6.586,-2.086 z"
     id="path76-5" /><path
     style="fill:#ffffff"
     d="m 309.30399,172.55151 c 1.034,-2.052 0.665,-3.775 -0.992,-4.634 -2.586,-1.34 -5.195,-0.554 -6.488,1.954 -0.884,1.715 -0.042,3.641 2.037,4.663 2.114,1.038 4.326,0.232 5.443,-1.983 z"
     id="path77-6" /><g
     id="g81">&#10;				<path
   style="fill:#613a4a"
   d="m 264.242,387.188 c 3.655,-1.136 7.101,0.645 8.134,4.202 0.93,3.202 -0.938,6.305 -4.466,7.418 -3.356,1.059 -6.637,-0.65 -7.619,-3.969 -1.017,-3.438 0.625,-6.618 3.951,-7.651 z"
   id="path78" />&#10;				<path
   style="fill:#dc5943"
   d="m 257.908,392.669 c -6.359,1.671 -12.965,0.184 -18.67,-3.362 -4.238,-2.634 -12.755,-8.888 -9.275,-14.717 1.628,-2.727 5.149,-4.444 8.298,-3.93 10.005,1.634 16.22,8.683 22.549,15.592 0.22,0.241 0.294,0.612 0.505,0.869 1.272,1.555 2.415,3.226 0.024,4.321 -1.132,0.517 -2.278,0.924 -3.431,1.227 z"
   id="path79" />&#10;				<path
   style="fill:#dc5943"
   d="m 265.378,389.186 c -0.124,-0.02 -0.24,-0.064 -0.347,-0.134 -1.876,-1.223 -1.84,-4.769 -2.137,-6.724 -1.299,-8.549 -1.892,-17.518 3.621,-24.804 1.126,-1.488 2.538,-2.843 4.05,-3.938 3.165,-2.292 6.753,-1.153 8.385,2.497 4.316,9.654 -1.632,19.772 -7.305,27.35 -0.99,1.324 -4.456,6.049 -6.267,5.753 z"
   id="path80" />&#10;				<path
   style="fill:#eaac60"
   d="m 264.067,373.443 c 0.407,1.368 0.718,2.762 0.943,4.154 0.283,1.758 1.679,13.268 -2.005,12.5 -3.79,-0.79 -7.186,-5.173 -9.471,-7.998 -2.936,-3.63 -5.301,-7.789 -6.321,-12.378 -0.731,-3.287 -0.306,-6.431 2.804,-8.208 2.619,-1.496 5.669,-0.891 8.194,1.636 2.827,2.83 4.717,6.462 5.856,10.294 z"
   id="path81" />&#10;			</g><g
     id="g85">&#10;				<path
   style="fill:#613a4a"
   d="m 363.626,414.927 c 3.64,1.182 5.427,4.625 4.218,8.126 -1.089,3.152 -4.405,4.607 -7.929,3.48 -3.352,-1.072 -5.044,-4.361 -3.931,-7.639 1.154,-3.394 4.329,-5.043 7.642,-3.967 z"
   id="path82" />&#10;				<path
   style="fill:#498196"
   d="m 355.29,415.748 c -6.158,-2.305 -10.694,-7.332 -13.307,-13.521 -1.941,-4.596 -5.287,-14.62 0.919,-17.372 2.904,-1.288 6.77,-0.658 9.045,1.579 7.228,7.108 8.235,16.452 9.416,25.747 0.041,0.324 -0.113,0.669 -0.089,1.001 0.142,2.004 0.11,4.028 -2.474,3.542 -1.223,-0.229 -2.393,-0.558 -3.51,-0.976 z"
   id="path83" />&#10;				<path
   style="fill:#498196"
   d="m 363.4,417.214 c -0.089,-0.088 -0.159,-0.19 -0.206,-0.309 -0.826,-2.082 1.25,-4.957 2.135,-6.724 3.873,-7.732 8.564,-15.398 17.272,-18.166 1.778,-0.565 3.713,-0.857 5.581,-0.879 3.907,-0.045 6.18,2.956 5.406,6.878 -2.047,10.375 -12.744,15.205 -21.75,18.119 -1.572,0.509 -7.129,2.368 -8.438,1.081 z"
   id="path84" />&#10;				<path
   style="fill:#ffffff"
   d="m 371.416,403.601 c -0.457,1.352 -1.007,2.67 -1.627,3.936 -0.783,1.6 -6.286,11.804 -8.851,9.051 -2.639,-2.833 -2.883,-8.371 -3.119,-11.998 -0.303,-4.659 0.166,-9.42 1.981,-13.757 1.3,-3.106 3.461,-5.429 7.027,-5.085 3.003,0.29 5.144,2.545 5.747,6.065 0.676,3.944 0.123,8.001 -1.158,11.788 z"
   id="path85" />&#10;			</g><g
     id="g91">&#10;				<path
   style="fill:#eaac60"
   d="m 385.082,453.952 c -3.337,4.875 -8.763,10.819 -13.624,9.737 -6.299,-1.402 -8.617,-12.356 -6.25,-17.441 0.669,-1.436 2.546,-3.035 4.04,-3.229 4.863,-0.631 9.804,-0.806 14.717,-0.842 4.12,-0.03 4.939,5.156 3.437,7.984 -0.552,1.038 -1.347,2.369 -2.32,3.791 z"
   id="path86" />&#10;				<path
   style="fill:#eaac60"
   d="m 389.847,438.177 c -0.209,-4.216 -0.447,-7.975 -0.572,-11.738 -0.332,-9.996 3.882,-13.312 13.479,-10.664 0.108,0.03 0.223,0.034 0.331,0.064 8.253,2.366 9.199,5.087 4.186,12.253 -2.292,3.277 -4.526,6.617 -7.107,9.655 -0.912,1.074 -2.795,1.877 -4.21,1.841 -2.151,-0.055 -4.28,-0.95 -6.107,-1.411 z"
   id="path87" />&#10;				<path
   style="fill:#eaac60"
   d="m 400.129,466.95 c -4.568,4.133 -14.963,3.838 -18.205,-0.103 -0.86,-1.045 -1.193,-3.339 -0.654,-4.573 1.955,-4.474 4.295,-8.79 6.673,-13.064 1.002,-1.801 5.264,-1.889 6.375,0.171 2.51,4.654 4.592,9.558 6.53,14.485 0.399,1.016 -0.585,2.577 -0.719,3.084 z"
   id="path88" />&#10;				<path
   style="fill:#eaac60"
   d="m 396.011,449.159 c -2.49,-2.703 -1.501,-8.82 1.638,-10.01 3.745,-1.42 6.998,-3.815 10.86,-4.957 2.043,-0.604 4.078,-1.133 6.186,-1.339 3.653,-0.357 5.862,1.376 6.636,5.006 0.693,3.252 -0.291,6.193 -1.541,9.093 -1.336,3.099 -3.401,5.738 -5.479,8.347 -1.857,2.332 -4.355,2.435 -7.017,1.701 -2.759,-0.76 -5.089,-2.319 -7.12,-4.219 -1.469,-1.375 -2.833,-2.852 -4.163,-3.622 z"
   id="path89" />&#10;				<path
   style="fill:#eaac60"
   d="m 387.466,441.272 c -2.037,2.372 -4.756,2.775 -7.984,1.675 -3.274,-1.116 -6.695,-1.848 -9.576,-3.89 -4.515,-3.199 -5.588,-8.565 -2.554,-13.207 1.852,-2.835 4.144,-5.22 7.295,-6.763 3.317,-1.624 7.156,-1.123 9.394,2.705 2.629,4.497 4.352,9.274 6.233,14.034 0.752,1.905 0.324,2.676 -2.808,5.446 z"
   id="path90" />&#10;				<path
   style="fill:#ffffff"
   d="m 385.476,448.503 c -3.117,-3.533 -3.279,-7.143 -0.437,-9.708 4.434,-4.001 10.018,-3.797 13.886,0.508 2.644,2.942 1.974,7.202 -1.62,10.308 -3.656,3.156 -8.464,2.706 -11.829,-1.108 z"
   id="path91" />&#10;			</g><g
     id="g97">&#10;				<path
   style="fill:#eaac60"
   d="m 224.584,293.576 c -1.194,2 -2.617,3.87 -4.132,5.625 -1.318,1.526 -3,3.138 -5.007,2.948 -4.772,-0.453 -7.412,-8.541 -6.132,-12.421 0.371,-1.124 1.623,-2.473 2.715,-2.747 3.551,-0.892 7.201,-1.452 10.841,-1.907 2.347,-0.294 4.401,2.839 3.449,5.1 -0.495,1.174 -1.08,2.307 -1.734,3.402 z"
   id="path92" />&#10;				<path
   style="fill:#eaac60"
   d="m 227.325,282.683 c -0.156,-3.148 -0.334,-5.955 -0.427,-8.765 -0.248,-7.464 2.898,-9.94 10.065,-7.963 0.081,0.022 0.167,0.025 0.247,0.048 6.162,1.767 6.869,3.799 3.126,9.149 -1.712,2.447 -3.379,4.941 -5.307,7.21 -0.681,0.802 -2.087,1.402 -3.143,1.374 -1.607,-0.04 -3.197,-0.709 -4.561,-1.053 z"
   id="path93" />&#10;				<path
   style="fill:#eaac60"
   d="m 235.002,304.168 c -3.411,3.086 -11.173,2.866 -13.594,-0.077 -0.642,-0.78 -0.891,-2.493 -0.488,-3.415 1.46,-3.341 3.208,-6.564 4.983,-9.755 0.749,-1.345 3.931,-1.41 4.76,0.128 1.874,3.475 3.429,7.137 4.876,10.817 0.298,0.759 -0.437,1.924 -0.537,2.302 z"
   id="path94" />&#10;				<path
   style="fill:#eaac60"
   d="m 231.928,290.884 c -1.86,-2.018 -1.121,-6.587 1.223,-7.475 2.797,-1.06 5.225,-2.849 8.109,-3.702 1.525,-0.451 3.045,-0.846 4.619,-1 2.728,-0.266 4.377,1.028 4.955,3.738 0.518,2.429 -0.217,4.625 -1.151,6.79 -0.998,2.314 -2.54,4.285 -4.091,6.233 -1.387,1.741 -3.252,1.818 -5.24,1.27 -2.06,-0.568 -3.8,-1.732 -5.316,-3.151 -1.097,-1.025 -2.115,-2.128 -3.108,-2.703 z"
   id="path95" />&#10;				<path
   style="fill:#eaac60"
   d="m 225.547,284.994 c -1.521,1.771 -3.552,2.072 -5.962,1.251 -2.445,-0.833 -4.999,-1.38 -7.151,-2.905 -3.372,-2.389 -4.172,-6.396 -1.907,-9.862 1.383,-2.117 3.094,-3.898 5.447,-5.05 2.477,-1.213 5.344,-0.838 7.015,2.02 1.963,3.358 3.25,6.925 4.654,10.479 0.562,1.423 0.243,1.999 -2.096,4.067 z"
   id="path96" />&#10;				<path
   style="fill:#ffffff"
   d="m 224.06,290.393 c -2.327,-2.638 -2.449,-5.334 -0.326,-7.25 3.311,-2.988 7.481,-2.836 10.369,0.379 1.974,2.197 1.474,5.378 -1.21,7.697 -2.729,2.359 -6.32,2.023 -8.833,-0.826 z"
   id="path97" />&#10;			</g><g
     id="g103"
     transform="translate(-30.239686,110.78513)">&#10;				<path
   style="fill:#eaac60"
   d="m 447.503,161.758 c -1.95,1.274 -4.048,2.332 -6.179,3.245 -1.853,0.794 -4.072,1.507 -5.793,0.456 -4.091,-2.498 -2.92,-10.925 -0.069,-13.852 0.826,-0.848 2.543,-1.512 3.644,-1.28 3.583,0.754 7.109,1.85 10.581,3.036 2.239,0.765 2.712,4.48 0.865,6.096 -0.959,0.839 -1.982,1.601 -3.049,2.299 z"
   id="path98" />&#10;				<path
   style="fill:#eaac60"
   d="m 454.739,153.167 c 1.239,-2.898 2.31,-5.5 3.457,-8.066 3.048,-6.818 6.961,-7.665 12.537,-2.747 0.063,0.055 0.139,0.095 0.201,0.151 4.765,4.288 4.51,6.424 -1.199,9.594 -2.611,1.449 -5.203,2.961 -7.93,4.155 -0.964,0.422 -2.49,0.346 -3.428,-0.142 -1.426,-0.74 -2.562,-2.038 -3.638,-2.945 z"
   id="path99" />&#10;				<path
   style="fill:#eaac60"
   d="m 452.226,175.844 c -4.418,1.279 -11.299,-2.32 -12.186,-6.026 -0.235,-0.983 0.292,-2.632 1.057,-3.284 2.776,-2.363 5.759,-4.494 8.754,-6.585 1.262,-0.881 4.151,0.455 4.223,2.201 0.162,3.945 -0.046,7.918 -0.357,11.86 -0.064,0.812 -1.236,1.538 -1.491,1.834 z"
   id="path100" />&#10;				<path
   style="fill:#eaac60"
   d="m 455.283,162.555 c -0.787,-2.629 1.879,-6.411 4.375,-6.183 2.978,0.273 5.945,-0.271 8.911,0.226 1.569,0.263 3.108,0.574 4.59,1.126 2.569,0.956 3.484,2.842 2.816,5.532 -0.599,2.41 -2.222,4.062 -4.01,5.599 -1.911,1.643 -4.16,2.739 -6.409,3.81 -2.009,0.958 -3.72,0.209 -5.267,-1.154 -1.603,-1.413 -2.657,-3.222 -3.398,-5.161 -0.535,-1.405 -0.967,-2.842 -1.608,-3.795 z"
   id="path101" />&#10;				<path
   style="fill:#eaac60"
   d="m 452.129,154.465 c -2.143,0.926 -4.1,0.306 -5.907,-1.488 -1.833,-1.82 -3.889,-3.431 -5.155,-5.744 -1.984,-3.625 -0.948,-7.577 2.607,-9.701 2.171,-1.297 4.489,-2.148 7.109,-2.152 2.758,-0.005 5.171,1.588 5.42,4.889 0.293,3.879 -0.113,7.649 -0.408,11.459 -0.118,1.525 -0.658,1.903 -3.666,2.737 z"
   id="path102" />&#10;				<path
   style="fill:#ffffff"
   d="m 448.426,158.667 c -0.936,-3.391 0.136,-5.868 2.883,-6.66 4.285,-1.235 7.967,0.729 9.155,4.884 0.812,2.84 -1.031,5.48 -4.46,6.389 -3.487,0.924 -6.567,-0.951 -7.578,-4.613 z"
   id="path103" />&#10;			</g><g
     id="g109">&#10;				<path
   style="fill:#498196"
   d="m 256.342,451.354 c 0.248,0.801 0.479,1.598 0.693,2.381 1.123,4.127 1.777,8.52 2.099,12.784 1.204,15.943 -21.796,9.701 -26.837,0.751 -1.063,-1.888 -1.344,-5.247 -0.368,-7.062 3.173,-5.905 6.917,-11.534 10.791,-17.021 2.498,-3.538 9.269,-2.453 11.154,1.625 0.949,2.053 1.776,4.312 2.468,6.542 z"
   id="path104" />&#10;				<path
   style="fill:#498196"
   d="m 243.085,432.84 c -4.851,-3.127 -9.217,-5.858 -13.497,-8.717 -11.369,-7.595 -11.696,-14.919 -1.107,-23.471 0.119,-0.096 0.215,-0.221 0.335,-0.316 9.203,-7.283 12.981,-6.166 16.948,5.112 1.814,5.157 3.746,10.3 5.064,15.589 0.466,1.869 -0.141,4.601 -1.309,6.143 -1.776,2.345 -4.467,3.998 -6.434,5.66 z"
   id="path105" />&#10;				<path
   style="fill:#498196"
   d="m 283.242,444.343 c 0.952,8.367 -7.658,19.681 -14.621,20.142 -1.846,0.122 -4.66,-1.335 -5.602,-2.917 -3.413,-5.736 -6.343,-11.775 -9.196,-17.823 -1.203,-2.549 2.096,-7.353 5.269,-6.946 7.17,0.92 14.277,2.514 21.295,4.287 1.449,0.367 2.399,2.704 2.855,3.257 z"
   id="path106" />&#10;				<path
   style="fill:#498196"
   d="m 260.197,434.742 c -4.987,0.613 -10.995,-5.361 -9.816,-9.796 1.407,-5.292 1.337,-10.814 3.145,-16.014 0.956,-2.751 1.99,-5.433 3.442,-7.939 2.515,-4.343 6.2,-5.416 10.849,-3.383 4.166,1.821 6.648,5.258 8.874,8.958 2.378,3.953 3.664,8.351 4.908,12.737 1.111,3.921 -0.765,6.778 -3.702,9.151 -3.043,2.459 -6.631,3.805 -10.36,4.548 -2.697,0.536 -5.425,0.874 -7.34,1.738 z"
   id="path107" />&#10;				<path
   style="fill:#498196"
   d="m 244.626,437.951 c 1.013,4.153 -0.707,7.495 -4.501,10.204 -3.849,2.749 -7.388,5.965 -11.951,7.539 -7.152,2.467 -13.967,-0.617 -16.708,-7.686 -1.674,-4.317 -2.497,-8.763 -1.701,-13.493 0.839,-4.979 4.455,-8.845 10.49,-8.281 7.091,0.663 13.77,2.555 20.557,4.258 2.717,0.683 3.233,1.772 3.814,7.459 z"
   id="path108" />&#10;				<path
   style="fill:#ffffff"
   d="m 249.107,445.554 c -6.409,0.647 -10.549,-2.049 -11.134,-7.25 -0.913,-8.114 3.764,-14.155 11.628,-15.022 5.376,-0.593 9.575,3.545 10.161,10.013 0.596,6.577 -3.735,11.561 -10.655,12.259 z"
   id="path109" />&#10;			</g><g
     id="g113">&#10;				<path
   style="fill:#dc5943"
   d="m 332.06,400.615 c 3.235,-0.087 7.059,0.494 5.234,3.831 -3.81,6.965 -7.024,14.708 -12.325,20.67 -5.446,6.125 -11.386,11.593 -17.462,17.076 -0.698,0.63 -1.415,1.272 -2.286,1.628 -5.263,2.15 -5.414,-6.582 -4.994,-9.438 0.654,-4.437 2.364,-8.792 4.322,-12.806 5.135,-10.527 15.147,-20.628 27.511,-20.961 z"
   id="path110" />&#10;				<path
   style="fill:#dc5943"
   d="m 340.708,446.098 c 5.233,0.599 10.521,0.91 15.684,1.884 4.547,0.858 5.623,4.584 1.768,7.22 -4.867,3.329 -10.398,5.894 -15.948,7.975 -10.925,4.096 -21.212,1.934 -30.593,-4.696 -2.755,-1.949 -3.113,-4.599 0.119,-5.853 8.428,-3.273 19.724,-7.588 28.97,-6.53 z"
   id="path111" />&#10;				<path
   style="fill:#eaac60"
   d="m 309.53,454.661 c -3.949,0.309 -6.12,-3.398 -7.51,-6.523 -3.653,-8.211 10.752,-15.187 16.403,-18.267 5.368,-2.926 11.069,-5.242 16.959,-6.88 3.922,-1.091 12.819,-4.514 16.159,-0.835 1.464,1.613 0.722,3.169 0.045,4.802 -1.45,3.495 -3.982,6.183 -6.382,9.014 -8.392,9.9 -19.18,15.594 -31.677,18.355 -1.076,0.237 -2.212,0.194 -3.997,0.334 z"
   id="path112" />&#10;				<path
   style="fill:#613a4a"
   d="m 310.238,455.378 c -4.438,4.214 -9.324,5.56 -12.915,3.561 -3.101,-1.727 -4.78,-5.686 -4.059,-9.572 0.59,-3.175 5.486,-6.867 8.825,-7.217 2.8,4.545 5.399,8.764 8.149,13.228 z"
   id="path113" />&#10;			</g><g
     id="g119">&#10;				<path
   style="fill:#ffffff"
   d="m 280.611,451.007 c -1.777,2.689 -5.285,3.875 -8.534,2.164 -2.43,-1.28 -3.018,-3.735 -2.387,-6.347 0.945,-3.917 3.331,-6.764 6.959,-8.44 6.366,-2.939 5.659,6.341 5.02,9.949 -0.176,0.995 -0.545,1.897 -1.058,2.674 z"
   id="path114" />&#10;				<path
   style="fill:#ffffff"
   d="m 289.928,439.135 c 0.633,0.416 1.215,0.903 1.72,1.465 2.371,2.64 2.76,7.126 -0.268,9.472 -1.81,1.402 -5.869,0.986 -7.773,-0.911 -2.529,-2.52 -3.592,-5.723 -3.128,-9.156 0.147,-1.089 1.871,-2.79 2.854,-2.777 2.213,0.028 4.65,0.631 6.595,1.907 z"
   id="path115" />&#10;				<path
   style="fill:#ffffff"
   d="m 283.065,429.884 c -2.098,2.79 -4.07,3.214 -6.422,1.382 -3.136,-2.442 -4.173,-7.035 -2.212,-9.799 1.687,-2.378 6.063,-3.402 8.055,-1.641 2.931,2.592 3.595,6.177 0.579,10.058 z"
   id="path116" />&#10;				<path
   style="fill:#ffffff"
   d="m 275.392,431.017 c 2.107,1.044 2.667,3.347 3.177,5.688 0.098,0.45 0.193,0.886 -0.046,1.303 -2.26,3.946 -7.307,6.961 -11.902,4.345 -3.557,-2.025 -4.556,-6.898 -2.296,-10.224 2.566,-3.775 6.788,-4.288 11.067,-1.112 z"
   id="path117" />&#10;				<path
   style="fill:#ffffff"
   d="m 295.887,436.31 c -2.897,3.907 -8.591,4.841 -12.206,2.003 -2.03,-1.594 -1.811,-5.869 0.455,-8.884 2.616,-3.481 7.266,-4.497 10.382,-2.269 2.459,1.759 3.196,6.686 1.369,9.15 z"
   id="path118" />&#10;				<path
   style="fill:#eaac60"
   d="m 282.455,439.457 c -1.859,2.452 -4.149,3.022 -6.158,1.535 -3.134,-2.321 -3.725,-5.922 -1.47,-8.954 1.542,-2.073 4.355,-2.195 6.808,-0.295 2.494,1.93 2.827,5.067 0.82,7.714 z"
   id="path119" />&#10;			</g><g
     id="g125">&#10;				<path
   style="fill:#ffffff"
   d="m 177.614,328.362 c -2.406,0.151 -4.696,-1.409 -5.138,-4.121 -0.331,-2.028 0.87,-3.485 2.714,-4.286 2.765,-1.201 5.541,-1.06 8.176,0.351 4.624,2.476 -1.235,6.237 -3.678,7.482 -0.673,0.343 -1.378,0.53 -2.074,0.574 z"
   id="path120" />&#10;				<path
   style="fill:#ffffff"
   d="m 188.902,328.574 c 0.037,0.566 0.009,1.132 -0.099,1.687 -0.508,2.605 -3.011,4.86 -5.776,4.109 -1.653,-0.449 -3.234,-3.06 -2.959,-5.052 0.365,-2.646 1.798,-4.724 4.057,-5.995 0.716,-0.403 2.509,-0.14 2.945,0.453 0.979,1.335 1.718,3.061 1.832,4.798 z"
   id="path121" />&#10;				<path
   style="fill:#ffffff"
   d="m 191.333,320.306 c -2.611,0.005 -3.753,-0.981 -3.72,-3.211 0.045,-2.973 2.32,-5.663 4.854,-5.737 2.18,-0.064 4.764,2.087 4.61,4.07 -0.226,2.918 -2.067,4.93 -5.744,4.878 z"
   id="path122" />&#10;				<path
   style="fill:#ffffff"
   d="m 187.198,316.235 c 0.326,1.729 -0.797,3.101 -1.965,4.461 -0.224,0.261 -0.442,0.515 -0.799,0.56 -3.375,0.429 -7.45,-1.226 -7.959,-5.149 -0.394,-3.036 2.065,-5.829 5.07,-5.979 3.411,-0.169 5.621,2.121 5.653,6.107 z"
   id="path123" />&#10;				<path
   style="fill:#ffffff"
   d="m 193.275,330.859 c -3.639,0.031 -6.763,-2.948 -6.697,-6.385 0.037,-1.93 2.688,-3.726 5.51,-3.733 3.258,-0.007 5.96,2.311 6.034,5.176 0.058,2.261 -2.552,4.922 -4.847,4.942 z"
   id="path124" />&#10;				<path
   style="fill:#eaac60"
   d="m 185.342,324.257 c -2.302,-0.005 -3.675,-1.115 -3.692,-2.985 -0.027,-2.918 1.857,-4.894 4.684,-4.914 1.933,-0.014 3.273,1.611 3.245,3.932 -0.029,2.36 -1.751,3.972 -4.237,3.967 z"
   id="path125" />&#10;			</g><g
     id="g164">&#10;			<path
   style="fill:#ffffff"
   d="m 162.739,287.616 c 1.808,-0.166 3.736,0.777 3.815,2.825 0.195,5.053 -8.177,4.336 -6.891,-0.412 0.387,-1.429 1.652,-2.283 3.076,-2.413 z"
   id="path126" />&#10;			<path
   style="fill:#ffffff"
   d="m 100.896,258.054 c 1.808,-0.166 3.736,0.777 3.815,2.825 0.195,5.053 -8.177,4.336 -6.891,-0.412 0.387,-1.428 1.653,-2.282 3.076,-2.413 z"
   id="path127" />&#10;			<path
   style="fill:#ffffff"
   d="m 252.528,324.874 c 1.808,-0.166 3.736,0.777 3.815,2.825 0.196,5.053 -8.177,4.336 -6.891,-0.412 0.387,-1.429 1.653,-2.282 3.076,-2.413 z"
   id="path128" />&#10;			<path
   style="fill:#ffffff"
   d="m 415.942,228.358 c 1.808,-0.166 3.736,0.777 3.815,2.825 0.195,5.053 -8.177,4.336 -6.891,-0.412 0.387,-1.429 1.653,-2.283 3.076,-2.413 z"
   id="path129" />&#10;			<path
   style="fill:#ffffff"
   d="m 409.514,278.667 c 1.808,-0.166 3.736,0.777 3.815,2.825 0.195,5.053 -8.177,4.336 -6.891,-0.412 0.387,-1.429 1.653,-2.282 3.076,-2.413 z"
   id="path130" />&#10;			<path
   style="fill:#ffffff"
   d="m 393.486,330.118 c 1.808,-0.166 3.736,0.777 3.815,2.825 0.195,5.053 -8.177,4.336 -6.891,-0.412 0.387,-1.429 1.653,-2.283 3.076,-2.413 z"
   id="path131" />&#10;			<path
   style="fill:#ffffff"
   d="m 343.124,427.709 c 1.808,-0.166 3.736,0.777 3.815,2.825 0.195,5.053 -8.177,4.336 -6.891,-0.412 0.387,-1.429 1.652,-2.283 3.076,-2.413 z"
   id="path132" />&#10;			<path
   style="fill:#ffffff"
   d="m 387.99,405.21 c 1.808,-0.166 3.736,0.777 3.815,2.825 0.195,5.053 -8.177,4.336 -6.891,-0.412 0.387,-1.428 1.652,-2.282 3.076,-2.413 z"
   id="path133" />&#10;			<path
   style="fill:#ffffff"
   d="m 236.25,231.422 c 1.808,-0.166 3.736,0.777 3.815,2.825 0.196,5.053 -8.177,4.336 -6.891,-0.412 0.387,-1.429 1.653,-2.282 3.076,-2.413 z"
   id="path134" />&#10;			<path
   style="fill:#ffffff"
   d="m 169.299,294.926 c 0.007,0.867 -0.736,1.557 -1.695,1.547 -0.94,-0.011 -1.593,-0.627 -1.593,-1.504 0.001,-1.693 2.409,-2.313 3.131,-0.723 0.105,0.232 0.155,0.462 0.157,0.68 z"
   id="path135" />&#10;			<path
   style="fill:#ffffff"
   d="m 152.075,226.242 c 0.007,0.867 -0.736,1.557 -1.695,1.547 -0.94,-0.011 -1.593,-0.627 -1.593,-1.504 0.001,-1.693 2.409,-2.313 3.131,-0.723 0.105,0.232 0.155,0.462 0.157,0.68 z"
   id="path136" />&#10;			<path
   style="fill:#ffffff"
   d="m 302.269,375.445 c 0.007,0.867 -0.736,1.557 -1.695,1.547 -0.94,-0.011 -1.593,-0.627 -1.593,-1.504 0,-1.693 2.409,-2.313 3.131,-0.723 0.105,0.233 0.155,0.462 0.157,0.68 z"
   id="path137" />&#10;			<path
   style="fill:#ffffff"
   d="m 398.77,402.474 c 0.007,0.867 -0.736,1.557 -1.695,1.547 -0.94,-0.011 -1.593,-0.627 -1.593,-1.504 10e-4,-1.693 2.409,-2.313 3.131,-0.723 0.106,0.232 0.155,0.462 0.157,0.68 z"
   id="path138" />&#10;			<path
   style="fill:#ffffff"
   d="m 92.295,259.652 c 0.007,0.867 -0.736,1.557 -1.695,1.547 -0.94,-0.011 -1.593,-0.627 -1.593,-1.504 10e-4,-1.693 2.409,-2.313 3.131,-0.723 0.106,0.232 0.155,0.461 0.157,0.68 z"
   id="path139" />&#10;			<path
   style="fill:#ffffff"
   d="m 187.259,246.938 c 0.007,0.867 -0.736,1.557 -1.695,1.547 -0.94,-0.011 -1.593,-0.627 -1.593,-1.504 0.001,-1.693 2.409,-2.313 3.131,-0.723 0.106,0.232 0.155,0.461 0.157,0.68 z"
   id="path140" />&#10;			<path
   style="fill:#ffffff"
   d="m 246.387,332.659 c 0.007,0.867 -0.736,1.558 -1.695,1.547 -0.94,-0.011 -1.593,-0.627 -1.593,-1.504 0.001,-1.693 2.409,-2.313 3.131,-0.723 0.105,0.232 0.155,0.462 0.157,0.68 z"
   id="path141" />&#10;			<path
   style="fill:#ffffff"
   d="m 234.438,224.375 c 0.007,0.867 -0.736,1.557 -1.695,1.547 -0.94,-0.011 -1.593,-0.627 -1.593,-1.504 0,-1.693 2.409,-2.313 3.131,-0.723 0.106,0.232 0.156,0.461 0.157,0.68 z"
   id="path142" />&#10;			<path
   style="fill:#ffffff"
   d="m 408.259,237.656 c 0.007,0.867 -0.736,1.557 -1.695,1.547 -0.94,-0.011 -1.593,-0.627 -1.593,-1.504 10e-4,-1.693 2.409,-2.313 3.131,-0.723 0.106,0.232 0.155,0.462 0.157,0.68 z"
   id="path143" />&#10;			<path
   style="fill:#ffffff"
   d="m 199.129,389.822 c -0.87,-1.594 -0.77,-3.738 1.078,-4.623 4.56,-2.186 7.227,5.784 2.358,6.488 -1.465,0.212 -2.751,-0.61 -3.436,-1.865 z"
   id="path144" />&#10;			<path
   style="fill:#ffffff"
   d="m 210.713,393.182 c 0.793,-0.351 1.722,0.057 2.092,0.942 0.364,0.867 0.057,1.711 -0.748,2.059 -1.554,0.672 -3.079,-1.292 -1.907,-2.587 0.173,-0.189 0.364,-0.326 0.563,-0.414 z"
   id="path145" />&#10;			<path
   style="fill:#ffffff"
   d="m 126.034,345.707 c 0.793,-0.351 1.722,0.057 2.093,0.942 0.364,0.867 0.057,1.711 -0.748,2.059 -1.554,0.672 -3.079,-1.292 -1.907,-2.587 0.171,-0.189 0.362,-0.325 0.562,-0.414 z"
   id="path146" />&#10;			<path
   style="fill:#ffffff"
   d="m 425.72,277.254 c 0.007,0.867 -0.736,1.557 -1.695,1.547 -0.94,-0.011 -1.593,-0.627 -1.593,-1.504 10e-4,-1.693 2.409,-2.313 3.131,-0.723 0.106,0.233 0.155,0.462 0.157,0.68 z"
   id="path147" />&#10;			<path
   style="fill:#ffffff"
   d="m 168.201,280.264 c 0.007,0.867 -0.736,1.557 -1.695,1.547 -0.94,-0.011 -1.593,-0.627 -1.593,-1.504 0,-1.693 2.409,-2.313 3.131,-0.723 0.106,0.233 0.155,0.462 0.157,0.68 z"
   id="path148" />&#10;			<path
   style="fill:#ffffff"
   d="m 385.317,171.827 c 1.797,0.262 3.451,1.63 3.049,3.639 -0.992,4.959 -8.965,2.304 -6.604,-2.012 0.711,-1.299 2.141,-1.833 3.555,-1.627 z"
   id="path149" />&#10;			<path
   style="fill:#ffffff"
   d="m 365.431,151.253 c -1.554,-0.939 -2.547,-2.842 -1.397,-4.537 2.839,-4.184 9.156,1.358 5.304,4.419 -1.158,0.921 -2.683,0.857 -3.907,0.118 z"
   id="path150" />&#10;			<path
   style="fill:#ffffff"
   d="m 393.994,184.674 c -0.196,0.844 -1.08,1.342 -2.01,1.107 -0.912,-0.23 -1.402,-0.982 -1.197,-1.835 0.396,-1.646 2.883,-1.686 3.213,0.029 0.049,0.252 0.044,0.486 -0.006,0.699 z"
   id="path151" />&#10;			<path
   style="fill:#ffffff"
   d="m 353.755,147.039 c 0.508,-0.702 1.516,-0.818 2.282,-0.24 0.751,0.566 0.911,1.45 0.391,2.155 -1.004,1.363 -3.311,0.434 -2.95,-1.275 0.053,-0.249 0.15,-0.463 0.277,-0.64 z"
   id="path152" />&#10;			<path
   style="fill:#ffffff"
   d="m 392.348,165.957 c -0.196,0.845 -1.08,1.342 -2.01,1.107 -0.912,-0.23 -1.402,-0.982 -1.197,-1.834 0.396,-1.646 2.883,-1.686 3.214,0.029 0.048,0.25 0.042,0.485 -0.007,0.698 z"
   id="path153" />&#10;			<path
   style="fill:#ffffff"
   d="m 341.223,175.721 c -0.196,0.845 -1.08,1.342 -2.01,1.107 -0.912,-0.23 -1.402,-0.982 -1.197,-1.835 0.396,-1.645 2.883,-1.686 3.213,0.03 0.048,0.25 0.043,0.485 -0.006,0.698 z"
   id="path154" />&#10;			<path
   style="fill:#ffffff"
   d="m 296.403,408.225 c 1.438,-1.109 3.571,-1.347 4.735,0.339 2.874,4.161 -4.579,8.044 -6.038,3.347 -0.439,-1.414 0.171,-2.813 1.303,-3.686 z"
   id="path155" />&#10;			<path
   style="fill:#ffffff"
   d="m 305.86,410.879 c 0.471,0.728 0.214,1.709 -0.602,2.214 -0.799,0.495 -1.681,0.325 -2.151,-0.415 -0.907,-1.429 0.793,-3.244 2.256,-2.289 0.214,0.14 0.378,0.307 0.497,0.49 z"
   id="path156" />&#10;			<path
   style="fill:#ffffff"
   d="m 297.074,399.09 c 0.471,0.728 0.214,1.709 -0.602,2.214 -0.799,0.495 -1.681,0.325 -2.151,-0.415 -0.907,-1.429 0.793,-3.244 2.256,-2.289 0.213,0.14 0.378,0.307 0.497,0.49 z"
   id="path157" />&#10;			<path
   style="fill:#ffffff"
   d="m 275.133,335.316 c 0.007,0.867 -0.736,1.557 -1.695,1.547 -0.94,-0.011 -1.593,-0.627 -1.593,-1.504 10e-4,-1.693 2.409,-2.313 3.131,-0.723 0.106,0.232 0.155,0.462 0.157,0.68 z"
   id="path158" />&#10;			<path
   style="fill:#ffffff"
   d="m 366.832,307.515 c 0.007,0.867 -0.736,1.558 -1.695,1.547 -0.94,-0.011 -1.593,-0.627 -1.593,-1.504 0.001,-1.693 2.409,-2.313 3.131,-0.723 0.106,0.233 0.155,0.462 0.157,0.68 z"
   id="path159" />&#10;			<path
   style="fill:#ffffff"
   d="m 386.75,342.249 c 0.007,0.867 -0.736,1.557 -1.695,1.547 -0.94,-0.011 -1.593,-0.627 -1.593,-1.504 0.001,-1.693 2.409,-2.313 3.131,-0.723 0.106,0.232 0.155,0.461 0.157,0.68 z"
   id="path160" />&#10;			<path
   style="fill:#ffffff"
   d="m 267.947,411.543 c 0.007,0.867 -0.736,1.557 -1.695,1.547 -0.94,-0.011 -1.593,-0.627 -1.593,-1.504 0.001,-1.693 2.409,-2.313 3.131,-0.723 0.106,0.233 0.155,0.462 0.157,0.68 z"
   id="path161" />&#10;			<path
   style="fill:#ffffff"
   d="m 386.423,384.221 c 0.007,0.867 -0.736,1.557 -1.695,1.547 -0.94,-0.011 -1.593,-0.627 -1.593,-1.504 0.001,-1.693 2.409,-2.313 3.131,-0.723 0.106,0.232 0.155,0.461 0.157,0.68 z"
   id="path162" />&#10;			<path
   style="fill:#ffffff"
   d="m 337.472,435.844 c 0.007,0.867 -0.736,1.557 -1.695,1.547 -0.94,-0.011 -1.593,-0.627 -1.593,-1.504 10e-4,-1.693 2.409,-2.313 3.131,-0.723 0.105,0.232 0.155,0.461 0.157,0.68 z"
   id="path163" />&#10;			<path
   style="fill:#ffffff"
   d="m 421.405,215.792 c 0.007,0.867 -0.736,1.557 -1.695,1.547 -0.94,-0.011 -1.593,-0.627 -1.593,-1.504 10e-4,-1.693 2.409,-2.313 3.131,-0.723 0.106,0.232 0.155,0.462 0.157,0.68 z"
   id="path164" />&#10;		</g></g><g
   id="g15"
   transform="matrix(2.3259837,0,0,2.3259837,46.37441,-1.1505561)"
   style="fill:#dc5943;fill-opacity:1"><g
     transform="translate(-1.4904,-3.269)"
     stroke-width="0.81305"
     id="g4"
     style="fill:#dc5943;fill-opacity:1"><rect
       x="25.208"
       y="16.768"
       width="3.1537001"
       height="5.7723999"
       rx="0.16014846"
       ry="0.16014846"
       id="rect1"
       style="fill:#dc5943;fill-opacity:1" /><rect
       x="25.208"
       y="10.344"
       width="3.1537001"
       height="5.7723999"
       rx="0.16014846"
       ry="0.16014846"
       id="rect2"
       style="fill:#dc5943;fill-opacity:1" /><rect
       x="25.208"
       y="23.191"
       width="3.1537001"
       height="5.7723999"
       rx="0.16014846"
       ry="0.16014846"
       id="rect3"
       style="fill:#dc5943;fill-opacity:1" /><rect
       x="25.208"
       y="3.9131999"
       width="3.1537001"
       height="5.7723999"
       rx="0.16014846"
       ry="0.16014846"
       id="rect4"
       style="fill:#dc5943;fill-opacity:1" /></g><rect
     transform="rotate(-38.272)"
     x="-1.4075"
     y="12.247"
     width="2.6473"
     height="2.6794"
     rx="1.6418151"
     ry="1.6418151"
     stroke-width="0.90818"
     id="rect5"
     style="fill:#dc5943;fill-opacity:1" /><path
     d="M 0.71215,0.72503 C 0.29272,1.04652 0.255,1.66967 0.59066,2.10763 l 1.0801,1.4091 C 2.00645,3.95469 2.61682,4.07863 3.03626,3.75714 3.45569,3.43565 3.49305,2.81523 3.15735,2.37724 L 2.07725,0.96814 C 1.74156,0.53018 1.13159,0.40354 0.71215,0.72504 Z M 0.96048,1.04901 C 1.18522,0.87674 1.53702,0.93435 1.75329,1.21649 l 1.0801,1.4091 C 3.04966,2.90775 3.01269,3.26087 2.787941,3.43314 2.563201,3.6054 2.211041,3.55055 1.994761,3.26839 l -1.0801,-1.4091 C 0.698391,1.57713 0.735731,1.22127 0.960479,1.049 Z"
     color="#000000"
     style="fill:#dc5943;fill-opacity:1;-inkscape-stroke:none"
     id="path5-6" /><rect
     transform="rotate(-37.47)"
     x="-0.14557999"
     y="3.9590001"
     width="0.53860998"
     height="3.5486"
     rx="0.71353304"
     ry="0.71353304"
     stroke-width="0.90818"
     id="rect6"
     style="fill:#dc5943;fill-opacity:1" /><path
     d="M 4.1667,5.1645 C 3.74727,5.48599 3.71109,6.10796 4.04676,6.5459 L 5.12686,7.955 C 5.46255,8.39296 6.07252,8.5196 6.49196,8.1981 6.9114,7.8766 6.94911,7.25346 6.61345,6.8155 L 5.53335,5.4064 C 5.19766,4.96844 4.58613,4.84299 4.16675,5.16448 Z M 4.41622,5.49003 C 4.64096,5.31776 4.99312,5.37262 5.2094,5.65477 l 1.0801,1.4091 C 6.50577,7.34603 6.46843,7.70189 6.243682,7.87416 6.018934,8.04643 5.667142,7.98882 5.450872,7.70667 l -1.0801,-1.4091 C 4.154502,6.01541 4.191472,5.66229 4.416221,5.49002 Z"
     color="#000000"
     style="fill:#dc5943;fill-opacity:1;-inkscape-stroke:none"
     id="path6-7" /><rect
     transform="rotate(-37.47)"
     x="-0.10353"
     y="9.5818005"
     width="0.53860998"
     height="3.5486"
     rx="0.71353304"
     ry="0.71353304"
     stroke-width="0.90818"
     id="rect7"
     style="fill:#dc5943;fill-opacity:1" /><circle
     transform="rotate(-6.0851)"
     cx="11.722"
     cy="18.575001"
     r="7.9741001"
     stroke-width="0.90818"
     id="circle7"
     style="fill:#dc5943;fill-opacity:1" /><path
     d="m 30.704,14.651 q 0,0.50194 0.1855,0.9384 0.19641,0.43647 0.52376,0.76382 0.33826,0.32735 0.77473,0.51285 0.43647,0.1855 0.92749,0.1855 0.50194,0 0.9384,-0.1855 0.44738,-0.1855 0.77473,-0.51285 0.32735,-0.32735 0.51285,-0.76382 0.19641,-0.43646 0.19641,-0.9384 0,-0.50194 -0.19641,-0.9384 -0.1855,-0.43646 -0.51285,-0.76382 -0.32735,-0.32735 -0.77473,-0.51285 -0.43647,-0.1855 -0.9384,-0.1855 -0.49102,0 -0.92749,0.1855 -0.43646,0.1855 -0.77473,0.51285 -0.32735,0.32735 -0.52376,0.76382 -0.1855,0.43647 -0.1855,0.9384 z m -2.9134,0 q 0,-1.1021 0.41464,-2.0732 0.42555,-0.97114 1.1457,-1.6913 0.73108,-0.73108 1.6913,-1.1457 0.97114,-0.42556 2.0732,-0.42556 1.10206,0 2.0732,0.42556 0.97114,0.41464 1.6913,1.1457 0.72017,0.72017 1.1348,1.6913 0.42555,0.97114 0.42555,2.0732 0,1.1021 -0.42555,2.0732 -0.41464,0.96022 -1.1348,1.6804 -0.72017,0.72017 -1.6913,1.1457 -0.97114,0.41464 -2.0732,0.41464 -1.10206,0 -2.0732,-0.41464 -0.96022,-0.42555 -1.6913,-1.1457 -0.72017,-0.72017 -1.1457,-1.6804 Q 27.7906,15.75306 27.7906,14.651 Z"
     id="path7-5"
     style="fill:#dc5943;fill-opacity:1" /><path
     d="m 42.718,16.702 -2.7279,2.7279 q -0.20732,0.20732 -0.49102,0.31644 -0.27279,0.09821 -0.55649,0.09821 -0.30553,0 -0.57832,-0.10912 -0.26188,-0.12003 -0.4692,-0.30553 -0.19641,-0.19641 -0.31644,-0.44738 -0.10912,-0.26188 -0.10912,-0.54558 0,-0.27279 0.0982,-0.53467 0.10912,-0.26188 0.32735,-0.48011 l 2.7606,-2.7825 -2.8916,-2.9025 q -0.20732,-0.20732 -0.30553,-0.45829 -0.0982,-0.26188 -0.0982,-0.53467 0,-0.29461 0.10912,-0.55649 0.12003,-0.26188 0.31644,-0.4692 0.19641,-0.20732 0.45829,-0.32735 0.26188,-0.12003 0.55649,-0.12003 0.2837,0.01091 0.54558,0.10912 0.27279,0.0982 0.49102,0.31644 l 2.8698,2.8916 2.837,-2.8588 q 0.21823,-0.21823 0.49102,-0.32735 0.2837,-0.12003 0.56741,-0.12003 0.30552,0 0.5674,0.13094 0.26188,0.12003 0.45829,0.32735 0.19641,0.19641 0.30553,0.4692 0.10912,0.27279 0.10912,0.56741 0,0.26188 -0.09821,0.51285 -0.08729,0.25097 -0.2837,0.44738 l -2.9025,2.9134 2.717,2.717 q 0.21823,0.21823 0.31644,0.48011 0.10912,0.26188 0.10912,0.54558 0,0.29461 -0.12003,0.55649 -0.10912,0.26188 -0.30553,0.45829 -0.19641,0.19641 -0.45829,0.31644 -0.26188,0.10912 -0.55649,0.10912 -0.2837,0 -0.55649,-0.09821 -0.26188,-0.10912 -0.4692,-0.31644 z"
     id="path8-3"
     style="fill:#dc5943;fill-opacity:1" /><path
     d="m 47.454,7.591 q 0,-0.30553 0.12003,-0.5674 0.12003,-0.27279 0.31644,-0.4692 0.19641,-0.20732 0.45829,-0.31644 0.27279,-0.12003 0.56741,-0.12003 0.29462,0 0.5674,0.12003 0.2837,0.10912 0.49102,0.30553 0.20732,0.19641 0.32735,0.4692 0.13094,0.27279 0.13094,0.57832 v 1.3967 h 3.3499 q 0.29461,0 0.55649,0.12003 0.27279,0.10912 0.4692,0.31644 0.20732,0.19641 0.31644,0.4692 0.12003,0.26188 0.12003,0.55649 0,0.29461 -0.12003,0.54558 -0.10912,0.25097 -0.31644,0.44738 -0.19641,0.1855 -0.4692,0.29461 -0.26188,0.10912 -0.55649,0.10912 h -3.3499 v 2.8261 q 0,0.50194 0.17459,0.9384 0.1855,0.43647 0.50194,0.76382 0.31644,0.32735 0.74199,0.51285 0.42555,0.1855 0.92749,0.1855 0.44738,0 0.82928,-0.12003 0.38191,-0.12003 0.67652,-0.39282 0.24006,-0.21823 0.50194,-0.34917 0.27279,-0.14185 0.60014,-0.14185 0.24006,0 0.48011,0.10912 0.24006,0.0982 0.41464,0.2837 0.1855,0.1855 0.29462,0.43647 0.12003,0.24006 0.12003,0.52376 0,0.33826 -0.14185,0.66561 -0.13094,0.32735 -0.38191,0.57832 -0.67652,0.6547 -1.5385,0.98205 -0.86202,0.32735 -1.855,0.32735 -1.1021,0 -2.0732,-0.41464 -0.97114,-0.42555 -1.6913,-1.1457 -0.72017,-0.72017 -1.1457,-1.6913 -0.41464,-0.97114 -0.41464,-2.0732 z"
     id="path9-5"
     style="fill:#dc5943;fill-opacity:1" /><path
     d="m 56.097,14.749 q 0.03274,-1.113 0.48011,-2.095 0.44738,-0.98205 1.1894,-1.7131 0.7529,-0.74199 1.735,-1.1675 0.99296,-0.43647 2.1059,-0.45829 h 0.0982 q 0.72017,0.01091 1.1021,0.41464 0.39282,0.40373 0.39282,1.0257 0,0.31644 -0.12003,0.57832 -0.12003,0.26188 -0.32735,0.45829 -0.19641,0.19641 -0.48011,0.30553 -0.27279,0.10912 -0.57832,0.10912 -0.54558,0 -1.0366,0.20732 -0.48011,0.20732 -0.85111,0.5674 -0.36008,0.36008 -0.57832,0.85111 -0.21823,0.48011 -0.22914,1.0366 v 3.5463 q 0,0.30553 -0.10912,0.56741 -0.10912,0.26188 -0.30553,0.45829 -0.19641,0.1855 -0.45829,0.29461 -0.25097,0.10912 -0.54558,0.10912 -0.29462,0 -0.5674,-0.10912 -0.27279,-0.10912 -0.48011,-0.29461 -0.19641,-0.19641 -0.31644,-0.45829 -0.12003,-0.26188 -0.12003,-0.56741 z"
     id="path10-6"
     style="fill:#dc5943;fill-opacity:1" /><path
     d="m 62.391,18.297 q 0.34917,0.5674 0.90566,0.89475 0.55649,0.32735 1.2221,0.32735 0.42555,0 0.67652,-0.06547 0.26188,-0.07638 0.4692,-0.19641 0.21823,-0.14185 0.42555,-0.19641 0.21823,-0.06547 0.41464,-0.06547 0.30553,0 0.55649,0.12003 0.26188,0.12003 0.44738,0.32735 0.19641,0.20732 0.30553,0.48011 0.10912,0.27279 0.10912,0.56741 0,0.371 -0.20732,0.70926 -0.20732,0.32735 -0.63288,0.57832 -0.42555,0.24006 -1.0693,0.39282 -0.63288,0.14185 -1.4949,0.14185 -1.1021,0 -2.0841,-0.41464 -0.97114,-0.42555 -1.7022,-1.1457 -0.73108,-0.72017 -1.1566,-1.6804 -0.42555,-0.97114 -0.42555,-2.0732 0,-1.113 0.42555,-2.0841 0.42555,-0.97114 1.1566,-1.6913 0.73108,-0.73108 1.7022,-1.1457 0.98205,-0.41464 2.0841,-0.41464 1.0912,0 2.0514,0.41464 0.97114,0.40373 1.6913,1.1239 0.73108,0.70926 1.1566,1.6695 0.43647,0.96022 0.45829,2.0514 0,0.62196 -0.40373,1.0039 -0.39282,0.371 -1.0257,0.371 z m 4.5065,-2.4224 q -0.30553,-0.6547 -0.91658,-1.0475 -0.61105,-0.39282 -1.4076,-0.39282 -0.81837,0 -1.3967,0.41464 -0.57832,0.40373 -0.87293,1.0257 z"
     id="path11-2"
     style="fill:#dc5943;fill-opacity:1" /><path
     d="m 68.357,13.843 q 0.34917,0.5674 0.90567,0.89475 0.55649,0.32735 1.2221,0.32735 0.42555,0 0.67652,-0.06547 0.26188,-0.07638 0.4692,-0.19641 0.21823,-0.14185 0.42555,-0.19641 0.21823,-0.06547 0.41464,-0.06547 0.30553,0 0.55649,0.12003 0.26188,0.12003 0.44738,0.32735 0.19641,0.20732 0.30552,0.48011 0.10912,0.27279 0.10912,0.5674 0,0.371 -0.20732,0.70926 -0.20732,0.32735 -0.63288,0.57832 -0.42555,0.24006 -1.0693,0.39282 -0.63288,0.14185 -1.4949,0.14185 -1.1021,0 -2.0841,-0.41464 -0.97114,-0.42555 -1.7022,-1.1457 -0.73108,-0.72017 -1.1566,-1.6804 -0.42555,-0.97114 -0.42555,-2.0732 0,-1.113 0.42555,-2.0841 0.42555,-0.97114 1.1566,-1.6913 0.73108,-0.73108 1.7022,-1.1457 0.98205,-0.41464 2.0841,-0.41464 1.0912,0 2.0514,0.41464 0.97114,0.40373 1.6913,1.1239 0.73108,0.70926 1.1566,1.6695 0.43646,0.96022 0.45829,2.0514 0,0.62196 -0.40373,1.0039 -0.39282,0.371 -1.0257,0.371 z m 4.5065,-2.4224 q -0.30553,-0.6547 -0.91658,-1.0475 -0.61105,-0.39282 -1.4076,-0.39282 -0.81837,0 -1.3967,0.41464 -0.57832,0.40373 -0.87293,1.0257 z"
     id="path12-9"
     style="fill:#dc5943;fill-opacity:1" /><path
     d="m 75.478,7.591 q 0,-0.30553 0.12003,-0.5674 0.12002,-0.27279 0.31644,-0.4692 0.19641,-0.20732 0.45829,-0.31644 0.27278,-0.12003 0.56741,-0.12003 0.29461,0 0.56741,0.12003 0.2837,0.10912 0.49102,0.30553 0.20733,0.19641 0.32735,0.4692 0.13094,0.27279 0.13094,0.57832 v 1.3967 h 3.3499 q 0.29462,0 0.55649,0.12003 0.27279,0.10912 0.4692,0.31644 0.20733,0.19641 0.31644,0.4692 0.12003,0.26188 0.12003,0.55649 0,0.29461 -0.12003,0.54558 -0.10911,0.25097 -0.31644,0.44738 -0.19641,0.1855 -0.4692,0.29461 -0.26187,0.10912 -0.55649,0.10912 h -3.3499 v 2.8261 q 0,0.50194 0.17459,0.9384 0.1855,0.43647 0.50194,0.76382 0.31644,0.32735 0.742,0.51285 0.42556,0.1855 0.9275,0.1855 0.44737,0 0.82929,-0.12003 0.38191,-0.12003 0.67652,-0.39282 0.24006,-0.21823 0.50194,-0.34917 0.27279,-0.14185 0.60014,-0.14185 0.24006,0 0.48011,0.10912 0.24005,0.0982 0.41464,0.2837 0.1855,0.1855 0.29461,0.43647 0.12003,0.24006 0.12003,0.52376 0,0.33826 -0.14185,0.66561 -0.13094,0.32735 -0.38191,0.57832 -0.67652,0.6547 -1.5385,0.98205 -0.86202,0.32735 -1.855,0.32735 -1.1021,0 -2.0732,-0.41464 -0.97114,-0.42555 -1.6913,-1.1457 -0.72018,-0.72017 -1.1457,-1.6913 -0.41465,-0.97114 -0.41465,-2.0732 z"
     id="path13-1"
     style="fill:#dc5943;fill-opacity:1" /><path
     d="m 88.953,6.937 q 0,-0.31644 0.10911,-0.58923 0.12003,-0.2837 0.31644,-0.48011 0.19641,-0.20732 0.45829,-0.31644 0.27279,-0.12003 0.57831,-0.12003 0.30553,0 0.56741,0.12003 0.27278,0.10912 0.45828,0.31644 0.19642,0.19641 0.30553,0.48011 0.10911,0.27279 0.10911,0.58923 v 3.3499 q 0.17459,-0.20732 0.44738,-0.38191 0.2837,-0.17459 0.61105,-0.30552 0.33826,-0.13094 0.68744,-0.20732 0.36009,-0.07639 0.68744,-0.07639 1.0912,0 2.0623,0.42556 0.97113,0.41464 1.6913,1.1457 0.72016,0.72017 1.1349,1.6913 0.4256,0.97114 0.4256,2.0732 0,1.10206 -0.4256,2.0732 -0.41469,0.96022 -1.1349,1.6804 -0.72017,0.72017 -1.6913,1.1457 -0.97114,0.41464 -2.0623,0.41464 -1.1021,0 -2.0732,-0.41464 -0.96023,-0.42555 -1.6913,-1.1457 -0.73108,-0.72017 -1.1566,-1.6804 -0.41464,-0.97114 -0.41464,-2.0732 z m 2.9134,7.7145 q 0,0.50194 0.18549,0.9384 0.19642,0.43647 0.52377,0.76382 0.33826,0.32735 0.77472,0.51285 0.44738,0.1855 0.93841,0.1855 0.50193,0 0.9384,-0.1855 0.43646,-0.1855 0.76381,-0.51285 0.32735,-0.32735 0.51285,-0.76382 0.19641,-0.43646 0.19641,-0.9384 0,-0.50194 -0.19641,-0.9384 -0.1855,-0.43646 -0.51285,-0.76382 -0.32735,-0.32735 -0.76381,-0.51285 -0.43647,-0.1855 -0.9384,-0.1855 -0.49103,0 -0.93841,0.1855 -0.43646,0.1855 -0.77472,0.51285 -0.32735,0.32735 -0.52377,0.76382 -0.18549,0.43647 -0.18549,0.9384 z"
     id="path14-2"
     style="fill:#dc5943;fill-opacity:1" /><path
     d="m 107.6,14.498 q 0,-0.48011 -0.15277,-0.90566 -0.14185,-0.42556 -0.41464,-0.73108 -0.27279,-0.31644 -0.66561,-0.49102 -0.38191,-0.1855 -0.86202,-0.1855 -0.48012,0 -0.98204,0.16367 -0.49103,0.16368 -0.90568,0.45829 -0.40372,0.29461 -0.6656,0.69834 -0.26189,0.40373 -0.26189,0.87293 v 4.0264 q 0,0.29461 -0.10911,0.55649 -0.10911,0.26188 -0.30553,0.45829 -0.19641,0.19641 -0.45828,0.31644 -0.26188,0.10912 -0.56741,0.10912 -0.30552,0 -0.57832,-0.10912 -0.26188,-0.12003 -0.45829,-0.31644 -0.1964,-0.19641 -0.31646,-0.45829 -0.10913,-0.26188 -0.10913,-0.55649 v -11.512 q 0,-0.30553 0.10913,-0.5674 0.12006,-0.27279 0.31646,-0.4692 0.20733,-0.19641 0.4692,-0.30553 0.2728,-0.12003 0.56741,-0.12003 0.29462,0 0.55649,0.12003 0.26188,0.10912 0.45829,0.30553 0.19641,0.19641 0.30553,0.4692 0.12002,0.26188 0.12002,0.5674 v 3.579 q 0.60015,-0.53467 1.3094,-0.8402 0.72017,-0.31644 1.5058,-0.31644 1.0584,0 1.975,0.41464 0.91658,0.40373 1.5822,1.113 0.67653,0.69834 1.0584,1.6477 0.38191,0.9384 0.38191,2.0077 v 3.95 q 0,0.30553 -0.12003,0.56741 -0.10912,0.25097 -0.31643,0.44738 -0.19642,0.1855 -0.45829,0.29462 -0.26189,0.10912 -0.5565,0.10912 -0.29461,0 -0.5674,-0.10912 -0.26188,-0.10912 -0.45829,-0.29462 -0.19641,-0.19641 -0.31644,-0.44738 -0.10911,-0.26188 -0.10911,-0.56741 z"
     id="path15-7"
     style="fill:#dc5943;fill-opacity:1" /></g></svg>
