<?xml version="1.0" encoding="UTF-8" standalone="no"?>
<svg
   version="1.0"
   width="53.604931pt"
   height="60.625465pt"
   viewBox="0 0 53.604929 60.625465"
   preserveAspectRatio="xMidYMid"
   id="svg879"
   xmlns="http://www.w3.org/2000/svg"
   xmlns:svg="http://www.w3.org/2000/svg">
  <defs
     id="defs883">
    <clipPath
       clipPathUnits="userSpaceOnUse"
       id="clipPath1155">
      <rect
         style="fill:none;stroke-width:90"
         id="rect1157"
         width="3536.5183"
         height="4432.4961"
         x="447.26587"
         y="-4491.9087"
         transform="scale(1,-1)" />
    </clipPath>
  </defs>
  <g
     id="g1162"
     transform="matrix(0.16260634,0,0,0.14320049,-8.983553,-6.1775639)">
    <g
       transform="matrix(0.1,0,0,-0.1,0,478)"
       fill="#000000"
       stroke="none"
       id="g877"
       clip-path="url(#clipPath1155)">
      <path
         d="m 2381,4334 c -184,-49 -349,-236 -396,-448 l -17,-76 h -137 c -110,0 -144,-4 -176,-19 -48,-21 -101,-79 -109,-118 -5,-25 -79,-1033 -122,-1668 l -17,-250 -75,-70 c -42,-38 -95,-97 -120,-130 l -44,-59 -73,3 C 983,1503 956,1485 749,1270 641,1157 570,1076 563,1054 537,983 502,1024 1228,270 l 149,-155 h 48 48 l 184,190 c 101,105 194,208 205,230 14,26 23,66 26,115 5,88 23,115 106,152 51,23 54,23 561,28 568,6 535,1 606,77 48,51 636,807 662,851 29,49 35,167 12,229 -22,57 -85,128 -139,155 -22,11 -66,23 -98,25 -32,3 -58,11 -58,16 0,20 -71,1031 -89,1263 -19,259 -24,276 -100,329 -42,29 -45,30 -193,35 l -151,5 -13,60 c -67,324 -343,532 -613,459 z m 226,-179 c 65,-29 129,-94 170,-171 34,-64 65,-159 56,-168 -4,-3 -161,-6 -350,-6 h -343 l 6,28 c 11,43 44,124 66,162 102,171 240,225 395,155 z m -639,-573 c 2,-38 -3,-69 -19,-107 -27,-65 -20,-112 22,-154 84,-84 216,-18 206,102 -3,31 -12,56 -26,70 -17,19 -21,36 -21,85 v 62 h 354 354 l 4,-52 c 3,-41 -2,-63 -19,-96 -35,-65 -31,-122 10,-165 60,-64 136,-57 191,16 26,35 27,103 3,138 -12,16 -17,44 -17,91 v 68 h 118 c 64,0 123,-4 130,-8 14,-9 12,9 77,-911 l 46,-645 -185,-185 -185,-185 -43,24 c -43,25 -43,25 -403,30 l -360,5 -80,37 c -45,21 -110,44 -145,52 -84,20 -221,20 -316,0 -42,-8 -78,-13 -80,-11 -2,2 18,316 45,698 28,382 56,779 62,883 9,135 17,192 27,203 11,10 41,13 131,11 l 116,-3 z M 3645,1955 c 30,-29 34,-88 8,-125 -18,-26 -609,-787 -625,-805 -6,-6 -200,-12 -526,-15 l -517,-5 -65,-31 c -36,-17 -82,-45 -102,-62 l -35,-32 -236,247 -236,246 16,31 c 9,17 51,66 93,108 89,89 178,138 300,164 123,26 207,12 380,-63 l 65,-28 357,-5 358,-5 24,-25 c 38,-39 39,-98 1,-135 l -24,-25 h -305 c -207,0 -313,-4 -330,-11 -39,-18 -60,-71 -46,-115 21,-64 32,-66 393,-62 310,3 324,4 363,25 98,52 154,145 154,253 v 66 l 218,217 c 206,205 220,217 255,217 27,0 45,-7 62,-25 z M 1259,1163 c 84,-87 220,-229 302,-315 132,-139 149,-161 149,-191 0,-31 -16,-50 -142,-182 L 1425,328 1098,668 c -181,188 -328,346 -328,352 0,6 64,76 143,155 107,110 148,145 167,145 19,1 61,-36 179,-157 z"
         id="path873" />
      <path
         d="m 1024,1146 c -45,-45 -47,-92 -5,-138 59,-66 156,-31 168,60 5,37 2,45 -30,77 -47,47 -86,48 -133,1 z"
         id="path875" />
    </g>
  </g>
</svg>
