<svg width="105.79mm" height="19.847mm" version="1.1" viewBox="0 0 105.79 19.847" xmlns="http://www.w3.org/2000/svg">
 <g fill="#cbc4b9" stroke-linecap="round" stroke-linejoin="bevel">
  <rect x="-.02813" y=".020611" width="3.8217" height="2.17" stroke-width=".51291"/>
  <rect x="5.1784" y=".18323" width="1.7334" height="2.3243" stroke-width=".3575"/>
  <rect x="37.465" y=".19076" width="4.0515" height="2.6145" stroke-width=".57967"/>
  <rect x="5.9002" y="1.641" width="1.9" height="1.7657" stroke-width=".32623"/>
  <rect x="4.1731" y="1.1134" width="2.2161" height="2.1096" stroke-width=".3851"/>
  <rect x="7.2367" y="2.5713" width="1.1541" height="1.8144" stroke-width=".25774"/>
  <rect x="4.9253" y="2.4938" width="1.7002" height="1.9365" stroke-width=".32318"/>
  <rect x=".57901" y="1.1197" width="1.5002" height="2.8888" stroke-width=".37079"/>
  <rect x="3.3498" y=".018788" width="2.6442" height="1.6859" stroke-width=".37605"/>
  <rect x="40.895" y=".24296" width="4.6116" height="3.4009" stroke-width=".70535"/>
  <rect x="40.145" y="1.9046" width="2.6058" height="3.4009" stroke-width=".53021"/>
  <rect x="8.5561" y="1.4349" width="2.0659" height="1.94" stroke-width=".35656"/>
  <rect x="5.1555" y="3.5626" width="1.0987" height="1.6668" stroke-width=".24102"/>
  <rect x="6.9056" y=".043913" width="3.0169" height="1.1062" stroke-width=".32537"/>
  <rect x="6.7474" y=".72649" width="2.0535" height="1.996" stroke-width=".36058"/>
  <rect x="8.7078" y="2.7799" width=".91242" height="1.1119" stroke-width=".17939"/>
  <rect x="9.7116" y="2.9002" width=".76426" height="1.6285" stroke-width=".1987"/>
  <rect x="8.7749" y=".36312" width="1.2489" height="1.3666" stroke-width=".23268"/>
  <rect x="9.8994" y=".017093" width=".76426" height="1.5248" stroke-width=".19227"/>
  <rect x="10.497" y=".020224" width=".76426" height="1.5908" stroke-width=".19639"/>
  <rect x="11.07" y=".087454" width=".89368" height="2.7807" stroke-width=".28077"/>
  <rect x="11.839" y=".040753" width=".76426" height="2.5256" stroke-width=".24745"/>
  <g stroke-width=".24949">
   <rect x="12.443" y="1.2136" width=".76426" height="2.5675"/>
   <rect x="12.761" y="1.7375" width=".76426" height="2.5675"/>
   <rect x="13.837" y="1.0548" width=".76426" height="2.5675"/>
   <rect x="13.837" y="1.0548" width=".76426" height="2.5675"/>
  </g>
  <rect x="13.345" y="1.8703" width=".59863" height="2.6957" stroke-width=".22625"/>
  <rect x="13.837" y="1.0548" width=".76426" height="2.5675" stroke-width=".24949"/>
  <rect x="13.837" y="1.0548" width=".76426" height="2.5675" stroke-width=".24949"/>
  <rect x="14.436" y="2.8706" width="1.008" height="2.5675" stroke-width=".28653"/>
  <rect x="15.199" y="1.9327" width=".76426" height="2.5675" stroke-width=".24949"/>
  <rect x="15.543" y="1.1319" width="1.3076" height="2.5675" stroke-width=".32634"/>
  <rect x="16.655" y="2.2047" width=".47981" height="2.5675" stroke-width=".19768"/>
  <g stroke-width=".25818">
   <rect x="16.989" y=".51479" width=".8184" height="2.5675"/>
   <rect x="17.394" y="1.0093" width=".8184" height="2.5675"/>
   <rect x="18.056" y=".21166" width=".8184" height="2.5675"/>
   <rect x="18.514" y="1.3733" width=".8184" height="2.5675"/>
   <rect x="19.014" y=".79527" width=".8184" height="2.5675"/>
  </g>
  <rect x="18.651" y="3.2996" width=".40582" height="1.1404" stroke-width=".12116"/>
  <g stroke-width=".25818">
   <rect x="19.422" y=".20247" width=".8184" height="2.5675"/>
   <rect x="20.222" y=".96449" width=".8184" height="2.5675"/>
   <rect x="20.816" y=".64658" width=".8184" height="2.5675"/>
  </g>
  <rect x="21.54" y=".11309" width=".6457" height="2.4249" stroke-width=".22287"/>
  <rect x="22.158" y=".12536" width=".8184" height="2.2078" stroke-width=".23941"/>
  <rect x="22.395" y="1.1781" width=".65093" height="2.5675" stroke-width=".23025"/>
  <rect x="22.806" y=".0703" width=".8184" height="2.5627" stroke-width=".25794"/>
  <rect x="23.597" y=".10919" width=".8184" height="2.1781" stroke-width=".2378"/>
  <rect x="24.398" y=".044041" width=".62316" height="2.5675" stroke-width=".22529"/>
  <rect x="24.995" y=".49102" width=".42446" height="2.5675" stroke-width=".18593"/>
  <rect x="25.313" y=".0077829" width=".54458" height="2.5239" stroke-width=".20881"/>
  <rect x="25.816" y=".47213" width=".54458" height="2.5675" stroke-width=".21061"/>
  <rect x="26.101" y=".0084723" width=".70577" height="2.4552" stroke-width=".23446"/>
  <rect x="26.667" y="1.1272" width=".70577" height="2.5675" stroke-width=".23976"/>
  <rect x="27.176" y=".082141" width=".70577" height="2.4582" stroke-width=".2346"/>
  <rect x="27.757" y="1.3731" width=".70577" height="2.5675" stroke-width=".23976"/>
  <rect x="28.263" y=".14219" width="1.2451" height="2.5675" stroke-width=".31845"/>
  <rect x="29.285" y=".33758" width=".64023" height="2.5675" stroke-width=".22835"/>
  <rect x="29.808" y=".0099165" width=".64023" height="2.4881" stroke-width=".22479"/>
  <rect x="30.162" y="1.6642" width=".64023" height="2.5675" stroke-width=".22835"/>
  <rect x="30.668" y=".013976" width=".64023" height="2.1006" stroke-width=".20655"/>
  <rect x="31.204" y=".1103" width=".89215" height="2.5675" stroke-width=".26956"/>
  <rect x="31.812" y=".015425" width=".89215" height="2.3296" stroke-width=".25677"/>
  <rect x="32.293" y="1.6554" width=".89215" height="2.5675" stroke-width=".26956"/>
  <rect x="32.293" y="1.6554" width=".89215" height="2.5675" stroke-width=".26956"/>
  <rect x="32.845" y=".0094152" width=".89215" height="2.473" stroke-width=".26456"/>
  <rect x="33.597" y=".93164" width=".89215" height="2.5675" stroke-width=".26956"/>
  <rect x="34.121" y=".0059739" width=".89215" height="2.4538" stroke-width=".26352"/>
  <rect x="67.29" y=".36143" width="3.8217" height="2.2965" stroke-width=".52765"/>
  <rect x="72.496" y=".39402" width="1.7334" height="2.5809" stroke-width=".37672"/>
  <rect x="73.218" y="2.1083" width="1.9" height="1.7657" stroke-width=".32623"/>
  <rect x="71.491" y="1.5808" width="2.2161" height="2.1096" stroke-width=".3851"/>
  <rect x="74.555" y="3.0387" width="1.1541" height="1.8144" stroke-width=".25774"/>
  <rect x="72.243" y="2.9611" width="1.7002" height="1.9365" stroke-width=".32318"/>
  <rect x="67.69" y="1.8093" width="1.8477" height="1.9592" stroke-width=".33888"/>
  <rect x="70.668" y=".48616" width="2.6442" height="1.6859" stroke-width=".37605"/>
  <rect x="75.874" y="1.9022" width="2.0659" height="1.94" stroke-width=".35656"/>
  <rect x="72.473" y="4.03" width="1.0987" height="1.6668" stroke-width=".24102"/>
  <rect x="74.223" y=".16883" width="3.0169" height="1.4486" stroke-width=".37234"/>
  <rect x="74.065" y="1.1939" width="2.0535" height="1.996" stroke-width=".36058"/>
  <rect x="76.026" y="3.2473" width=".91242" height="1.1119" stroke-width=".17939"/>
  <rect x="77.03" y="3.3675" width=".76426" height="1.6285" stroke-width=".1987"/>
  <rect x="76.093" y=".83049" width="1.2489" height="1.3666" stroke-width=".23268"/>
  <rect x="77.217" y=".38078" width=".76426" height="1.6285" stroke-width=".1987"/>
  <rect x="77.815" y=".44986" width=".76426" height="1.6285" stroke-width=".1987"/>
  <rect x="78.388" y=".45443" width=".89368" height="2.881" stroke-width=".28579"/>
  <g stroke-width=".24949">
   <rect x="79.157" y=".46619" width=".76426" height="2.5675"/>
   <rect x="79.761" y="1.681" width=".76426" height="2.5675"/>
   <rect x="80.079" y="2.2049" width=".76426" height="2.5675"/>
   <rect x="81.154" y="1.5222" width=".76426" height="2.5675"/>
   <rect x="81.154" y="1.5222" width=".76426" height="2.5675"/>
  </g>
  <rect x="80.663" y="2.3377" width=".59863" height="2.6957" stroke-width=".22625"/>
  <rect x="81.154" y="1.5222" width=".76426" height="2.5675" stroke-width=".24949"/>
  <rect x="81.154" y="1.5222" width=".76426" height="2.5675" stroke-width=".24949"/>
  <rect x="81.796" y="3.018" width="1.008" height="2.5675" stroke-width=".28653"/>
  <rect x="82.517" y="2.4001" width=".76426" height="2.5675" stroke-width=".24949"/>
  <rect x="82.861" y="1.5993" width="1.3076" height="2.5675" stroke-width=".32634"/>
  <rect x="83.973" y="2.6721" width=".47981" height="2.5675" stroke-width=".19768"/>
  <g stroke-width=".25818">
   <rect x="84.307" y=".98216" width=".8184" height="2.5675"/>
   <rect x="84.712" y="1.4767" width=".8184" height="2.5675"/>
   <rect x="85.374" y=".67903" width=".8184" height="2.5675"/>
   <rect x="85.832" y="1.8407" width=".8184" height="2.5675"/>
   <rect x="86.332" y="1.2626" width=".8184" height="2.5675"/>
  </g>
  <rect x="85.968" y="3.767" width=".40582" height="1.1404" stroke-width=".12116"/>
  <g stroke-width=".25818">
   <rect x="86.739" y=".66984" width=".8184" height="2.5675"/>
   <rect x="87.54" y="1.4319" width=".8184" height="2.5675"/>
   <rect x="88.134" y="1.1139" width=".8184" height="2.5675"/>
  </g>
  <rect x="88.858" y=".43784" width=".6457" height="2.5675" stroke-width=".22933"/>
  <rect x="89.476" y=".23296" width=".8184" height="2.5675" stroke-width=".25818"/>
  <rect x="89.713" y="1.6454" width=".65093" height="2.5675" stroke-width=".23025"/>
  <rect x="90.124" y=".5329" width=".8184" height="2.5675" stroke-width=".25818"/>
  <rect x="90.915" y=".18718" width=".8184" height="2.5675" stroke-width=".25818"/>
  <rect x="91.716" y=".51141" width=".62316" height="2.5675" stroke-width=".22529"/>
  <rect x="92.313" y=".95839" width=".42446" height="2.5675" stroke-width=".18593"/>
  <rect x="92.63" y=".43155" width=".54458" height="2.5675" stroke-width=".21061"/>
  <rect x="93.134" y=".9395" width=".54458" height="2.5675" stroke-width=".21061"/>
  <g stroke-width=".23976">
   <rect x="93.419" y=".36357" width=".70577" height="2.5675"/>
   <rect x="93.984" y="1.5946" width=".70577" height="2.5675"/>
   <rect x="94.494" y=".44015" width=".70577" height="2.5675"/>
   <rect x="95.074" y="1.8405" width=".70577" height="2.5675"/>
  </g>
  <rect x="95.58" y=".60956" width="1.2451" height="2.5675" stroke-width=".31845"/>
  <g stroke-width=".22835">
   <rect x="96.603" y=".80494" width=".64023" height="2.5675"/>
   <rect x="97.126" y=".39788" width=".64023" height="2.5675"/>
   <rect x="97.48" y="2.1315" width=".64023" height="2.5675"/>
   <rect x="97.986" y=".014445" width=".64023" height="2.5675"/>
  </g>
  <g stroke-width=".26956">
   <rect x="98.522" y=".57766" width=".89215" height="2.5675"/>
   <rect x="99.13" y=".24485" width=".89215" height="2.5675"/>
   <rect x="99.637" y="2.2268" width=".89215" height="2.5675"/>
   <rect x="100.16" y=".3823" width=".89215" height="2.5675"/>
   <rect x="100.92" y="1.399" width=".89215" height="2.5675"/>
   <rect x="101.44" y=".35962" width=".89215" height="2.5675"/>
  </g>
  <rect x="34.769" y=".20803" width="1.6452" height="3.5827" stroke-width=".43242"/>
  <rect x="35.689" y="1.0667" width="1.474" height="5.4534" stroke-width=".50497"/>
  <rect x="36.578" y=".14756" width="1.6452" height="3.3866" stroke-width=".42041"/>
  <rect x="44.4" y="1.1159" width="2.1298" height="3.4009" stroke-width=".47935"/>
  <rect x="45.509" y=".11878" width="2.1104" height="3.098" stroke-width=".45541"/>
  <g stroke-width=".40641">
   <rect x="40.29" y="1.5701" width="1.531" height="3.4009"/>
   <rect x="40.327" y="1.5701" width="1.531" height="3.4009"/>
   <rect x="40.746" y="1.665" width="1.531" height="3.4009"/>
   <rect x="41.548" y="1.1906" width="1.531" height="3.4009"/>
   <rect x="40.498" y="2.6641" width="1.531" height="3.4009"/>
   <rect x="43.596" y="2.7286" width="1.531" height="3.4009"/>
   <rect x="43.609" y="2.7286" width="1.531" height="3.4009"/>
   <rect x="43.609" y="2.7286" width="1.531" height="3.4009"/>
   <rect x="43.609" y="2.7286" width="1.531" height="3.4009"/>
   <rect x="43.609" y="2.7286" width="1.531" height="3.4009"/>
  </g>
  <rect x="43.609" y="2.7286" width="1.531" height="5.0196" stroke-width=".49374"/>
  <rect x="46.888" y="2.0681" width="1.531" height="3.4009" stroke-width=".40641"/>
  <rect x="46.967" y=".066888" width="3.1851" height="3.4009" stroke-width=".5862"/>
  <rect x="49.11" y="2.6107" width="1.0036" height="4.7036" stroke-width=".38697"/>
  <rect x="49.94" y=".084387" width="1.4149" height="3.2732" stroke-width=".38329"/>
  <rect x="50.816" y=".54735" width="1.8599" height="3.4009" stroke-width=".44795"/>
  <rect x="51.728" y="2.1853" width="1.8599" height="3.4009" stroke-width=".44795"/>
  <rect x="52.375" y=".14135" width="2.5811" height="3.087" stroke-width=".50275"/>
  <rect x="53.819" y="2.8051" width="1.3411" height="6.3825" stroke-width=".52108"/>
  <rect x="54.594" y=".035724" width="1.616" height="4.0839" stroke-width=".45755"/>
  <rect x="54.594" y=".40619" width="1.616" height="3.5097" stroke-width=".42417"/>
  <g stroke-width=".51864">
   <rect x="55.491" y="1.2725" width="2.0763" height="4.0839"/>
   <rect x="55.491" y="1.2725" width="2.0763" height="4.0839"/>
   <rect x="56.465" y=".099138" width="2.0763" height="4.0839"/>
   <rect x="56.465" y=".099138" width="2.0763" height="4.0839"/>
  </g>
  <rect x="57.929" y=".1667" width="2.0763" height="3.0827" stroke-width=".4506"/>
  <rect x="59.464" y="2.0156" width="1.8005" height="4.0839" stroke-width=".48296"/>
  <rect x="59.464" y="2.0156" width="1.8005" height="4.0839" stroke-width=".48296"/>
  <rect x="59.464" y="1.6078" width="1.8005" height="6.4855" stroke-width=".60861"/>
  <rect x="60.89" y=".073795" width="1.8005" height="3.8952" stroke-width=".47167"/>
  <g stroke-width=".48296">
   <rect x="61.97" y=".13862" width="1.8005" height="4.0839"/>
   <rect x="61.97" y=".13862" width="1.8005" height="4.0839"/>
   <rect x="61.97" y=".13862" width="1.8005" height="4.0839"/>
  </g>
  <rect x="62.376" y=".13862" width="1.3942" height="4.0839" stroke-width=".42499"/>
  <rect x="62.853" y=".038116" width="1.8005" height="3.5466" stroke-width=".45007"/>
  <rect x="64.321" y=".96191" width="1.4222" height="4.0839" stroke-width=".42925"/>
  <rect x="65.459" y=".07" width="1.9837" height="3.772" stroke-width=".4872"/>
  <rect x="66.607" y="2.4951" width="1.5434" height="5.6668" stroke-width=".52672"/>
  <g stroke-width=".25818">
   <rect x="101.4" y=".20884" width=".8184" height="2.5675"/>
   <rect x="102.2" y=".97086" width=".8184" height="2.5675"/>
   <rect x="102.8" y=".65295" width=".8184" height="2.5675"/>
  </g>
  <rect x="103.52" y=".058703" width=".6457" height="2.4857" stroke-width=".22564"/>
  <rect x="104.14" y=".11337" width=".8184" height="2.2261" stroke-width=".2404"/>
  <rect x="104.37" y="1.1844" width=".65093" height="2.5675" stroke-width=".23025"/>
  <rect x="104.78" y=".071899" width=".8184" height="2.5675" stroke-width=".25818"/>
  <rect x=".22084" y=".0085142" width="105.55" height="1.7021" stroke-width="2.3873"/>
  <rect x="12.744" y=".64427" width="3.3317" height="2.5675" stroke-width=".52092"/>
  <rect x="16.255" y=".39584" width="1.008" height="2.5675" stroke-width=".28653"/>
  <rect x="80.276" y="1.0265" width="6.6448" height="2.1555" stroke-width=".67406"/>
  <rect x="95.013" y="1.2446" width="5.6627" height=".98453" stroke-width=".42054"/>
  <rect x="2.4492" y="1.7789" width="1.0505" height="4.0623" stroke-width=".36794"/>
 </g>
</svg>
