<?xml version="1.0" encoding="UTF-8" standalone="no"?>
<svg
   width="105.79mm"
   height="19.847mm"
   version="1.1"
   viewBox="0 0 105.79 19.847"
   id="svg20"
   sodipodi:docname="dripping-color.svg"
   inkscape:version="1.3 (1:1.3+202307231459+0e150ed6c4)"
   xmlns:inkscape="http://www.inkscape.org/namespaces/inkscape"
   xmlns:sodipodi="http://sodipodi.sourceforge.net/DTD/sodipodi-0.dtd"
   xmlns="http://www.w3.org/2000/svg"
   xmlns:svg="http://www.w3.org/2000/svg">
  <defs
     id="defs20" />
  <sodipodi:namedview
     id="namedview20"
     pagecolor="#ffffff"
     bordercolor="#000000"
     borderopacity="0.25"
     inkscape:showpageshadow="2"
     inkscape:pageopacity="0.0"
     inkscape:pagecheckerboard="0"
     inkscape:deskcolor="#d1d1d1"
     inkscape:document-units="mm"
     inkscape:zoom="9.5244668"
     inkscape:cx="149.1947"
     inkscape:cy="34.437623"
     inkscape:window-width="1920"
     inkscape:window-height="1136"
     inkscape:window-x="0"
     inkscape:window-y="0"
     inkscape:window-maximized="1"
     inkscape:current-layer="svg20"
     showgrid="false" />
  <path
     d="m 0.16662624,-0.07809266 c 0.075652,0.23839 0.19838296,-0.0185918 0.34738296,0.19386823 0.012223,0.01743 0.034976,0.04408 0.048859,0.06136 0.18428,0.22934 0.39314998,1.10459953 0.17018,1.70079953 -0.33407,0.89317 -0.19324,1.4142 0.38238,1.4142 0.4226,0 0.63728,-0.24211 0.58069,-0.93418 -0.00174,-0.021279 -0.00501,-0.055763 -0.00695,-0.077053 C 1.6635547,1.9989193 1.5176746,1.6868251 1.621887,1.2911998 1.8125771,0.56727663 2.2348922,0.45814995 2.4515187,0.41453186 3.1389228,0.27612194 3.0592698,1.1771499 3.539079,1.1706134 c 0.62583,0.08903 0.2440075,-0.77293319 1.2674778,-0.79910959 0.3310983,0.007758 0.8354798,0.00826 1.1566206,0.58758278 C 6.3221043,1.3817953 6.2663782,2.0654252 6.2456046,2.5685833 6.2662316,3.0054979 6.4400277,3.1116709 6.5872919,3.1143885 6.7242546,3.1169159 6.9764369,2.9690402 7.0065871,2.7117573 7.0272288,2.4083853 6.996048,2.105931 7.066345,1.8808434 7.2008474,1.3417985 7.7555119,1.0222262 8.2454597,0.88158956 8.9845383,0.66944141 10.045825,0.94935469 10.291841,1.5083981 c 0.06788,0.1585599 0.173467,0.6225558 0.454266,0.6673247 0.296479,0.025565 0.435001,-0.1136267 0.556567,-0.4312242 0.02249,-0.2030586 0.179099,-0.459836 0.308542,-0.5442531 0.431168,-0.37616992 1.283051,-0.41710576 1.847068,-0.25003981 0.412822,0.067112 0.800283,0.46073281 0.916603,1.14291281 0.11584,0.67935 0.20942,0.81481 0.56399,0.81481 0.24746,0 0.24135,-0.10635 0.43617,-0.89589 0.18283,-0.74096 0.33214,-0.8858 0.75242,-1.20829993 0.133404,-0.0597472 0.392442,-0.16340148 0.651791,-0.21598387 0.184971,-0.0375027 0.378057,-0.0354721 0.489651,-0.034641 0.156948,0.001169 0.436265,0.0451764 0.695348,0.15249403 0.346578,0.14356014 0.712443,0.33890527 0.937904,0.88772387 0.40711,0.9909922 0.555893,2.5507303 0.721627,2.8981573 0.249921,0.491314 0.388107,0.4508839 0.637378,-0.099446 0.172049,-0.440619 0.471386,-1.8639294 0.84732,-2.346351 0.712158,-0.934082 1.854056,-0.6654194 2.133761,-0.032675 0.349367,0.82605 0.676532,0.6953747 0.782052,0.6921916 0.35702,-0.01077 0.3951,-0.2105584 0.610268,-0.5674413 C 24.751679,1.9435232 24.76992,1.5452487 25.11943,1.2637535 25.32908,1.0561708 25.787372,0.88582635 26.192087,0.81808825 26.990788,0.68440856 28.387048,1.1169182 28.569364,2.474515 l 0.03757,0.47974 c 0.01137,0.46425 -0.04471,0.5146541 -0.01424,0.7620741 0.07169,0.58217 0.16434,0.88044 0.56456,0.88044 0.54614,0 0.65514,-0.2139741 0.70568,-1.2331141 -0.05758,-1.6411497 1.411438,-2.1308912 2.563383,-1.9143377 1.268512,0.2384668 1.721855,1.4392037 1.712143,2.5609575 0.06642,0.9662312 0.05479,1.8892461 0.283708,2.3253921 0.471389,0.8981336 1.312797,0.4853309 1.401943,-0.5856914 -0.123943,-1.8593466 0.685215,-3.2194645 2.770502,-3.2349111 1.796694,0.1332296 1.965623,1.7583175 2.001887,2.3432546 0.0098,0.1585636 0.05486,1.3797365 0.277827,1.5944835 0.421142,0.4056106 1.160594,0.1648082 1.225612,-0.096299 0.09235,-0.3708691 -0.07557,-0.8702424 0.533347,-1.777823 0.231098,-0.3444495 0.911367,-0.5626616 1.402577,-0.5602016 0.45413,0.00228 1.1026,0.033232 1.4522,0.27192 0.72817,0.49719 0.799507,1.0706819 0.68697,1.5832271 -0.174656,0.2868701 -0.317606,1.2528929 -0.0021,1.7715929 0.35158,0.42053 0.90408,0.63708 1.4339,0.28583 0.16201,-0.10741 0.30927,-0.26039 0.43092,-0.70775 0.05719,-0.2103 0.01615,-0.8617212 -0.241987,-1.2059981 -0.04321,-0.3231736 -0.0593,-0.6124345 -0.07117,-0.9242227 0.03532,-0.1986415 0.143813,-0.8730412 0.46539,-1.2143976 0.284986,-0.3090216 0.373496,-0.5731305 1.339727,-0.6547393 0.281802,-0.030942 0.58367,0.090565 0.776483,0.3238068 0.305239,0.3692421 0.424773,0.8884486 0.831083,0.8944181 0.56646,0.00832 0.413107,-0.9807411 1.254305,-1.2611861 1.992605,-0.4814435 1.769673,0.9797634 1.88219,2.3738899 0.05971,0.6617825 0.192219,1.0756533 0.203157,1.1542951 0.04052,0.2913466 0.592885,0.3764209 0.633402,-0.2541801 0.07112,-0.592652 0.230343,-1.2153804 0.47116,-1.37319 0.18874,-0.12368 0.20292,-0.15317 0.51324,-0.26543 0.07092,-0.025654 0.351451,-0.057476 0.513191,-0.045142 0.37966,0.028964 0.442474,0.084538 0.606204,0.182808 0.24974,0.1499 0.39679,0.3122427 0.491957,0.506069 0.167579,0.6022461 0.103961,1.1129729 0.434535,1.5428844 0.0737,0.063649 0.13448,0.043284 0.18884,-0.024096 0.04791,-0.059334 0.380198,-0.2637511 0.349686,-1.3149168 -0.02599,-0.8952728 0.766343,-1.5579623 1.005903,-1.6962623 0.33579,-0.19385 0.72757,-0.25146 1.0459,-0.25146 0.57103,0 1.3066,0.33499 1.5593,0.91725 0.21915,0.5506 0.297092,0.6486727 0.341882,1.1345627 0.01739,0.18875 -0.03187,0.7271171 -0.04187,0.9165473 -0.04004,0.7579558 0.904288,0.7606374 0.858964,0.062325 -0.002,-0.284544 0.0183,-0.3375449 -0.01878,-0.9476471 -0.01353,-0.2226439 0.06959,-1.0550486 0.279754,-1.5054886 0.271637,-0.7877011 0.799136,-1.0879024 1.627601,-1.0919589 0.58781,0.028006 0.77431,0.049572 1.099,0.26537 0.25043,0.12991 0.423549,0.5436679 0.501329,1.2413979 0.04458,0.39992 0.01508,0.7121289 -0.100162,1.1106589 -0.10739,0.37142 0.0057,0.66478 0.21996,0.86182 0.21837,0.2008 0.415457,0.2515161 0.647947,0.038501 0.18086,-0.16571 0.323527,-0.5193595 0.230898,-0.850014 -0.0617,-0.3445975 -0.04626,-0.290792 -0.196403,-0.831242 -0.11588,-0.41723 0.01689,-0.9481669 0.283581,-1.3032169 0.27831,-0.37062 0.6147,-0.6357 1.0438,-0.68992 0.65387,-0.13332 1.1019,-0.050407 1.6724,0.37997 0.68972,0.52025 1.0664,0.26649 1.5657,-0.13279 0.48794,-0.39021 0.833,-0.42948 1.455,-0.16584 0.47318,0.20057 0.68057,0.20586 1.2702,0.033045 0.92251,-0.27039 1.6177,-0.11811 2.2378,0.48987 0.98494,0.96559 2.3025,0.93382 3.1299,-0.07527 0.17202,-0.2098 0.39385,-0.43365 0.49315,-0.49751 0.25726,-0.16546 0.74621,-0.17467 0.95246,0.00202 0.29971,0.25675 0.11238,0.81944 0.16132,1.88 0.0045,0.35728 0.05016,1.1725 0.23116,1.3312 0.17047,0.14948 0.28364,0.41475 0.63942,0.39775 0.354,-0.01691 0.51931,-0.25487 0.62702,-0.49169 0.12671,-0.27861 0.08455,-0.3501 0.11341,-0.84216 0.03886,-0.66251 -0.1201,-1.2312 -0.07152,-1.7217 0.04982,-0.50302 0.31215,-0.92522 0.76314,-1.3864 0.80261,-0.82067 1.0601,-0.73075 1.6215,-0.8722 0.93307,-0.10532 1.7615,0.23808 2.1356,0.523 1.1908,0.90676 0.122194,2.1301802 0.824514,3.1248802 0.12724,0.059179 0.25026,0.19161 0.38303,0.19372 0.19208,0.00305 0.355665,-0.059133 0.528065,-0.1729934 0.15916,-0.10512 0.31527,-0.7999434 0.269841,-1.3706325 0.139,-1.2643 -0.52151,-2.2053443 1.22996,-2.3032443 0.45903,0 0.66835,0.096961 1.3266,0.61379 0.17431,0.13686 0.378405,0.1969319 0.452395,0.1969319 0.07399,0 0.369445,-0.079412 0.657475,-0.2397619 0.65632,-0.36538 0.91863,-0.41413 1.2995,-0.24203 0.41085,0.18567 0.55227,0.58538 0.55227,1.5605 0,0.69721 0.02999,0.84178 0.18107,0.87509 0.37301,0.082237 0.45428,-0.095258 0.45428,-0.9935 0,-0.80913 0.02253,-0.90122 0.29558,-1.2074 0.57386,-0.64344 1.4217,-0.78433 2.5915,-0.43081 1.32909,0.40169 1.66924,-0.55477831 1.93388,-0.74111366 0.14671,-0.10329881 0.3721,-0.22069485 0.57149,-0.28750271 0.19938,-0.0668079 0.37662,-0.0735071 0.5673,-0.0735522 0.29272,-6.924e-5 0.5041,0.0183008 0.87092,0.11249779 0.14914,0.0382994 0.57024,0.27913426 0.63863,0.79629398 0.0399,0.30163 -0.0206,1.0121742 0.38456,1.2312742 0.40511,0.2191 0.58657,-0.56813 0.62301,-0.67514 0.12851,-0.68414 -0.018,-1.06454912 0.43623,-1.55664906 0.087,-0.0819614 0.35084,-0.19012958 0.47341,-0.26991341 0.0572,-0.03724890333 0.0692,-0.0527227 0.0776,-0.0730337 0.004,-0.009389 0.002,-0.0216165 0.0127,-0.0342666 z"
     fill="#cbc4b9"
     filter="url(#filter121)"
     id="path19"
     sodipodi:nodetypes="ccccsscssccscscsscccscssscssssccccsscsccsscscsczssssscccssccccssssscsscsccsssscsscssscsscscscccssscssscsssssccccssccssscsssccszasssccsscc" />
  <path
     d="m 58.895273,9.1279121 c 0,0.32598 -0.22723,0.5902399 -0.50753,0.5902399 -0.2803,0 -0.50753,-0.2642599 -0.50753,-0.5902399 0,-0.32598 0.259506,-1.3531743 0.49106,-1.3950445 0.145544,-0.026318 0.524,1.0690045 0.524,1.3950445 z"
     fill="#cbc4b9"
     stroke-linecap="round"
     stroke-linejoin="bevel"
     stroke-width="0.56684"
     id="path20"
     sodipodi:nodetypes="sssss" />
  <path
     id="path1"
     style="fill:#cbc4b9;stroke-width:0.698261;stroke-linecap:round;stroke-linejoin:bevel"
     d="m 20.492524,6.99624 c 0,0.4406897 -0.271534,0.7979393 -0.606489,0.7979391 -0.334954,2e-7 -0.606489,-0.3572494 -0.606489,-0.7979391 0,-0.4406895 0.437483,-1.4311691 0.644713,-1.4636742 0.146915,-0.023045 0.568265,1.0229847 0.568265,1.4636742 z"
     sodipodi:nodetypes="sssss" />
</svg>
