<?xml version="1.0" encoding="UTF-8" standalone="no"?>
<svg
   width="105.79mm"
   height="19.847mm"
   version="1.1"
   viewBox="0 0 105.79 19.847"
   id="svg20"
   sodipodi:docname="dripping-color.svg"
   inkscape:version="1.3 (1:1.3+202307231459+0e150ed6c4)"
   xmlns:inkscape="http://www.inkscape.org/namespaces/inkscape"
   xmlns:sodipodi="http://sodipodi.sourceforge.net/DTD/sodipodi-0.dtd"
   xmlns="http://www.w3.org/2000/svg"
   xmlns:svg="http://www.w3.org/2000/svg">
  <defs
     id="defs20" />
  <sodipodi:namedview
     id="namedview20"
     pagecolor="#ffffff"
     bordercolor="#000000"
     borderopacity="0.25"
     inkscape:showpageshadow="2"
     inkscape:pageopacity="0.0"
     inkscape:pagecheckerboard="0"
     inkscape:deskcolor="#d1d1d1"
     inkscape:document-units="mm"
     inkscape:zoom="22.627417"
     inkscape:cx="382.89832"
     inkscape:cy="-3.8890873"
     inkscape:window-width="1920"
     inkscape:window-height="1136"
     inkscape:window-x="0"
     inkscape:window-y="0"
     inkscape:window-maximized="1"
     inkscape:current-layer="svg20" />
  <g
     transform="translate(-.10931 -10.738)"
     fill="#666"
     id="g19">
    <g
       transform="matrix(.78023 0 0 .77335 -37.273 -108.54)"
       opacity=".07"
       stroke-width=".78714"
       aria-label="oxtreet bh"
       id="g9">
      <path
         d="m78.665 149.16q0 0.44906 0.16596 0.83955 0.17572 0.3905 0.46859 0.68337 0.30263 0.29286 0.69312 0.45882t0.8298 0.16596q0.44907 0 0.83956-0.16596 0.40026-0.16596 0.69312-0.45882 0.29287-0.29287 0.45883-0.68337 0.17572-0.39049 0.17572-0.83955 0-0.44907-0.17572-0.83956-0.16596-0.39049-0.45883-0.68336t-0.69312-0.45883q-0.39049-0.16596-0.83956-0.16596-0.4393 0-0.8298 0.16596-0.39049 0.16596-0.69312 0.45883-0.29287 0.29287-0.46859 0.68336-0.16596 0.39049-0.16596 0.83956zm-2.6065 0q0-0.986 0.37097-1.8548 0.38073-0.86885 1.025-1.5132 0.65407-0.65407 1.5132-1.025 0.86884-0.38073 1.8548-0.38073t1.8548 0.38073q0.86884 0.37097 1.5132 1.025 0.64431 0.64431 1.0153 1.5132 0.38073 0.86884 0.38073 1.8548 0 0.98599-0.38073 1.8548-0.37097 0.85909-1.0153 1.5034-0.64431 0.64431-1.5132 1.025-0.86884 0.37097-1.8548 0.37097t-1.8548-0.37097q-0.85908-0.38073-1.5132-1.025-0.64431-0.64431-1.025-1.5034-0.37097-0.86884-0.37097-1.8548z"
         id="path1" />
      <path
         d="m89.576 151-2.4406 2.4406q-0.18548 0.18548-0.4393 0.2831-0.24406 0.0879-0.49788 0.0879-0.27334 0-0.5174-0.0976-0.2343-0.10739-0.41978-0.27334-0.17572-0.17573-0.28311-0.40026-0.09762-0.23429-0.09762-0.48811 0-0.24406 0.08786-0.47836 0.09762-0.23429 0.29287-0.42954l2.4699-2.4894-2.587-2.5968q-0.18548-0.18548-0.27334-0.41002-0.08786-0.23429-0.08786-0.47835 0-0.26358 0.09762-0.49788 0.10739-0.23429 0.28311-0.41978 0.17572-0.18548 0.41002-0.29287 0.2343-0.10738 0.49788-0.10738 0.25382 0.01 0.48812 0.0976 0.24406 0.0879 0.4393 0.28311l2.5675 2.587 2.5382-2.5577q0.19525-0.19525 0.4393-0.29287 0.25382-0.10739 0.50764-0.10739 0.27334 0 0.50764 0.11715 0.2343 0.10738 0.41002 0.29287 0.17572 0.17572 0.27334 0.41978t0.09762 0.50764q0 0.23429-0.08786 0.45883-0.0781 0.22453-0.25382 0.40025l-2.5968 2.6065 2.4308 2.4308q0.19525 0.19525 0.28311 0.42954 0.09762 0.2343 0.09762 0.48812 0 0.26358-0.10739 0.49787-0.09762 0.2343-0.27334 0.41002t-0.41002 0.28311q-0.2343 0.0976-0.49788 0.0976-0.25382 0-0.49788-0.0879-0.2343-0.0976-0.41978-0.28311z"
         id="path2" />
      <path
         d="m93.976 142.84q0-0.27334 0.10738-0.50764 0.10738-0.24405 0.28311-0.41977 0.17572-0.18549 0.41002-0.28311 0.24406-0.10739 0.50764-0.10739t0.50764 0.10739q0.25382 0.0976 0.4393 0.27334 0.18548 0.17572 0.29287 0.41978 0.11715 0.24406 0.11715 0.5174v1.2496h2.997q0.26358 0 0.49788 0.10738 0.24406 0.0976 0.41978 0.28311 0.18548 0.17572 0.2831 0.41978 0.10739 0.2343 0.10739 0.49788t-0.10739 0.48811q-0.0976 0.22454-0.2831 0.40026-0.17572 0.16596-0.41978 0.26358-0.2343 0.0976-0.49788 0.0976h-2.997v2.5284q0 0.44907 0.1562 0.83956 0.16596 0.39049 0.44907 0.68336t0.66384 0.45883 0.8298 0.16596q0.40025 0 0.74194-0.10739 0.34168-0.10738 0.60527-0.35144 0.21477-0.19525 0.44906-0.31239 0.24406-0.12691 0.53693-0.12691 0.21477 0 0.42954 0.0976 0.21477 0.0879 0.37097 0.25382 0.16596 0.16596 0.26358 0.39049 0.10739 0.21477 0.10739 0.46859 0 0.30263-0.12691 0.5955-0.11715 0.29287-0.34168 0.5174-0.60527 0.58574-1.3765 0.87861-0.77122 0.29287-1.6596 0.29287-0.98599 0-1.8548-0.37097-0.86885-0.38073-1.5132-1.025t-1.025-1.5132q-0.37097-0.86884-0.37097-1.8548z"
         id="path3" />
      <path
         d="m101.87 149.25q0.0293-0.99576 0.42954-1.8744 0.40026-0.8786 1.0641-1.5327 0.6736-0.66383 1.5522-1.0446 0.99937-0.3905 1.8841-0.41002h0.0879q0.64431 0.01 0.98599 0.37097 0.35144 0.3612 0.35144 0.91765 0 0.28311-0.10738 0.5174-0.10739 0.2343-0.29287 0.41002-0.17572 0.17572-0.42954 0.27335-0.24406 0.0976-0.51741 0.0976-0.48811 0-0.92742 0.18548-0.42954 0.18549-0.76146 0.50764-0.32215 0.32216-0.5174 0.76146-0.19524 0.42954-0.20501 0.92742v3.1728q0 0.27335-0.0976 0.50764-0.0976 0.2343-0.27334 0.41002-0.17572 0.16596-0.41002 0.26358-0.22453 0.0976-0.48812 0.0976-0.26358 0-0.50764-0.0976-0.24405-0.0976-0.42954-0.26358-0.17572-0.17572-0.2831-0.41002-0.10739-0.23429-0.10739-0.50764z"
         id="path4" />
      <path
         d="m110.01 150.32q0.31239 0.50764 0.81027 0.80051t1.0934 0.29287q0.38073 0 0.60526-0.0586 0.2343-0.0683 0.41978-0.17572 0.19525-0.12691 0.38073-0.17572 0.19525-0.0586 0.37097-0.0586 0.27334 0 0.49787 0.10738 0.2343 0.10739 0.40026 0.29287 0.17572 0.18549 0.27334 0.42954 0.0976 0.24406 0.0976 0.50764 0 0.33192-0.18549 0.63455-0.18548 0.29287-0.56621 0.51741-0.38073 0.21477-0.95671 0.35144-0.56621 0.12691-1.3374 0.12691-0.986 0-1.8646-0.37097-0.86885-0.38073-1.5229-1.025-0.65408-0.64431-1.0348-1.5034-0.38073-0.86884-0.38073-1.8548 0-0.99576 0.38073-1.8646 0.38073-0.86885 1.0348-1.5132 0.65407-0.65408 1.5229-1.025 0.8786-0.37097 1.8646-0.37097 0.97623 0 1.8353 0.37097 0.86885 0.3612 1.5132 1.0055 0.65407 0.63455 1.0348 1.4936 0.39049 0.85908 0.41002 1.8353 0 0.55645-0.36121 0.89813-0.35144 0.33192-0.91765 0.33192zm4.0318-2.1672q-0.27334-0.58574-0.82003-0.93718-0.54669-0.35145-1.2593-0.35145-0.73217 0-1.2496 0.37097-0.5174 0.36121-0.78098 0.91766z"
         id="path5" />
      <path
         d="m119.01 150.32q0.31239 0.50764 0.81027 0.80051t1.0934 0.29287q0.38073 0 0.60526-0.0586 0.23429-0.0683 0.41978-0.17572 0.19524-0.12691 0.38073-0.17572 0.19524-0.0586 0.37097-0.0586 0.27334 0 0.49787 0.10738 0.2343 0.10739 0.40026 0.29287 0.17572 0.18549 0.27334 0.42954 0.0976 0.24406 0.0976 0.50764 0 0.33192-0.18549 0.63455-0.18548 0.29287-0.56621 0.51741-0.38073 0.21477-0.95671 0.35144-0.56621 0.12691-1.3374 0.12691-0.986 0-1.8646-0.37097-0.86885-0.38073-1.5229-1.025-0.65408-0.64431-1.0348-1.5034-0.38073-0.86884-0.38073-1.8548 0-0.99576 0.38073-1.8646 0.38073-0.86885 1.0348-1.5132 0.65407-0.65408 1.5229-1.025 0.8786-0.37097 1.8646-0.37097 0.97623 0 1.8353 0.37097 0.86884 0.3612 1.5132 1.0055 0.65407 0.63455 1.0348 1.4936 0.39049 0.85908 0.41002 1.8353 0 0.55645-0.36121 0.89813-0.35144 0.33192-0.91765 0.33192zm4.0318-2.1672q-0.27335-0.58574-0.82003-0.93718-0.54669-0.35145-1.2593-0.35145-0.73218 0-1.2496 0.37097-0.5174 0.36121-0.78098 0.91766z"
         id="path6" />
      <path
         d="m125.35 142.84q0-0.27334 0.10738-0.50764 0.10739-0.24405 0.28311-0.41977 0.17572-0.18549 0.41002-0.28311 0.24405-0.10739 0.50764-0.10739 0.26358 0 0.50764 0.10739 0.25382 0.0976 0.4393 0.27334 0.18548 0.17572 0.29287 0.41978 0.11715 0.24406 0.11715 0.5174v1.2496h2.997q0.26359 0 0.49788 0.10738 0.24406 0.0976 0.41978 0.28311 0.18548 0.17572 0.28311 0.41978 0.10738 0.2343 0.10738 0.49788t-0.10738 0.48811q-0.0976 0.22454-0.28311 0.40026-0.17572 0.16596-0.41978 0.26358-0.23429 0.0976-0.49788 0.0976h-2.997v2.5284q0 0.44907 0.15619 0.83956 0.16596 0.39049 0.44907 0.68336t0.66384 0.45883 0.82979 0.16596q0.40026 0 0.74194-0.10739 0.34168-0.10738 0.60526-0.35144 0.21477-0.19525 0.44907-0.31239 0.24405-0.12691 0.53692-0.12691 0.21477 0 0.42954 0.0976 0.21478 0.0879 0.37097 0.25382 0.16596 0.16596 0.26358 0.39049 0.10739 0.21477 0.10739 0.46859 0 0.30263-0.12691 0.5955-0.11715 0.29287-0.34168 0.5174-0.60526 0.58574-1.3765 0.87861-0.77122 0.29287-1.6596 0.29287-0.98599 0-1.8548-0.37097-0.86884-0.38073-1.5132-1.025-0.64432-0.64431-1.025-1.5132-0.37097-0.86884-0.37097-1.8548z"
         id="path7" />
      <path
         d="m136.29 142.26q0-0.28311 0.0976-0.52717 0.10739-0.25382 0.28311-0.42954 0.17572-0.18548 0.41001-0.28311 0.24406-0.10738 0.51741-0.10738 0.27334 0 0.50764 0.10738 0.24405 0.0976 0.41001 0.28311 0.17573 0.17572 0.27335 0.42954 0.0976 0.24406 0.0976 0.52717v2.997q0.1562-0.18548 0.40026-0.34168 0.25382-0.15619 0.54668-0.27334 0.30264-0.11715 0.61503-0.18549 0.32216-0.0683 0.61503-0.0683 0.97623 0 1.8451 0.38073 0.86885 0.37097 1.5132 1.025 0.64431 0.64431 1.0153 1.5132 0.38073 0.86884 0.38073 1.8548 0 0.98599-0.38073 1.8548-0.37097 0.85909-1.0153 1.5034t-1.5132 1.025q-0.86884 0.37097-1.8451 0.37097-0.986 0-1.8548-0.37097-0.85909-0.38073-1.5132-1.025t-1.0348-1.5034q-0.37097-0.86884-0.37097-1.8548zm2.6065 6.902q0 0.44906 0.16596 0.83955 0.17572 0.3905 0.46859 0.68337 0.30263 0.29286 0.69313 0.45882 0.40025 0.16596 0.83956 0.16596 0.44906 0 0.83955-0.16596 0.3905-0.16596 0.68336-0.45882 0.29287-0.29287 0.45883-0.68337 0.17572-0.39049 0.17572-0.83955 0-0.44907-0.17572-0.83956-0.16596-0.39049-0.45883-0.68336-0.29286-0.29287-0.68336-0.45883-0.39049-0.16596-0.83955-0.16596-0.43931 0-0.83956 0.16596-0.3905 0.16596-0.69313 0.45883-0.29287 0.29287-0.46859 0.68336-0.16596 0.39049-0.16596 0.83956z"
         id="path8" />
      <path
         d="m152.48 149.02q0-0.42954-0.13667-0.81027-0.12691-0.38073-0.37097-0.65407-0.24406-0.28311-0.5955-0.43931-0.34168-0.16596-0.77122-0.16596t-0.87861 0.14644q-0.4393 0.14643-0.81027 0.41002-0.3612 0.26358-0.5955 0.62478-0.23429 0.36121-0.23429 0.78099v3.6023q0 0.26358-0.0976 0.49788-0.0976 0.23429-0.27334 0.41001-0.17572 0.17572-0.41002 0.28311-0.23429 0.0976-0.50764 0.0976-0.27334 0-0.5174-0.0976-0.2343-0.10739-0.41002-0.28311t-0.2831-0.41001q-0.0976-0.2343-0.0976-0.49788v-10.299q0-0.27335 0.0976-0.50764 0.10738-0.24406 0.2831-0.41978 0.18549-0.17572 0.41978-0.27335 0.24406-0.10738 0.50764-0.10738t0.49788 0.10738q0.23429 0.0976 0.41002 0.27335 0.17572 0.17572 0.27334 0.41978 0.10739 0.23429 0.10739 0.50764v3.202q0.53692-0.47835 1.1715-0.75169 0.64431-0.28311 1.3472-0.28311 0.94694 0 1.767 0.37097 0.82003 0.3612 1.4155 0.99575 0.60526 0.62479 0.94694 1.4741 0.34169 0.83956 0.34169 1.7963v3.534q0 0.27334-0.10739 0.50764-0.0976 0.22453-0.28311 0.40025-0.17572 0.16596-0.41001 0.26358-0.2343 0.0976-0.49788 0.0976t-0.50764-0.0976q-0.2343-0.0976-0.41002-0.26358-0.17572-0.17572-0.2831-0.40025-0.0976-0.2343-0.0976-0.50764z"
         id="path9" />
    </g>
    <g
       transform="matrix(.39297 -.041893 .041893 .39297 -10.46 -30.389)"
       opacity=".07"
       id="g13">
      <rect
         transform="rotate(-32.187)"
         x="-9.0389"
         y="106.06"
         width="2.915"
         height="2.9503"
         rx="2.5568"
         ry="2.5568"
         id="rect9" />
      <rect
         transform="rotate(-31.385)"
         x="-6.863"
         y="94.005"
         width="1.6132"
         height="3.7578"
         rx="2.0721"
         ry="2.0721"
         stroke="#7286d3"
         stroke-width=".4502"
         id="rect10" />
      <rect
         transform="rotate(-31.385)"
         x="-6.3529"
         y="97.029"
         width=".59307"
         height="3.9074"
         rx="1.1112"
         ry="1.1112"
         id="rect11" />
      <rect
         transform="rotate(-31.385)"
         x="-6.8167"
         y="100.2"
         width="1.6132"
         height="3.7578"
         rx="2.0721"
         ry="2.0721"
         stroke="#7286d3"
         stroke-width=".4502"
         id="rect12" />
      <rect
         transform="rotate(-31.385)"
         x="-6.3066"
         y="103.22"
         width=".59307"
         height="3.9074"
         rx="1.1112"
         ry="1.1112"
         id="rect13" />
      <circle
         cx="55.882"
         cy="102.79"
         r="8.7803"
         id="circle13" />
    </g>
    <g
       transform="matrix(-.39297 -.041893 -.041893 .39297 116.25 -30.389)"
       opacity=".07"
       id="g18">
      <rect
         transform="rotate(-32.187)"
         x="-9.0389"
         y="106.06"
         width="2.915"
         height="2.9503"
         rx="2.5568"
         ry="2.5568"
         id="rect14" />
      <rect
         transform="rotate(-31.385)"
         x="-6.863"
         y="94.005"
         width="1.6132"
         height="3.7578"
         rx="2.0721"
         ry="2.0721"
         stroke="#7286d3"
         stroke-width=".4502"
         id="rect15" />
      <rect
         transform="rotate(-31.385)"
         x="-6.3529"
         y="97.029"
         width=".59307"
         height="3.9074"
         rx="1.1112"
         ry="1.1112"
         id="rect16" />
      <rect
         transform="rotate(-31.385)"
         x="-6.8167"
         y="100.2"
         width="1.6132"
         height="3.7578"
         rx="2.0721"
         ry="2.0721"
         stroke="#7286d3"
         stroke-width=".4502"
         id="rect17" />
      <rect
         transform="rotate(-31.385)"
         x="-6.3066"
         y="103.22"
         width=".59307"
         height="3.9074"
         rx="1.1112"
         ry="1.1112"
         id="rect18" />
      <circle
         cx="55.882"
         cy="102.79"
         r="8.7803"
         id="circle18" />
    </g>
  </g>
  <path
     d="m 0.25753006,-0.00441185 c 0.075652,0.23839 0.19838296,-0.0185918 0.34738296,0.19386824 0.012223,0.01743 0.034976,0.04408 0.048859,0.06136 0.18428,0.22934 0.39314998,1.10459941 0.17018,1.70079941 -0.33407,0.89317 -0.19324,1.4142 0.38237998,1.4142 0.4226,0 0.63728,-0.24211 0.58069,-0.93418 C 1.785282,2.4103568 1.782012,2.3758728 1.780072,2.3545828 1.7544585,2.0726 1.6085784,1.7605058 1.7127908,1.3648805 1.9034809,0.64095744 2.325796,0.53183076 2.5424225,0.48821267 3.2298266,0.34980275 3.1501736,1.2508306 3.6299828,1.2442941 c 0.62583,0.08903 0.2440075,-0.77293308 1.2674778,-0.79910948 0.3310983,0.007758 0.921927,0.27590716 1.2430678,0.85523038 0.2239075,0.4039188 0.4560832,1.009565 0.3228187,1.4648168 -0.10763,0.36778 -0.30731,0.53101 -0.2792,0.86162 0.029618,0.15146 0.073577,0.37268 0.23342,0.4466 0.17197,0.07953 0.31787,0.10014 0.54248,-0.021705 0.098503,-0.053436 0.18956,-0.22535 0.196,-0.41858 0.00839,-0.25174 -0.091606,-0.55455 -0.14598,-0.83086 -0.021611,-0.50564 0.2448949,-1.049169 0.5489549,-1.256769 0.29445,-0.20104 0.71683,-0.5319499 1.4267,-0.5319499 0.97573,0 1.2601,0.1772999 1.4779,0.3443499 0.11708,0.089823 0.32837,0.25133 0.46928,0.4483 0.12059,0.16856 0.15026,0.22418 0.16875,0.38486 0.05382,0.29203 -0.02213,1.6682 0.24625,1.7643 0.63072,0.22591 0.60016,-0.55952 0.61672,-1.0758 l 0.02773,-0.90645 c 0.0076,-0.14125 0.09317,-0.26899 0.20052,-0.3611 l 0.06115,-0.05247 c 0.08407,-0.072138 0.23088,-0.17522 0.33494,-0.21292 0.13869,-0.050256 0.24522,-0.057275 0.3666,-0.058102 0.05044,-3.44e-4 0.13222,-3.325e-4 0.18257,0.00199 0.49898,0.022971 0.79675,0.24659 0.91307,0.92877 0.11584,0.67935 0.20942,0.81481 0.56399,0.81481 0.24746,0 0.24135,-0.10635 0.43617,-0.89589 0.18283,-0.74096 0.33214,-0.8858 0.75242,-1.20829983 0.22855,-0.10235991 0.44518,-0.3108497 1.1246,-0.2935597 0.96562,0.02457 1.3951,0.23065976 1.6897,0.50934953 0.223461,0.2208162 0.292695,0.2796865 0.42012,0.5169126 0.283194,0.5960831 0.397029,0.9069891 0.312273,1.4351033 -0.01837,0.027718 -0.213287,0.3580921 -0.252773,0.7462895 -0.04118,0.4048647 0.07734,0.8698412 0.276813,0.9817446 0.32274,0.18102 0.56605,0.1365 0.62458,0.12864 0.06837,-0.00918 0.43712,-0.015487 0.54212,-0.38188 0.22555,-0.54607 0.01133,-0.94517 -0.23629,-1.5263 -0.3548,-0.93835 0.8529,-1.4734 1.2354,-1.5495 0.92763,-0.18641 1.7048,0.63709 1.9628,1.1255 0.21316,0.40334 0.08769,0.76664 0.04142,0.95513 -0.06383,0.4055968 -0.228448,0.6932286 -0.316087,0.9855493 -0.14814,0.4941262 -0.193699,0.9210678 -0.0149,1.3673507 0.28702,0.71639 1.1845,0.96336 1.641,0.27118 C 25.030178,5.9351443 25.21256,5.5251227 25.060649,4.8189071 24.978979,4.4392532 24.72254,3.8297808 24.668588,3.6539458 24.423366,2.8547373 25.065832,1.8953149 25.4005,1.6413471 c 0.20965,-0.2075826 0.758343,-0.4187932 1.163058,-0.4865313 0.422139,-0.070654 0.816131,5.391e-4 1.00649,0.061047 0.300699,0.095581 0.75137,0.3605527 0.90131,0.6411327 0.10511,0.24646 0.15011,0.40228 0.18891,0.6912 l 0.03757,0.47974 c 0.01137,0.46425 -0.10086,0.69854 -0.07039,0.94596 0.07169,0.58217 0.16434,0.88044 0.56456,0.88044 0.54614,0 0.71129,-0.39786 0.76183,-1.417 -0.02848,-0.81173 0.44343,-1.3466 0.64729,-1.4937 0.46548,-0.27157 1.4314,-0.89362 2.23,-0.4572 0.56374,0.30807 0.56364,0.37854 0.95202,0.75665 0.46757,0.45521 0.66001,1.1131 0.53971,1.8934 -0.52742,1.1496 -0.56448,2.0925 -0.08179,2.3698 0.39957,0.22957 0.74103,0.30615 1.1623,0.097964 0.26225,-0.1296 0.42202,-0.52158 0.46196,-0.84713 0.02767,-0.22547 -0.12078,-0.99962 -0.2266,-1.2599 -0.10828,-0.36862 -0.1898,-0.58882 0.04846,-1.1957 0.42222,-1.0754 1.4343,-1.329 2.708,-1.329 1.0682,0 2.1738,0.7335 2.4593,1.5075 0.13182,0.18799 0.51855,0.9883 0.4859,1.9506 -0.23439,0.67788 -0.39848,1.061 -0.45566,1.5937 -0.05823,0.54241 0.15419,1.3325 1.1278,1.3346 0.53288,-0.07587 0.72062,-0.25963 0.96219,-0.74287 0.14152,-0.29475 -0.01772,-0.94061 -0.18865,-1.535 -0.15885,-0.55235 -0.20063,-1.0488 0.11729,-1.3942 0.28091,-0.30519 0.73219,-0.59715 1.2234,-0.59469 0.45413,0.00228 1.1026,0.033232 1.4522,0.27192 0.72817,0.49719 1.134976,1.4726495 0.836252,1.8360843 -0.196304,0.2457607 -0.466888,1.0000357 -0.151338,1.5187357 0.35158,0.42053 0.90408,0.63708 1.4339,0.28583 0.16201,-0.10741 0.30927,-0.26039 0.43092,-0.70775 0.05719,-0.2103 -0.0142,-0.7222211 -0.294993,-1.026114 -0.08349,-0.1694464 -0.239841,-0.361306 -0.08387,-0.927406 0.15796,-0.60449 0.50946,-1.0921 0.96875,-1.4966 0.47882,-0.47167 1.2008,-0.66764 1.5895,-0.76193 0.59352,-0.144 1.6988,-0.26212 2.371,-0.025285 0.67437,0.23759 1.1151,0.68386 1.3575,1.0538 0.14465,0.22081 0.69316,1.2743 0.70495,1.9712 -0.03173,0.28354 -0.04946,0.22292 -0.10363,0.443 -0.0325,0.067023 -0.05343,0.1288254 -0.07756,0.1547263 -0.210702,0.2261361 -0.270744,0.3968856 -0.279334,0.5337386 -0.0074,0.1176814 0.01699,0.3354318 0.136581,0.4625518 0.33058,0.26654 0.75586,0.21388 0.89418,0.064101 0.16676,-0.18057 0.25407,-0.26783 0.22857,-0.61458 -0.0079,-0.10801 -0.101321,-0.2508457 -0.13385,-0.3008958 -0.03251,-0.050015 -0.188157,-0.1817509 -0.205217,-0.2986209 -0.01826,-0.125 -0.0302,-0.3531 -0.0027,-0.47371 0.02578,-0.11317 0.05287,-0.28552 0.11028,-0.38435 0.11303,-0.19457 0.17518,-0.39167 0.36358,-0.51513 0.18874,-0.12368 0.20292,-0.15317 0.51324,-0.26543 0.07092,-0.025654 0.351451,-0.057476 0.513191,-0.045142 0.37966,0.028964 0.442474,0.084538 0.606204,0.182808 0.24974,0.1499 0.450871,0.337436 0.546038,0.5312623 0.05771,0.676125 0.04988,1.0877796 0.380454,1.5176911 0.0737,0.063649 0.13448,0.043284 0.18884,-0.024096 0.04787,-0.059334 0.380162,-0.2637509 0.34965,-1.3149166 -0.02599,-0.8952728 0.766343,-1.5579623 1.005903,-1.6962623 0.33579,-0.19385 0.72757,-0.25146 1.0459,-0.25146 0.57103,0 1.3066,0.33499 1.5593,0.91725 0.21915,0.5506 0.37892,0.78681 0.42371,1.2727 0.01739,0.18875 -0.04306,0.60671 -0.1237,0.77841 -0.04288,0.091291 -0.17806,0.28408 -0.26403,0.45342 -0.30674,0.60423 -0.39239,1.627 0.2682,1.9367 0.33878,0.15883 0.41372,0.11278 0.68236,0.09756 0.17763,-0.01006 0.41462,-0.12452 0.53582,-0.26638 C 64.353519,8.45292 64.007064,7.4528044 63.75059,7.1061319 63.62094,6.8848219 63.628439,6.94808 63.467179,6.61463 c -0.11511,-0.23793 -0.288,-0.45652 -0.19435,-1.0559 0.03444,-0.22038 0.13171,-0.74476 0.34187,-1.1952 0.17154,-0.36764 0.49894,-0.67535 0.5638,-0.71452 0.43602,-0.26333 0.59935,-0.4045 1.2502,-0.37349 0.58781,0.028006 0.77431,0.049572 1.099,0.26537 0.25043,0.12991 0.56851,0.55257 0.64629,1.2503 0.04458,0.39992 -0.28376,0.69607 -0.399,1.0946 -0.10739,0.37142 0.0057,0.66478 0.21996,0.86182 0.21837,0.2008 0.67251,0.17147 0.905,-0.041545 0.18086,-0.16571 0.275563,-0.4890462 0.182934,-0.8197007 -0.0617,-0.3445975 -0.192684,-0.2504193 -0.342784,-0.7908693 -0.11588,-0.41723 0.10806,-0.93165 0.37475,-1.2867 0.27831,-0.37062 0.6147,-0.6357 1.0438,-0.68992 0.65387,-0.13332 1.1019,-0.050407 1.6724,0.37997 0.68972,0.52025 1.0664,0.26649 1.5657,-0.13279 0.48794,-0.39021 0.833,-0.42948 1.455,-0.16584 0.47318,0.20057 0.68057,0.20586 1.2702,0.033045 0.92251,-0.27039 1.6177,-0.11811 2.2378,0.48987 0.98494,0.96559 2.3025,0.93382 3.1299,-0.07527 0.17202,-0.2098 0.39385,-0.43365 0.49315,-0.49751 0.25726,-0.16546 0.74621,-0.17467 0.95246,0.00202 0.29971,0.25675 0.11238,0.81944 0.16132,1.88 0.0045,0.35728 0.05016,1.1725 0.23116,1.3312 0.17047,0.14948 0.28364,0.41475 0.63942,0.39775 0.354,-0.01691 0.51931,-0.25487 0.62702,-0.49169 0.12671,-0.27861 0.08455,-0.3501 0.11341,-0.84216 0.03886,-0.66251 -0.1201,-1.2312 -0.07152,-1.7217 0.04982,-0.50302 0.31215,-0.92522 0.76314,-1.3864 0.80261,-0.82067 1.0601,-0.73075 1.6215,-0.8722 0.93307,-0.10532 1.7615,0.23808 2.1356,0.523 1.1908,0.90676 0.122194,2.1301802 0.824514,3.1248802 0.12724,0.059179 0.25026,0.19161 0.38303,0.19372 0.19208,0.00305 0.355665,-0.059133 0.528065,-0.1729934 0.15916,-0.10512 0.31527,-0.7999434 0.269841,-1.3706325 0.139,-1.2643 -0.52151,-2.2053443 1.22996,-2.3032443 0.45903,0 0.66835,0.096961 1.3266,0.61379 0.17431,0.13686 0.378405,0.1969319 0.452395,0.1969319 0.07399,0 0.369445,-0.079412 0.657475,-0.2397619 0.65632,-0.36538 0.91863,-0.41413 1.2995,-0.24203 0.41085,0.18567 0.55227,0.58538 0.55227,1.5605 0,0.69721 0.02999,0.84178 0.18107,0.87509 0.37301,0.082237 0.45428,-0.095258 0.45428,-0.9935 0,-0.80913 0.02253,-0.90122 0.29558,-1.2074 0.57386,-0.64344 1.4217,-0.78433 2.5915,-0.43081 1.329091,0.40169 1.669241,-0.5547782 1.933881,-0.74111355 0.14671,-0.10329881 0.3721,-0.22069485 0.57149,-0.28750271 0.19938,-0.0668079 0.37661,-0.0735071 0.5673,-0.0735522 0.29271,-6.924e-5 0.5041,0.0183008 0.87091,0.11249779 0.14915,0.0382994 0.57024,0.27913426 0.63864,0.79629387 0.0399,0.30163 -0.0206,1.0121742 0.38456,1.2312742 0.40511,0.2191 0.58657,-0.56813 0.62301,-0.67514 0.12851,-0.68414 -0.018,-1.06454901 0.43623,-1.55664895 0.087,-0.0819614 0.35084,-0.19012957 0.47341,-0.26991341 0.0572,-0.03724894 0.0692,-0.05272266 0.0776,-0.07303373 0.004,-0.0093888 0.002,-0.02161648 0.0127,-0.03426656 z"
     fill="#cbc4b9"
     filter="url(#filter121)"
     id="path19"
     sodipodi:nodetypes="ccccsscssccscccsccssccccccsscscssscscccscscccccsccsscsscccssccssccscccsccscccsscccssccccscccsscscsccssscsccsssscssssscccsssscsscscscccssscssscsssssccccssccssscsssccszasssccsscc" />
  <path
     d="m 58.837918,9.6202011 c 0,0.32598 -0.22723,0.5902399 -0.50753,0.5902399 -0.2803,0 -0.50753,-0.2642599 -0.50753,-0.5902399 0,-0.32598 0.259506,-1.3531743 0.49106,-1.3950445 0.145544,-0.026318 0.524,1.0690045 0.524,1.3950445 z"
     fill="#cbc4b9"
     stroke-linecap="round"
     stroke-linejoin="bevel"
     stroke-width="0.56684"
     id="path20"
     sodipodi:nodetypes="sssss" />
</svg>
