<svg width="50.865" height="35.697" version="1.1" viewBox="0 0 50.865 35.697" xmlns="http://www.w3.org/2000/svg">
 <g transform="matrix(.088121 0 0 .088121 -13.789 .82695)" fill="#737373" stroke="#737373">
  <path d="m446.69 0c-154.69 0-280.07 82.001-280.07 182.56v10.699c0 106.7 109.61 193.11 280.06 193.11 171.52 0 280.12-86.39 280.12-193.1l-0.0312-10.709c-5e-5 -100.56-125.39-182.56-280.08-182.56zm-1.0156 19.32c4.5494 0 9.0715 0.07304 13.564 0.21875 4.4929 0.14571 8.9558 0.36251 13.387 0.65039s8.83 0.64769 13.193 1.0742 8.6922 0.92078 12.982 1.4824c4.2902 0.56164 8.5423 1.1896 12.754 1.8828 4.2116 0.69322 8.3823 1.4522 12.51 2.2734 4.1274 0.82127 8.2122 1.7046 12.25 2.6504 4.0378 0.94578 8.0281 1.9528 11.971 3.0195 3.9426 1.0668 7.8359 2.1947 11.678 3.3789s7.6336 2.4245 11.369 3.7227c3.7356 1.2981 7.4152 2.654 11.039 4.0625 3.6238 1.4085 7.1908 2.8714 10.697 4.3867s6.9522 3.0825 10.336 4.7012c3.3837 1.6187 6.7056 3.2874 9.9609 5.0059 3.2553 1.7185 6.445 3.4861 9.5664 5.3008 3.1214 1.8147 6.1742 3.6765 9.1562 5.584s5.8934 3.8608 8.7305 5.8574c2.8371 1.9966 5.6005 4.0368 8.2871 6.1191 2.6866 2.0823 5.2975 4.2067 7.8281 6.3711s4.9805 4.3703 7.3496 6.6133c2.3692 2.243 4.6573 4.5237 6.8594 6.8418 2.2021 2.3181 4.3181 4.6729 6.3476 7.0625s3.9728 4.8139 5.8242 7.2715c1.8515 2.4576 3.6114 4.9486 5.2793 7.4707 1.6678 2.522 3.244 5.0752 4.7227 7.6582 1.4787 2.583 2.8605 5.1956 4.1445 7.8359 1.284 2.6404 2.4689 5.3077 3.5527 8.002s2.0672 5.4156 2.9453 8.1602c0.87814 2.7446 1.6515 5.5133 2.3184 8.3047 0.66689 2.7914 1.2276 5.6048 1.6777 8.4395 0.45012 2.8346 0.78975 5.6901 1.0176 8.5644 0.22782 2.8744 0.34375 5.7691 0.34375 8.6797 0 2.9106-0.11599 5.8034-0.34375 8.6777-0.22777 2.8744-0.56757 5.7298-1.0176 8.5644-0.45001 2.8346-1.011 5.6481-1.6777 8.4395-0.66673 2.7913-1.4404 5.5602-2.3184 8.3047-0.87794 2.7445-1.8597 5.464-2.9434 8.1582-1.0836 2.6942-2.2689 5.3636-3.5527 8.0039-1.2838 2.6403-2.6661 5.2531-4.1445 7.8359-1.4784 2.5829-3.0531 5.1363-4.7207 7.6582-1.6676 2.5219-3.4281 5.0113-5.2793 7.4687-1.8512 2.4575-3.793 4.882-5.8223 7.2715-2.0292 2.3895-4.1458 4.7446-6.3476 7.0625-2.2018 2.3179-4.4886 4.5989-6.8574 6.8418-2.3688 2.2429-4.8192 4.447-7.3496 6.6113-2.5304 2.1643-5.1398 4.289-7.8262 6.3711-2.6864 2.0821-5.4503 4.1226-8.2871 6.1191-2.8368 1.9965-5.7467 3.9482-8.7285 5.8555-2.9818 1.9073-6.035 3.7694-9.1562 5.584-3.1212 1.8146-6.3112 3.5825-9.5664 5.3008-3.2552 1.7183-6.5754 3.3873-9.959 5.0059-3.3836 1.6185-6.8295 3.186-10.336 4.7012-3.5064 1.5152-7.0735 2.9784-10.697 4.3867-3.6238 1.4084-7.3054 2.7626-11.041 4.0606s-7.5252 2.5405-11.367 3.7246-7.735 2.3103-11.678 3.377c-3.9428 1.0666-7.9346 2.0739-11.973 3.0195-4.038 0.94568-8.1222 1.8292-12.25 2.6504-4.1278 0.82118-8.2997 1.5784-12.512 2.2715s-8.4651 1.3212-12.756 1.8828c-4.2907 0.56157-8.6185 1.0579-12.982 1.4844-4.3639 0.42647-8.7637 0.78441-13.195 1.0723s-8.8949 0.5047-13.389 0.65039-9.018 0.22071-13.568 0.22071c-4.5504 0-9.0747-0.075-13.568-0.22071-4.4937-0.14569-8.9572-0.36254-13.389-0.65039s-8.8296-0.64579-13.193-1.0723c-4.3638-0.42648-8.6919-0.92281-12.982-1.4844-4.2905-0.56157-8.5441-1.1897-12.756-1.8828-4.2118-0.69314-8.3823-1.4503-12.51-2.2715-4.1275-0.82117-8.2123-1.7047-12.25-2.6504-4.0377-0.94567-8.0283-1.9529-11.971-3.0195-3.9424-1.0666-7.8362-2.1929-11.678-3.377s-7.632-2.4266-11.367-3.7246c-3.7352-1.298-7.4157-2.6522-11.039-4.0606-3.6234-1.4084-7.1893-2.8715-10.695-4.3867-3.506-1.5152-6.9528-3.0826-10.336-4.7012-3.3831-1.6185-6.7023-3.2875-9.957-5.0059s-6.4437-3.4862-9.5644-5.3008c-3.1208-1.8146-6.173-3.6767-9.1543-5.584-2.9814-1.9073-5.8921-3.859-8.7285-5.8555-2.8364-1.9965-5.5992-4.037-8.2852-6.1191-2.6859-2.0822-5.2943-4.2068-7.8242-6.3711-2.5299-2.1643-4.9812-4.3684-7.3496-6.6113-2.3684-2.2429-4.6541-4.5239-6.8555-6.8418-2.2014-2.3179-4.3188-4.673-6.3476-7.0625s-3.9695-4.814-5.8203-7.2715c-1.8508-2.4575-3.6121-4.9468-5.2793-7.4687-1.6672-2.522-3.2406-5.0753-4.7188-7.6582-1.4781-2.5829-2.861-5.1956-4.1445-7.8359-1.2835-2.6403-2.4674-5.3097-3.5508-8.0039-1.0834-2.6942-2.0656-5.4137-2.9434-8.1582-0.87775-2.7445-1.6518-5.5134-2.3184-8.3047-0.66659-2.7913-1.2259-5.6048-1.6758-8.4395-0.44991-2.8346-0.78987-5.6901-1.0176-8.5644s-0.34375-5.7671-0.34375-8.6777c0-2.9106 0.11598-5.8053 0.34375-8.6797 0.22776-2.8744 0.56757-5.7298 1.0176-8.5644 0.45-2.8347 1.011-5.6481 1.6777-8.4395 0.66673-2.7914 1.4404-5.5601 2.3184-8.3047 0.87793-2.7446 1.8598-5.4659 2.9434-8.1602 1.0836-2.6942 2.269-5.3616 3.5527-8.002 1.2838-2.6404 2.6661-5.253 4.1445-7.8359 1.4784-2.583 3.0512-5.1362 4.7188-7.6582 1.6675-2.5221 3.4282-5.0131 5.2793-7.4707 1.8511-2.4576 3.7931-4.8819 5.8223-7.2715 2.0292-2.3896 4.146-4.7444 6.3476-7.0625 2.2017-2.3181 4.4887-4.5988 6.8574-6.8418 2.3687-2.243 4.8194-4.4489 7.3496-6.6133 2.5302-2.1644 5.14-4.2888 7.8262-6.3711 2.6862-2.0823 5.4485-4.1225 8.2852-6.1191 2.8366-1.9966 5.7469-3.95 8.7285-5.8574s6.0353-3.7693 9.1562-5.584c3.121-1.8147 6.3096-3.5823 9.5644-5.3008 3.2549-1.7185 6.5758-3.3872 9.959-5.0059 3.3832-1.6187 6.8299-3.1858 10.336-4.7012s7.0719-2.9782 10.695-4.3867c3.6234-1.4085 7.3039-2.7644 11.039-4.0625 3.7352-1.2981 7.5257-2.5384 11.367-3.7227 3.8415-1.1842 7.7336-2.3121 11.676-3.3789 3.9422-1.0668 7.9332-2.0738 11.971-3.0195 4.0375-0.94578 8.1209-1.8291 12.248-2.6504 4.1272-0.82127 8.2984-1.5802 12.51-2.2734 4.2114-0.69322 8.4639-1.3212 12.754-1.8828 4.29-0.56164 8.6173-1.0559 12.98-1.4824s8.7626-0.78633 13.193-1.0742 8.8938-0.50468 13.387-0.65039c4.4929-0.14571 9.015-0.21875 13.564-0.21875z" stroke-width="1.0017"/>
  <path d="m427.46 302.13a21.72 21.72 0 0 1-21.83-20.87c0-1-0.13-3.66-2.39-3.66a4.19 4.19 0 0 0-2.65 1.39c-2.6 2.42-5.9 4.86-10.72 4.86a18.83 18.83 0 0 1-7.07-1.54c-12.46-5-12.62-13.6-12.12-17a3.12 3.12 0 0 0-0.46-2.63l-0.76-0.67h-0.78a3.76 3.76 0 0 0-2.16 0.87 18.18 18.18 0 0 1-10.58 3.77 16.22 16.22 0 0 1-5.9-1.17c-16.4-6.38-15.12-21.86-14.32-26.52a2.25 2.25 0 0 0-0.7-2.16l-1.17-1-1.08 1.05a17.05 17.05 0 1 1 5.05-14.42l0.59 4.56 2.51-3.87c0.28-0.45 7.17-10.86 19.82-10.84a25.2 25.2 0 0 1 7.4 1.15c10.08 3.08 11.79 12.24 12.06 16 0.18 2.22 1.76 2.33 2.07 2.33a2.82 2.82 0 0 0 2-1 17.15 17.15 0 0 1 12.5-5.27 23.75 23.75 0 0 1 9.39 2.12c16 6.88 8.77 27.26 8.68 27.47-1.38 3.37-1.43 4.85-0.13 5.72l0.62 0.3h0.48a11.7 11.7 0 0 0 3.1-0.81 27.44 27.44 0 0 1 8.55-1.88 21.87 21.87 0 1 1 0 43.73m169.89-98.2c-26.48-23.1-87.68-76.31-104.25-88.74-9.48-7.12-15.92-10.89-21.6-12.58a35.66 35.66 0 0 0-10.6-1.64 44.75 44.75 0 0 0-13.49 2.24c-10.71 3.4-21.38 11.88-31.7 20.08l-0.53 0.42c-9.61 7.65-19.55 15.55-27.07 17.24a46.36 46.36 0 0 1-10 1.11c-8.42 0-16-2.44-18.83-6.06-0.47-0.6-0.16-1.57 0.94-3l0.13-0.19 23.3-25.1c18.23-18.23 35.46-35.43 75.12-36.34h2c24.69 0 49.39 11.07 52.15 12.35 23.15 11.3 47 17 71.06 17.05 25 0 50.87-6.19 78-18.69-3-2.55-6.19-5-9.44-7.47-23.85 10.34-46.59 15.56-68.52 15.55-22.4 0-44.77-5.39-66.5-16-1.14-0.56-28.41-13.4-56.77-13.41h-2.23c-33.31 0.79-52.09 12.61-64.71 23-12.27 0.3-22.86 3.27-32.29 5.88-8.4 2.35-15.66 4.38-22.76 4.37-2.9 0-8.16-0.27-8.62-0.28-8.15-0.25-49.19-10.31-81.82-22.68-3.33 2.37-6.54 4.81-9.66 7.29 34.1 14 75.6 24.78 88.69 25.63 3.64 0.24 7.52 0.65 11.4 0.67 8.66 0 17.31-2.43 25.67-4.78 5-1.39 10.41-2.89 16.15-4-1.54 1.49-3.06 3-4.6 4.55l-23.66 25.61c-1.86 1.87-5.91 6.88-3.24 13.07a16.55 16.55 0 0 0 6.22 6.9c5.65 3.81 15.75 6.37 25.13 6.37a45 45 0 0 0 10-1.05c9.92-2.22 20.33-10.51 31.34-19.27 8.8-7 21.27-15.84 30.82-18.44a35.11 35.11 0 0 1 8.59-1.18 21.35 21.35 0 0 1 2.21 0.12c6.33 0.81 12.42 3 23.32 11.13 19.43 14.6 105.39 89.8 106.24 90.54a16.53 16.53 0 0 1 5.16 12.64c-0.2 4.39-2.64 8.28-6.87 11a21 21 0 0 1-11.28 3.51 18.8 18.8 0 0 1-10-2.88c-0.32-0.26-29.76-27.27-40.6-36.35-1.72-1.43-3.41-2.72-5.09-2.72a2.85 2.85 0 0 0-2.26 1.06c-1.71 2.11 0.2 5 2.46 6.93l34.4 34.58c0 0.05 4.29 4 4.75 9.33 0.28 5.73-2.47 10.52-8.17 14.26a22.1 22.1 0 0 1-12.2 4 17.79 17.79 0 0 1-9.8-3l-4.94-4.87c-9-8.87-18.33-18-25.14-23.74-1.67-1.38-3.45-2.66-5.14-2.66a3 3 0 0 0-2.17 0.91c-0.77 0.88-1.32 2.43 0.62 5a16.66 16.66 0 0 0 1.74 1.93l25.1 28.21c0.22 0.25 5.18 6.13 0.57 12l-0.89 1.13a24.31 24.31 0 0 1-2.33 2.24c-4.29 3.52-10 3.89-12.27 3.89a18.75 18.75 0 0 1-3.39-0.28c-2.48-0.44-4.14-1.14-4.95-2.09l-0.3-0.31c-1.37-1.42-14-14.34-24.5-23.09-1.38-1.15-3.1-2.6-4.89-2.6a3 3 0 0 0-2.26 1c-2.07 2.27 1 5.67 2.36 6.9l21.42 23.62a5.37 5.37 0 0 1-0.82 1.43c-0.77 1.08-3.37 3.68-11.13 4.65a22.32 22.32 0 0 1-2.84 0.17c-8 0-16.56-3.89-21-6.22a31.59 31.59 0 0 0 3.12-13.5 32 32 0 0 0-31.93-32h-1.15c0.56-8-0.57-23.29-16.21-30a33.52 33.52 0 0 0-13.35-2.94 26.89 26.89 0 0 0-9.79 1.78 26.79 26.79 0 0 0-15.64-13.29 35.13 35.13 0 0 0-11.45-2 30.26 30.26 0 0 0-17.86 5.7 26.93 26.93 0 0 0-40.09-2.24c-6.66-5.09-33.12-21.89-103.88-38-3.42-0.78-11.29-3-16.11-4.45a116.68 116.68 0 0 0-1.8 11.61s13 3.14 15.62 3.72c72.28 16.05 96.18 32.75 100.21 35.9a27.1 27.1 0 0 0 25 37.51 26.53 26.53 0 0 0 5-0.45c2.26 11 9.45 19.32 20.44 23.6a27 27 0 0 0 9.66 1.87 25 25 0 0 0 6.17-0.77c2 5.16 6.59 11.58 16.81 15.72a28.27 28.27 0 0 0 10.63 2.2 23.84 23.84 0 0 0 8.26-1.47 31.91 31.91 0 0 0 52.4 10.2c5.15 2.87 16 8.06 27 8.07a36 36 0 0 0 4.09-0.26c10.93-1.38 16-5.66 18.35-9a13.39 13.39 0 0 0 1.12-1.85 30.85 30.85 0 0 0 8.67 1.35c6 0 11.69-2 17.47-6.24s9.73-10 10.31-15a0.91 0.91 0 0 0 0-0.23 28.75 28.75 0 0 0 5.85 0.6 32.44 32.44 0 0 0 18-5.7c11.14-7.29 13.07-16.83 12.89-23.08a28.84 28.84 0 0 0 5.93 0.62 31.11 31.11 0 0 0 16.82-5.17 24.6 24.6 0 0 0 11.68-19 25.65 25.65 0 0 0-3.7-15.37c18.65-8 61.3-23.6 111.51-34.92a115.65 115.65 0 0 0-1.57-11.57 640.06 640.06 0 0 0-117.44 38.16" stroke-width="6"/>
 </g>
</svg>
