<svg width="111.47mm" height="26.349mm" version="1.1" viewBox="0 0 111.47 26.349" xmlns="http://www.w3.org/2000/svg">
<g>
<g transform="translate(-1.4904 -3.269)" stroke-width=".81305">
  <rect x="25.208" y="16.768" width="3.1537" height="5.7724" rx=".098558" ry=".098558"/>
  <rect x="25.208" y="10.344" width="3.1537" height="5.7724" rx=".098558" ry=".098558"/>
  <rect x="25.208" y="23.191" width="3.1537" height="5.7724" rx=".098558" ry=".098558"/>
  <rect x="25.208" y="3.9132" width="3.1537" height="5.7724" rx=".098558" ry=".098558"/>
</g>
<rect transform="rotate(-38.272)" x="-1.4075" y="12.247" width="2.6473" height="2.6794" rx="1.0104" ry="1.0104" stroke-width=".90818"/>
<path d="m0.71215 0.72503c-0.41943 0.32149-0.45715 0.94464-0.12149 1.3826l1.0801 1.4091c0.33569 0.43796 0.94606 0.5619 1.3655 0.24041 0.41943-0.32149 0.45679-0.94191 0.12109-1.3799l-1.0801-1.4091c-0.33569-0.43796-0.94566-0.5646-1.3651-0.2431zm0.24833 0.32398c0.22474-0.17227 0.57654-0.11466 0.79281 0.16748l1.0801 1.4091c0.21627 0.28216 0.1793 0.63528-0.045449 0.80755-0.22474 0.17226-0.5769 0.11741-0.79318-0.16475l-1.0801-1.4091c-0.21627-0.28216-0.17893-0.63802 0.045818-0.81029z" color="#000000" style="-inkscape-stroke:none"/>
<rect transform="rotate(-37.47)" x="-.14558" y="3.959" width=".53861" height="3.5486" rx=".43912" ry=".43912" stroke-width=".90818"/>
<path d="m4.1667 5.1645c-0.41943 0.32149-0.45561 0.94346-0.11994 1.3814l1.0801 1.4091c0.33569 0.43796 0.94566 0.5646 1.3651 0.2431s0.45715-0.94464 0.12149-1.3826l-1.0801-1.4091c-0.33569-0.43796-0.94722-0.56341-1.3666-0.24192zm0.24952 0.32553c0.22474-0.17227 0.5769-0.11741 0.79318 0.16474l1.0801 1.4091c0.21627 0.28216 0.17893 0.63802-0.045818 0.81029s-0.57654 0.11466-0.79281-0.16749l-1.0801-1.4091c-0.21627-0.28216-0.1793-0.63528 0.045449-0.80755z" color="#000000" style="-inkscape-stroke:none"/>
<rect transform="rotate(-37.47)" x="-.10353" y="9.5818" width=".53861" height="3.5486" rx=".43912" ry=".43912" stroke-width=".90818"/>
<circle transform="rotate(-6.0851)" cx="11.722" cy="18.575" r="7.9741" stroke-width=".90818"/>
<path d="m30.704 14.651q0 0.50194 0.1855 0.9384 0.19641 0.43647 0.52376 0.76382 0.33826 0.32735 0.77473 0.51285t0.92749 0.1855q0.50194 0 0.9384-0.1855 0.44738-0.1855 0.77473-0.51285t0.51285-0.76382q0.19641-0.43646 0.19641-0.9384t-0.19641-0.9384q-0.1855-0.43646-0.51285-0.76382-0.32735-0.32735-0.77473-0.51285-0.43647-0.1855-0.9384-0.1855-0.49102 0-0.92749 0.1855-0.43646 0.1855-0.77473 0.51285-0.32735 0.32735-0.52376 0.76382-0.1855 0.43647-0.1855 0.9384zm-2.9134 0q0-1.1021 0.41464-2.0732 0.42555-0.97114 1.1457-1.6913 0.73108-0.73108 1.6913-1.1457 0.97114-0.42556 2.0732-0.42556t2.0732 0.42556q0.97114 0.41464 1.6913 1.1457 0.72017 0.72017 1.1348 1.6913 0.42555 0.97114 0.42555 2.0732 0 1.1021-0.42555 2.0732-0.41464 0.96022-1.1348 1.6804-0.72017 0.72017-1.6913 1.1457-0.97114 0.41464-2.0732 0.41464t-2.0732-0.41464q-0.96022-0.42555-1.6913-1.1457-0.72017-0.72017-1.1457-1.6804-0.41464-0.97114-0.41464-2.0732z"/>
<path d="m42.718 16.702-2.7279 2.7279q-0.20732 0.20732-0.49102 0.31644-0.27279 0.09821-0.55649 0.09821-0.30553 0-0.57832-0.10912-0.26188-0.12003-0.4692-0.30553-0.19641-0.19641-0.31644-0.44738-0.10912-0.26188-0.10912-0.54558 0-0.27279 0.0982-0.53467 0.10912-0.26188 0.32735-0.48011l2.7606-2.7825-2.8916-2.9025q-0.20732-0.20732-0.30553-0.45829-0.0982-0.26188-0.0982-0.53467 0-0.29461 0.10912-0.55649 0.12003-0.26188 0.31644-0.4692t0.45829-0.32735 0.55649-0.12003q0.2837 0.01091 0.54558 0.10912 0.27279 0.0982 0.49102 0.31644l2.8698 2.8916 2.837-2.8588q0.21823-0.21823 0.49102-0.32735 0.2837-0.12003 0.56741-0.12003 0.30552 0 0.5674 0.13094 0.26188 0.12003 0.45829 0.32735 0.19641 0.19641 0.30553 0.4692 0.10912 0.27279 0.10912 0.56741 0 0.26188-0.09821 0.51285-0.08729 0.25097-0.2837 0.44738l-2.9025 2.9134 2.717 2.717q0.21823 0.21823 0.31644 0.48011 0.10912 0.26188 0.10912 0.54558 0 0.29461-0.12003 0.55649-0.10912 0.26188-0.30553 0.45829t-0.45829 0.31644q-0.26188 0.10912-0.55649 0.10912-0.2837 0-0.55649-0.09821-0.26188-0.10912-0.4692-0.31644z"/>
<path d="m47.454 7.591q0-0.30553 0.12003-0.5674 0.12003-0.27279 0.31644-0.4692 0.19641-0.20732 0.45829-0.31644 0.27279-0.12003 0.56741-0.12003t0.5674 0.12003q0.2837 0.10912 0.49102 0.30553t0.32735 0.4692q0.13094 0.27279 0.13094 0.57832v1.3967h3.3499q0.29461 0 0.55649 0.12003 0.27279 0.10912 0.4692 0.31644 0.20732 0.19641 0.31644 0.4692 0.12003 0.26188 0.12003 0.55649t-0.12003 0.54558q-0.10912 0.25097-0.31644 0.44738-0.19641 0.1855-0.4692 0.29461-0.26188 0.10912-0.55649 0.10912h-3.3499v2.8261q0 0.50194 0.17459 0.9384 0.1855 0.43647 0.50194 0.76382t0.74199 0.51285 0.92749 0.1855q0.44738 0 0.82928-0.12003 0.38191-0.12003 0.67652-0.39282 0.24006-0.21823 0.50194-0.34917 0.27279-0.14185 0.60014-0.14185 0.24006 0 0.48011 0.10912 0.24006 0.0982 0.41464 0.2837 0.1855 0.1855 0.29462 0.43647 0.12003 0.24006 0.12003 0.52376 0 0.33826-0.14185 0.66561-0.13094 0.32735-0.38191 0.57832-0.67652 0.6547-1.5385 0.98205-0.86202 0.32735-1.855 0.32735-1.1021 0-2.0732-0.41464-0.97114-0.42555-1.6913-1.1457-0.72017-0.72017-1.1457-1.6913-0.41464-0.97114-0.41464-2.0732z"/>
<path d="m56.097 14.749q0.03274-1.113 0.48011-2.095 0.44738-0.98205 1.1894-1.7131 0.7529-0.74199 1.735-1.1675 0.99296-0.43647 2.1059-0.45829h0.0982q0.72017 0.01091 1.1021 0.41464 0.39282 0.40373 0.39282 1.0257 0 0.31644-0.12003 0.57832t-0.32735 0.45829q-0.19641 0.19641-0.48011 0.30553-0.27279 0.10912-0.57832 0.10912-0.54558 0-1.0366 0.20732-0.48011 0.20732-0.85111 0.5674-0.36008 0.36008-0.57832 0.85111-0.21823 0.48011-0.22914 1.0366v3.5463q0 0.30553-0.10912 0.56741t-0.30553 0.45829q-0.19641 0.1855-0.45829 0.29461-0.25097 0.10912-0.54558 0.10912-0.29462 0-0.5674-0.10912-0.27279-0.10912-0.48011-0.29461-0.19641-0.19641-0.31644-0.45829t-0.12003-0.56741z"/>
<path d="m62.391 18.297q0.34917 0.5674 0.90566 0.89475t1.2221 0.32735q0.42555 0 0.67652-0.06547 0.26188-0.07638 0.4692-0.19641 0.21823-0.14185 0.42555-0.19641 0.21823-0.06547 0.41464-0.06547 0.30553 0 0.55649 0.12003 0.26188 0.12003 0.44738 0.32735 0.19641 0.20732 0.30553 0.48011t0.10912 0.56741q0 0.371-0.20732 0.70926-0.20732 0.32735-0.63288 0.57832-0.42555 0.24006-1.0693 0.39282-0.63288 0.14185-1.4949 0.14185-1.1021 0-2.0841-0.41464-0.97114-0.42555-1.7022-1.1457-0.73108-0.72017-1.1566-1.6804-0.42555-0.97114-0.42555-2.0732 0-1.113 0.42555-2.0841 0.42555-0.97114 1.1566-1.6913 0.73108-0.73108 1.7022-1.1457 0.98205-0.41464 2.0841-0.41464 1.0912 0 2.0514 0.41464 0.97114 0.40373 1.6913 1.1239 0.73108 0.70926 1.1566 1.6695 0.43647 0.96022 0.45829 2.0514 0 0.62196-0.40373 1.0039-0.39282 0.371-1.0257 0.371zm4.5065-2.4224q-0.30553-0.6547-0.91658-1.0475-0.61105-0.39282-1.4076-0.39282-0.81837 0-1.3967 0.41464-0.57832 0.40373-0.87293 1.0257z"/>
<path d="m68.357 13.843q0.34917 0.5674 0.90567 0.89475 0.55649 0.32735 1.2221 0.32735 0.42555 0 0.67652-0.06547 0.26188-0.07638 0.4692-0.19641 0.21823-0.14185 0.42555-0.19641 0.21823-0.06547 0.41464-0.06547 0.30553 0 0.55649 0.12003 0.26188 0.12003 0.44738 0.32735 0.19641 0.20732 0.30552 0.48011 0.10912 0.27279 0.10912 0.5674 0 0.371-0.20732 0.70926-0.20732 0.32735-0.63288 0.57832-0.42555 0.24006-1.0693 0.39282-0.63288 0.14185-1.4949 0.14185-1.1021 0-2.0841-0.41464-0.97114-0.42555-1.7022-1.1457-0.73108-0.72017-1.1566-1.6804-0.42555-0.97114-0.42555-2.0732 0-1.113 0.42555-2.0841 0.42555-0.97114 1.1566-1.6913 0.73108-0.73108 1.7022-1.1457 0.98205-0.41464 2.0841-0.41464 1.0912 0 2.0514 0.41464 0.97114 0.40373 1.6913 1.1239 0.73108 0.70926 1.1566 1.6695 0.43646 0.96022 0.45829 2.0514 0 0.62196-0.40373 1.0039-0.39282 0.371-1.0257 0.371zm4.5065-2.4224q-0.30553-0.6547-0.91658-1.0475-0.61105-0.39282-1.4076-0.39282-0.81837 0-1.3967 0.41464-0.57832 0.40373-0.87293 1.0257z"/>
<path d="m75.478 7.591q0-0.30553 0.12003-0.5674 0.12002-0.27279 0.31644-0.4692 0.19641-0.20732 0.45829-0.31644 0.27278-0.12003 0.56741-0.12003 0.29461 0 0.56741 0.12003 0.2837 0.10912 0.49102 0.30553 0.20733 0.19641 0.32735 0.4692 0.13094 0.27279 0.13094 0.57832v1.3967h3.3499q0.29462 0 0.55649 0.12003 0.27279 0.10912 0.4692 0.31644 0.20733 0.19641 0.31644 0.4692 0.12003 0.26188 0.12003 0.55649t-0.12003 0.54558q-0.10911 0.25097-0.31644 0.44738-0.19641 0.1855-0.4692 0.29461-0.26187 0.10912-0.55649 0.10912h-3.3499v2.8261q0 0.50194 0.17459 0.9384 0.1855 0.43647 0.50194 0.76382t0.742 0.51285 0.9275 0.1855q0.44737 0 0.82929-0.12003 0.38191-0.12003 0.67652-0.39282 0.24006-0.21823 0.50194-0.34917 0.27279-0.14185 0.60014-0.14185 0.24006 0 0.48011 0.10912 0.24005 0.0982 0.41464 0.2837 0.1855 0.1855 0.29461 0.43647 0.12003 0.24006 0.12003 0.52376 0 0.33826-0.14185 0.66561-0.13094 0.32735-0.38191 0.57832-0.67652 0.6547-1.5385 0.98205-0.86202 0.32735-1.855 0.32735-1.1021 0-2.0732-0.41464-0.97114-0.42555-1.6913-1.1457-0.72018-0.72017-1.1457-1.6913-0.41465-0.97114-0.41465-2.0732z"/>
<path d="m88.953 6.937q0-0.31644 0.10911-0.58923 0.12003-0.2837 0.31644-0.48011 0.19641-0.20732 0.45829-0.31644 0.27279-0.12003 0.57831-0.12003 0.30553 0 0.56741 0.12003 0.27278 0.10912 0.45828 0.31644 0.19642 0.19641 0.30553 0.48011 0.10911 0.27279 0.10911 0.58923v3.3499q0.17459-0.20732 0.44738-0.38191 0.2837-0.17459 0.61105-0.30552 0.33826-0.13094 0.68744-0.20732 0.36009-0.07639 0.68744-0.07639 1.0912 0 2.0623 0.42556 0.97113 0.41464 1.6913 1.1457 0.72016 0.72017 1.1349 1.6913 0.4256 0.97114 0.4256 2.0732t-0.4256 2.0732q-0.41469 0.96022-1.1349 1.6804-0.72017 0.72017-1.6913 1.1457-0.97114 0.41464-2.0623 0.41464-1.1021 0-2.0732-0.41464-0.96023-0.42555-1.6913-1.1457-0.73108-0.72017-1.1566-1.6804-0.41464-0.97114-0.41464-2.0732zm2.9134 7.7145q0 0.50194 0.18549 0.9384 0.19642 0.43647 0.52377 0.76382 0.33826 0.32735 0.77472 0.51285 0.44738 0.1855 0.93841 0.1855 0.50193 0 0.9384-0.1855 0.43646-0.1855 0.76381-0.51285t0.51285-0.76382q0.19641-0.43646 0.19641-0.9384t-0.19641-0.9384q-0.1855-0.43646-0.51285-0.76382-0.32735-0.32735-0.76381-0.51285-0.43647-0.1855-0.9384-0.1855-0.49103 0-0.93841 0.1855-0.43646 0.1855-0.77472 0.51285-0.32735 0.32735-0.52377 0.76382-0.18549 0.43647-0.18549 0.9384z"/>
<path d="m107.6 14.498q0-0.48011-0.15277-0.90566-0.14185-0.42556-0.41464-0.73108-0.27279-0.31644-0.66561-0.49102-0.38191-0.1855-0.86202-0.1855-0.48012 0-0.98204 0.16367-0.49103 0.16368-0.90568 0.45829-0.40372 0.29461-0.6656 0.69834-0.26189 0.40373-0.26189 0.87293v4.0264q0 0.29461-0.10911 0.55649t-0.30553 0.45829q-0.19641 0.19641-0.45828 0.31644-0.26188 0.10912-0.56741 0.10912-0.30552 0-0.57832-0.10912-0.26188-0.12003-0.45829-0.31644-0.1964-0.19641-0.31646-0.45829-0.10913-0.26188-0.10913-0.55649v-11.512q0-0.30553 0.10913-0.5674 0.12006-0.27279 0.31646-0.4692 0.20733-0.19641 0.4692-0.30553 0.2728-0.12003 0.56741-0.12003 0.29462 0 0.55649 0.12003 0.26188 0.10912 0.45829 0.30553t0.30553 0.4692q0.12002 0.26188 0.12002 0.5674v3.579q0.60015-0.53467 1.3094-0.8402 0.72017-0.31644 1.5058-0.31644 1.0584 0 1.975 0.41464 0.91658 0.40373 1.5822 1.113 0.67653 0.69834 1.0584 1.6477 0.38191 0.9384 0.38191 2.0077v3.95q0 0.30553-0.12003 0.56741-0.10912 0.25097-0.31643 0.44738-0.19642 0.1855-0.45829 0.29462-0.26189 0.10912-0.5565 0.10912t-0.5674-0.10912q-0.26188-0.10912-0.45829-0.29462-0.19641-0.19641-0.31644-0.44738-0.10911-0.26188-0.10911-0.56741z"/>
</g>
</svg>
