<?xml version="1.0" encoding="UTF-8"?>
<!-- Created with Inkscape (http://www.inkscape.org/) -->
<svg width="105.94mm" height="25.149mm" version="1.1" viewBox="0 0 105.94 25.149" xmlns="http://www.w3.org/2000/svg">
 <g transform="translate(-43.592 -139.87)" fill="#F48484">
  <g transform="scale(.96428 1.037)" stroke-width=".78714" aria-label="oxtreet bh">
   <path d="m78.665 149.16q0 0.44906 0.16596 0.83955 0.17572 0.3905 0.46859 0.68337 0.30263 0.29286 0.69312 0.45882 0.39049 0.16596 0.8298 0.16596 0.44907 0 0.83956-0.16596 0.40026-0.16596 0.69312-0.45882 0.29287-0.29287 0.45883-0.68337 0.17572-0.39049 0.17572-0.83955 0-0.44907-0.17572-0.83956-0.16596-0.39049-0.45883-0.68336t-0.69312-0.45883q-0.39049-0.16596-0.83956-0.16596-0.4393 0-0.8298 0.16596-0.39049 0.16596-0.69312 0.45883-0.29287 0.29287-0.46859 0.68336-0.16596 0.39049-0.16596 0.83956zm-2.6065 0q0-0.986 0.37097-1.8548 0.38073-0.86885 1.025-1.5132 0.65407-0.65407 1.5132-1.025 0.86884-0.38073 1.8548-0.38073t1.8548 0.38073q0.86884 0.37097 1.5132 1.025 0.64431 0.64431 1.0153 1.5132 0.38073 0.86884 0.38073 1.8548 0 0.98599-0.38073 1.8548-0.37097 0.85909-1.0153 1.5034-0.64431 0.64431-1.5132 1.025-0.86884 0.37097-1.8548 0.37097t-1.8548-0.37097q-0.85908-0.38073-1.5132-1.025-0.64431-0.64431-1.025-1.5034-0.37097-0.86884-0.37097-1.8548z"/>
   <path d="m89.576 151-2.4406 2.4406q-0.18548 0.18548-0.4393 0.2831-0.24406 0.0879-0.49788 0.0879-0.27334 0-0.5174-0.0976-0.2343-0.10739-0.41978-0.27334-0.17572-0.17573-0.28311-0.40026-0.09762-0.23429-0.09762-0.48811 0-0.24406 0.08786-0.47836 0.09762-0.23429 0.29287-0.42954l2.4699-2.4894-2.587-2.5968q-0.18548-0.18548-0.27334-0.41002-0.08786-0.23429-0.08786-0.47835 0-0.26358 0.09762-0.49788 0.10739-0.23429 0.28311-0.41978 0.17572-0.18548 0.41002-0.29287 0.2343-0.10738 0.49788-0.10738 0.25382 0.01 0.48812 0.0976 0.24406 0.0879 0.4393 0.28311l2.5675 2.587 2.5382-2.5577q0.19525-0.19525 0.4393-0.29287 0.25382-0.10739 0.50764-0.10739 0.27334 0 0.50764 0.11715 0.2343 0.10738 0.41002 0.29287 0.17572 0.17572 0.27334 0.41978 0.09762 0.24406 0.09762 0.50764 0 0.23429-0.08786 0.45883-0.0781 0.22453-0.25382 0.40025l-2.5968 2.6065 2.4308 2.4308q0.19525 0.19525 0.28311 0.42954 0.09762 0.2343 0.09762 0.48812 0 0.26358-0.10739 0.49787-0.09762 0.2343-0.27334 0.41002-0.17572 0.17572-0.41002 0.28311-0.2343 0.0976-0.49788 0.0976-0.25382 0-0.49788-0.0879-0.2343-0.0976-0.41978-0.28311z"/>
   <path d="m93.976 142.84q0-0.27334 0.10738-0.50764 0.10738-0.24405 0.28311-0.41977 0.17572-0.18549 0.41002-0.28311 0.24406-0.10739 0.50764-0.10739 0.26358 0 0.50764 0.10739 0.25382 0.0976 0.4393 0.27334 0.18548 0.17572 0.29287 0.41978 0.11715 0.24406 0.11715 0.5174v1.2496h2.997q0.26358 0 0.49788 0.10738 0.24406 0.0976 0.41978 0.28311 0.18548 0.17572 0.2831 0.41978 0.10739 0.2343 0.10739 0.49788t-0.10739 0.48811q-0.0976 0.22454-0.2831 0.40026-0.17572 0.16596-0.41978 0.26358-0.2343 0.0976-0.49788 0.0976h-2.997v2.5284q0 0.44907 0.1562 0.83956 0.16596 0.39049 0.44907 0.68336t0.66384 0.45883 0.8298 0.16596q0.40025 0 0.74194-0.10739 0.34168-0.10738 0.60527-0.35144 0.21477-0.19525 0.44906-0.31239 0.24406-0.12691 0.53693-0.12691 0.21477 0 0.42954 0.0976 0.21477 0.0879 0.37097 0.25382 0.16596 0.16596 0.26358 0.39049 0.10739 0.21477 0.10739 0.46859 0 0.30263-0.12691 0.5955-0.11715 0.29287-0.34168 0.5174-0.60527 0.58574-1.3765 0.87861-0.77122 0.29287-1.6596 0.29287-0.98599 0-1.8548-0.37097-0.86885-0.38073-1.5132-1.025t-1.025-1.5132q-0.37097-0.86884-0.37097-1.8548z"/>
   <path d="m101.87 149.25q0.0293-0.99576 0.42954-1.8744 0.40026-0.8786 1.0641-1.5327 0.6736-0.66383 1.5522-1.0446 0.99937-0.3905 1.8841-0.41002h0.0879q0.64431 0.01 0.98599 0.37097 0.35144 0.3612 0.35144 0.91765 0 0.28311-0.10738 0.5174-0.10739 0.2343-0.29287 0.41002-0.17572 0.17572-0.42954 0.27335-0.24406 0.0976-0.51741 0.0976-0.48811 0-0.92742 0.18548-0.42954 0.18549-0.76146 0.50764-0.32215 0.32216-0.5174 0.76146-0.19524 0.42954-0.20501 0.92742v3.1728q0 0.27335-0.0976 0.50764-0.0976 0.2343-0.27334 0.41002-0.17572 0.16596-0.41002 0.26358-0.22453 0.0976-0.48812 0.0976-0.26358 0-0.50764-0.0976-0.24405-0.0976-0.42954-0.26358-0.17572-0.17572-0.2831-0.41002-0.10739-0.23429-0.10739-0.50764z"/>
   <path d="m110.01 150.32q0.31239 0.50764 0.81027 0.80051t1.0934 0.29287q0.38073 0 0.60526-0.0586 0.2343-0.0683 0.41978-0.17572 0.19525-0.12691 0.38073-0.17572 0.19525-0.0586 0.37097-0.0586 0.27334 0 0.49787 0.10738 0.2343 0.10739 0.40026 0.29287 0.17572 0.18549 0.27334 0.42954 0.0976 0.24406 0.0976 0.50764 0 0.33192-0.18549 0.63455-0.18548 0.29287-0.56621 0.51741-0.38073 0.21477-0.95671 0.35144-0.56621 0.12691-1.3374 0.12691-0.986 0-1.8646-0.37097-0.86885-0.38073-1.5229-1.025-0.65408-0.64431-1.0348-1.5034-0.38073-0.86884-0.38073-1.8548 0-0.99576 0.38073-1.8646 0.38073-0.86885 1.0348-1.5132 0.65407-0.65408 1.5229-1.025 0.8786-0.37097 1.8646-0.37097 0.97623 0 1.8353 0.37097 0.86885 0.3612 1.5132 1.0055 0.65407 0.63455 1.0348 1.4936 0.39049 0.85908 0.41002 1.8353 0 0.55645-0.36121 0.89813-0.35144 0.33192-0.91765 0.33192zm4.0318-2.1672q-0.27334-0.58574-0.82003-0.93718-0.54669-0.35145-1.2593-0.35145-0.73217 0-1.2496 0.37097-0.5174 0.36121-0.78098 0.91766z"/>
   <path d="m119.01 150.32q0.31239 0.50764 0.81027 0.80051t1.0934 0.29287q0.38073 0 0.60526-0.0586 0.23429-0.0683 0.41978-0.17572 0.19524-0.12691 0.38073-0.17572 0.19524-0.0586 0.37097-0.0586 0.27334 0 0.49787 0.10738 0.2343 0.10739 0.40026 0.29287 0.17572 0.18549 0.27334 0.42954 0.0976 0.24406 0.0976 0.50764 0 0.33192-0.18549 0.63455-0.18548 0.29287-0.56621 0.51741-0.38073 0.21477-0.95671 0.35144-0.56621 0.12691-1.3374 0.12691-0.986 0-1.8646-0.37097-0.86885-0.38073-1.5229-1.025-0.65408-0.64431-1.0348-1.5034-0.38073-0.86884-0.38073-1.8548 0-0.99576 0.38073-1.8646 0.38073-0.86885 1.0348-1.5132 0.65407-0.65408 1.5229-1.025 0.8786-0.37097 1.8646-0.37097 0.97623 0 1.8353 0.37097 0.86884 0.3612 1.5132 1.0055 0.65407 0.63455 1.0348 1.4936 0.39049 0.85908 0.41002 1.8353 0 0.55645-0.36121 0.89813-0.35144 0.33192-0.91765 0.33192zm4.0318-2.1672q-0.27335-0.58574-0.82003-0.93718-0.54669-0.35145-1.2593-0.35145-0.73218 0-1.2496 0.37097-0.5174 0.36121-0.78098 0.91766z"/>
   <path d="m125.35 142.84q0-0.27334 0.10738-0.50764 0.10739-0.24405 0.28311-0.41977 0.17572-0.18549 0.41002-0.28311 0.24405-0.10739 0.50764-0.10739 0.26358 0 0.50764 0.10739 0.25382 0.0976 0.4393 0.27334 0.18548 0.17572 0.29287 0.41978 0.11715 0.24406 0.11715 0.5174v1.2496h2.997q0.26359 0 0.49788 0.10738 0.24406 0.0976 0.41978 0.28311 0.18548 0.17572 0.28311 0.41978 0.10738 0.2343 0.10738 0.49788t-0.10738 0.48811q-0.0976 0.22454-0.28311 0.40026-0.17572 0.16596-0.41978 0.26358-0.23429 0.0976-0.49788 0.0976h-2.997v2.5284q0 0.44907 0.15619 0.83956 0.16596 0.39049 0.44907 0.68336t0.66384 0.45883 0.82979 0.16596q0.40026 0 0.74194-0.10739 0.34168-0.10738 0.60526-0.35144 0.21477-0.19525 0.44907-0.31239 0.24405-0.12691 0.53692-0.12691 0.21477 0 0.42954 0.0976 0.21478 0.0879 0.37097 0.25382 0.16596 0.16596 0.26358 0.39049 0.10739 0.21477 0.10739 0.46859 0 0.30263-0.12691 0.5955-0.11715 0.29287-0.34168 0.5174-0.60526 0.58574-1.3765 0.87861-0.77122 0.29287-1.6596 0.29287-0.98599 0-1.8548-0.37097-0.86884-0.38073-1.5132-1.025-0.64432-0.64431-1.025-1.5132-0.37097-0.86884-0.37097-1.8548z"/>
   <path d="m136.29 142.26q0-0.28311 0.0976-0.52717 0.10739-0.25382 0.28311-0.42954 0.17572-0.18548 0.41001-0.28311 0.24406-0.10738 0.51741-0.10738 0.27334 0 0.50764 0.10738 0.24405 0.0976 0.41001 0.28311 0.17573 0.17572 0.27335 0.42954 0.0976 0.24406 0.0976 0.52717v2.997q0.1562-0.18548 0.40026-0.34168 0.25382-0.15619 0.54668-0.27334 0.30264-0.11715 0.61503-0.18549 0.32216-0.0683 0.61503-0.0683 0.97623 0 1.8451 0.38073 0.86885 0.37097 1.5132 1.025 0.64431 0.64431 1.0153 1.5132 0.38073 0.86884 0.38073 1.8548 0 0.98599-0.38073 1.8548-0.37097 0.85909-1.0153 1.5034t-1.5132 1.025q-0.86884 0.37097-1.8451 0.37097-0.986 0-1.8548-0.37097-0.85909-0.38073-1.5132-1.025t-1.0348-1.5034q-0.37097-0.86884-0.37097-1.8548zm2.6065 6.902q0 0.44906 0.16596 0.83955 0.17572 0.3905 0.46859 0.68337 0.30263 0.29286 0.69313 0.45882 0.40025 0.16596 0.83956 0.16596 0.44906 0 0.83955-0.16596 0.3905-0.16596 0.68336-0.45882 0.29287-0.29287 0.45883-0.68337 0.17572-0.39049 0.17572-0.83955 0-0.44907-0.17572-0.83956-0.16596-0.39049-0.45883-0.68336-0.29286-0.29287-0.68336-0.45883-0.39049-0.16596-0.83955-0.16596-0.43931 0-0.83956 0.16596-0.3905 0.16596-0.69313 0.45883-0.29287 0.29287-0.46859 0.68336-0.16596 0.39049-0.16596 0.83956z"/>
   <path d="m152.48 149.02q0-0.42954-0.13667-0.81027-0.12691-0.38073-0.37097-0.65407-0.24406-0.28311-0.5955-0.43931-0.34168-0.16596-0.77122-0.16596t-0.87861 0.14644q-0.4393 0.14643-0.81027 0.41002-0.3612 0.26358-0.5955 0.62478-0.23429 0.36121-0.23429 0.78099v3.6023q0 0.26358-0.0976 0.49788-0.0976 0.23429-0.27334 0.41001-0.17572 0.17572-0.41002 0.28311-0.23429 0.0976-0.50764 0.0976-0.27334 0-0.5174-0.0976-0.2343-0.10739-0.41002-0.28311t-0.2831-0.41001q-0.0976-0.2343-0.0976-0.49788v-10.299q0-0.27335 0.0976-0.50764 0.10738-0.24406 0.2831-0.41978 0.18549-0.17572 0.41978-0.27335 0.24406-0.10738 0.50764-0.10738t0.49788 0.10738q0.23429 0.0976 0.41002 0.27335 0.17572 0.17572 0.27334 0.41978 0.10739 0.23429 0.10739 0.50764v3.202q0.53692-0.47835 1.1715-0.75169 0.64431-0.28311 1.3472-0.28311 0.94694 0 1.767 0.37097 0.82003 0.3612 1.4155 0.99575 0.60526 0.62479 0.94694 1.4741 0.34169 0.83956 0.34169 1.7963v3.534q0 0.27334-0.10739 0.50764-0.0976 0.22453-0.28311 0.40025-0.17572 0.16596-0.41001 0.26358-0.2343 0.0976-0.49788 0.0976t-0.50764-0.0976q-0.2343-0.0976-0.41002-0.26358-0.17572-0.17572-0.2831-0.40025-0.0976-0.2343-0.0976-0.50764z"/>
  </g>
  <g transform="matrix(.81305 0 0 .81305 7.8897 33.158)">
   <rect x="72.635" y="147.18" width="3.8789" height="7.0997" ry=".12122"/>
   <rect x="72.635" y="139.28" width="3.8789" height="7.0997" ry=".12122"/>
   <rect x="72.635" y="155.08" width="3.8789" height="7.0997" ry=".12122"/>
   <rect x="72.635" y="131.37" width="3.8789" height="7.0997" ry=".12122"/>
  </g>
  <g transform="matrix(.90306 -.096271 .096271 .90306 -3.5073 69.109)">
   <rect transform="rotate(-32.187)" x="-9.0389" y="106.06" width="2.915" height="2.9503" rx="0" ry="1.1126" fill="#F48484"/>
   <rect transform="rotate(-31.385)" x="-6.863" y="94.005" width="1.6132" height="3.7578" ry=".90167" fill="none" stroke="#F48484" stroke-width=".4502"/>
   <rect transform="rotate(-31.385)" x="-6.3529" y="97.029" width=".59307" height="3.9074" ry=".48352" fill="#F48484"/>
   <rect transform="rotate(-31.385)" x="-6.8167" y="100.2" width="1.6132" height="3.7578" ry=".90167" fill="none" stroke="#F48484" stroke-width=".4502"/>
   <rect transform="rotate(-31.385)" x="-6.3066" y="103.22" width=".59307" height="3.9074" ry=".48352" fill="#F48484"/>
   <circle cx="55.882" cy="102.79" r="8.7803" fill="#F48484"/>
  </g>
 </g>
</svg>
